NotoSans.glyphspackage
{
category = Punctuation;
glyphname = exclam;
layers = (
{
layerId = "0A718E2F-231D-484E-9433-16A5230D2CE8";
shapes = (
{
closed = 1;
nodes = (
(251,714,l),
(40,714,l),
(65,252,l),
(226,252,l)
);
},
{
closed = 1;
nodes = (
(42,15,o),
(89,-12,o),
(145,-12,cs),
(200,-12,o),
(246,15,o),
(246,81,cs),
(246,150,o),
(200,175,o),
(145,175,cs),
(89,175,o),
(42,150,o),
(42,81,cs)
);
}
);
width = 290;
},
{
layerId = "98E204A9-1C79-49C7-AB3E-40A925F56409";
shapes = (
{
closed = 1;
nodes = (
(229,714,l),
(42,714,l),
(66,252,l),
(206,252,l)
);
},
{
closed = 1;
nodes = (
(43,22,o),
(79,-12,o),
(136,-12,cs),
(192,-12,o),
(226,22,o),
(226,81,cs),
(226,141,o),
(194,175,o),
(136,175,cs),
(75,175,o),
(43,141,o),
(43,81,cs)
);
}
);
width = 271;
},
{
layerId = "9FF96064-8718-4A86-A5C8-73C592101F67";
shapes = (
{
closed = 1;
nodes = (
(188,714,l),
(81,714,l),
(106,201,l),
(163,201,l)
);
},
{
closed = 1;
nodes = (
(72,6,o),
(99,-14,o),
(134,-14,cs),
(167,-14,o),
(196,6,o),
(196,54,cs),
(196,103,o),
(167,121,o),
(134,121,cs),
(99,121,o),
(72,103,o),
(72,54,cs)
);
}
);
width = 269;
},
{
layerId = "36F3C8CB-53EE-4548-BFDE-2C03212BACAA";
shapes = (
{
closed = 1;
nodes = (
(166,714,l),
(68,714,l),
(87,201,l),
(148,201,l)
);
},
{
closed = 1;
nodes = (
(64,13,o),
(83,-9,o),
(118,-9,cs),
(149,-9,o),
(172,11,o),
(172,55,cs),
(172,100,o),
(151,119,o),
(118,119,cs),
(82,119,o),
(64,97,o),
(64,55,cs)
);
}
);
width = 235;
},
{
layerId = "AB666A95-3AF9-4DE8-B258-097FFCFE8A59";
shapes = (
{
closed = 1;
nodes = (
(127,714,l),
(98,714,l),
(100,174,l),
(125,174,l)
);
},
{
closed = 1;
nodes = (
(85,6,o),
(90,-8,o),
(110,-8,cs),
(134,-8,o),
(137,6,o),
(137,23,cs),
(137,39,o),
(134,54,o),
(110,54,cs),
(90,54,o),
(85,39,o),
(85,23,cs)
);
}
);
width = 223;
},
{
layerId = "029FEF0C-5FA4-4A3E-AC23-838A1147A554";
shapes = (
{
closed = 1;
nodes = (
(114,714,l),
(82,714,l),
(85,170,l),
(109,170,l)
);
},
{
closed = 1;
nodes = (
(72,9,o),
(77,-6,o),
(97,-6,cs),
(115,-6,o),
(123,7,o),
(123,30,cs),
(123,53,o),
(116,65,o),
(97,65,cs),
(77,65,o),
(72,49,o),
(72,30,cs)
);
}
);
width = 194;
}
);
script = "";
subCategory = Other;
unicode = 33;
}
{
category = Punctuation;
glyphname = quotedbl;
kernLeft = quote.right;
kernRight = quote.left;
layers = (
{
layerId = "0A718E2F-231D-484E-9433-16A5230D2CE8";
shapes = (
{
closed = 1;
nodes = (
(59,714,l),
(79,456,l),
(213,456,l),
(233,714,l)
);
},
{
closed = 1;
nodes = (
(291,714,l),
(311,456,l),
(445,456,l),
(465,714,l)
);
}
);
width = 524;
},
{
layerId = "98E204A9-1C79-49C7-AB3E-40A925F56409";
shapes = (
{
closed = 1;
nodes = (
(39,714,l),
(59,456,l),
(193,456,l),
(213,714,l)
);
},
{
closed = 1;
nodes = (
(271,714,l),
(291,456,l),
(425,456,l),
(445,714,l)
);
}
);
width = 484;
},
{
layerId = "9FF96064-8718-4A86-A5C8-73C592101F67";
shapes = (
{
closed = 1;
nodes = (
(65,714,l),
(85,456,l),
(140,456,l),
(160,714,l)
);
},
{
closed = 1;
nodes = (
(248,714,l),
(268,456,l),
(323,456,l),
(343,714,l)
);
}
);
width = 408;
},
{
layerId = "134B12F2-BF5D-48E3-8003-C7502B438C7E";
shapes = (
{
closed = 1;
nodes = (
(65,714,l),
(85,456,l),
(181,456,l),
(201,714,l)
);
},
{
closed = 1;
nodes = (
(271,714,l),
(291,456,l),
(387,456,l),
(407,714,l)
);
}
);
width = 472;
},
{
layerId = "36F3C8CB-53EE-4548-BFDE-2C03212BACAA";
shapes = (
{
closed = 1;
nodes = (
(58,714,l),
(75,456,l),
(136,456,l),
(152,714,l)
);
},
{
closed = 1;
nodes = (
(228,714,l),
(245,456,l),
(306,456,l),
(322,714,l)
);
}
);
width = 379;
},
{
layerId = "43B45EC1-5522-4B1A-B0C7-88628E50A583";
shapes = (
{
closed = 1;
nodes = (
(46,714,l),
(65,456,l),
(170,456,l),
(189,714,l)
);
},
{
closed = 1;
nodes = (
(254,714,l),
(273,456,l),
(378,456,l),
(397,714,l)
);
}
);
width = 443;
},
{
layerId = "AB666A95-3AF9-4DE8-B258-097FFCFE8A59";
shapes = (
{
closed = 1;
nodes = (
(73,714,l),
(77,456,l),
(97,456,l),
(101,714,l)
);
},
{
closed = 1;
nodes = (
(219,714,l),
(223,456,l),
(243,456,l),
(247,714,l)
);
}
);
width = 320;
},
{
layerId = "029FEF0C-5FA4-4A3E-AC23-838A1147A554";
shapes = (
{
closed = 1;
nodes = (
(65,714,l),
(70,456,l),
(92,456,l),
(97,714,l)
);
},
{
closed = 1;
nodes = (
(196,714,l),
(201,456,l),
(223,456,l),
(228,714,l)
);
}
);
width = 293;
}
);
script = "";
subCategory = Other;
unicode = 34;
}
{
category = Punctuation;
color = 10;
glyphname = numbersign;
layers = (
{
layerId = "0A718E2F-231D-484E-9433-16A5230D2CE8";
shapes = (
{
closed = 1;
nodes = (
(644,397,l),
(644,524,l),
(532,524,l),
(568,714,l),
(437,714,l),
(402,524,l),
(321,524,l),
(357,714,l),
(226,714,l),
(191,524,l),
(51,524,l),
(51,397,l),
(167,397,l),
(152,315,l),
(18,315,l),
(18,191,l),
(128,191,l),
(93,0,l),
(223,0,l),
(258,191,l),
(340,191,l),
(304,0,l),
(435,0,l),
(471,191,l),
(613,191,l),
(613,315,l),
(494,315,l),
(509,397,l)
);
},
{
closed = 1;
nodes = (
(297,397,l),
(378,397,l),
(363,315,l),
(282,315,l)
);
}
);
width = 662;
},
{
layerId = "98E204A9-1C79-49C7-AB3E-40A925F56409";
shapes = (
{
closed = 1;
nodes = (
(532,407,l),
(532,524,l),
(446,524,l),
(474,714,l),
(357,714,l),
(330,524,l),
(268,524,l),
(296,714,l),
(180,714,l),
(152,524,l),
(45,524,l),
(45,407,l),
(136,407,l),
(121,305,l),
(21,305,l),
(21,191,l),
(105,191,l),
(78,0,l),
(194,0,l),
(221,191,l),
(284,191,l),
(256,0,l),
(373,0,l),
(401,191,l),
(508,191,l),
(508,305,l),
(416,305,l),
(431,407,l)
);
},
{
closed = 1;
nodes = (
(252,407,l),
(314,407,l),
(299,305,l),
(237,305,l)
);
}
);
width = 545;
},
{
layerId = "9FF96064-8718-4A86-A5C8-73C592101F67";
shapes = (
{
closed = 1;
nodes = (
(620,436,l),
(620,502,l),
(493,502,l),
(533,714,l),
(464,714,l),
(424,502,l),
(280,502,l),
(320,714,l),
(248,714,l),
(208,502,l),
(62,502,l),
(62,436,l),
(196,436,l),
(164,276,l),
(25,276,l),
(25,209,l),
(151,209,l),
(113,0,l),
(183,0,l),
(222,209,l),
(365,209,l),
(324,0,l),
(395,0,l),
(436,209,l),
(586,209,l),
(586,276,l),
(449,276,l),
(480,436,l)
);
},
{
closed = 1;
nodes = (
(266,436,l),
(409,436,l),
(378,276,l),
(235,276,l)
);
}
);
width = 646;
},
{
associatedMasterId = "9FF96064-8718-4A86-A5C8-73C592101F67";
attr = {
coordinates = (
151,
100
);
};
background = {
shapes = (
{
closed = 1;
nodes = (
(634.64,412.21,l),
(634.64,515.42,l),
(516.79,515.42,l),
(554.35,714,l),
(447.53,714,l),
(410.58,515.42,l),
(305.01,515.42,l),
(342.57,714,l),
(234.58,714,l),
(197.63,515.42,l),
(55.29,515.42,l),
(55.29,412.21,l),
(178.31,412.21,l),
(156.68,299.79,l),
(20.73,299.79,l),
(20.73,198.02,l),
(136.97,198.02,l),
(100.8,0,l),
(207.4,0,l),
(243.96,198.02,l),
(349.75,198.02,l),
(311.8,0,l),
(419.4,0,l),
(457.35,198.02,l),
(602.47,198.02,l),
(602.47,299.79,l),
(476.45,299.79,l),
(497.69,412.21,l)
);
},
{
closed = 1;
nodes = (
(284.91,412.21,l),
(390.09,412.21,l),
(368.85,299.79,l),
(263.67,299.79,l)
);
}
);
};
layerId = "f9209c55-963c-407e-b179-1947852d04a1";
name = "SemiBold (intermediate)";
shapes = (
{
closed = 1;
nodes = (
(624,412,l),
(624,514,l),
(507,514,l),
(545,713,l),
(440,713,l),
(402,514,l),
(305,514,l),
(343,713,l),
(236,713,l),
(198,514,l),
(57,514,l),
(57,412,l),
(180,412,l),
(157,299,l),
(22,299,l),
(22,198,l),
(138,198,l),
(102,0,l),
(207,0,l),
(244,198,l),
(339,198,l),
(301,0,l),
(408,0,l),
(446,198,l),
(591,198,l),
(591,299,l),
(465,299,l),
(488,412,l)
);
},
{
closed = 1;
nodes = (
(286,412,l),
(382,412,l),
(359,299,l),
(263,299,l)
);
}
);
width = 646;
},
{
layerId = "36F3C8CB-53EE-4548-BFDE-2C03212BACAA";
shapes = (
{
closed = 1;
nodes = (
(443,449,l),
(443,513,l),
(360,513,l),
(385,714,l),
(324,714,l),
(299,513,l),
(200,513,l),
(225,714,l),
(162,714,l),
(138,513,l),
(42,513,l),
(42,449,l),
(130,449,l),
(110,282,l),
(19,282,l),
(19,217,l),
(102,217,l),
(76,0,l),
(137,0,l),
(163,217,l),
(262,217,l),
(235,0,l),
(298,0,l),
(325,217,l),
(420,217,l),
(420,282,l),
(333,282,l),
(353,449,l)
);
},
{
closed = 1;
nodes = (
(192,449,l),
(291,449,l),
(270,282,l),
(172,282,l)
);
}
);
width = 460;
},
{
layerId = "AB666A95-3AF9-4DE8-B258-097FFCFE8A59";
shapes = (
{
closed = 1;
nodes = (
(618,462,l),
(618,486,l),
(471,486,l),
(515,714,l),
(490,714,l),
(446,486,l),
(247,486,l),
(291,714,l),
(266,714,l),
(222,486,l),
(67,486,l),
(67,462,l),
(218,462,l),
(177,251,l),
(28,251,l),
(28,227,l),
(173,227,l),
(129,0,l),
(154,0,l),
(198,227,l),
(397,227,l),
(353,0,l),
(378,0,l),
(422,227,l),
(579,227,l),
(579,251,l),
(426,251,l),
(467,462,l)
);
},
{
closed = 1;
nodes = (
(243,462,l),
(442,462,l),
(401,251,l),
(202,251,l)
);
}
);
width = 646;
},
{
layerId = "029FEF0C-5FA4-4A3E-AC23-838A1147A554";
shapes = (
{
closed = 1;
nodes = (
(405,479,l),
(405,503,l),
(316,503,l),
(338,714,l),
(315,714,l),
(292,503,l),
(162,503,l),
(185,714,l),
(161,714,l),
(137,503,l),
(41,503,l),
(41,479,l),
(134,479,l),
(109,259,l),
(18,259,l),
(18,234,l),
(107,234,l),
(80,0,l),
(104,0,l),
(132,234,l),
(263,234,l),
(235,0,l),
(260,0,l),
(288,234,l),
(379,234,l),
(379,259,l),
(290,259,l),
(314,479,l)
);
},
{
closed = 1;
nodes = (
(159,479,l),
(290,479,l),
(266,259,l),
(134,259,l)
);
}
);
width = 424;
}
);
script = "";
subCategory = Other;
unicode = 35;
}
{
category = Symbol;
glyphname = dollar;
layers = (
{
layerId = "0A718E2F-231D-484E-9433-16A5230D2CE8";
shapes = (
{
closed = 1;
nodes = (
(242,-58,l),
(334,-58,l),
(334,24,l),
(486,40,o),
(554,122,o),
(554,230,c),
(554,348,o),
(473,388,o),
(334,430,c),
(334,551,l),
(387,546,o),
(443,533,o),
(492,512,c),
(535,646,l),
(481,668,o),
(415,688,o),
(334,692,c),
(334,760,l),
(242,760,l),
(242,691,l),
(112,682,o),
(26,623,o),
(26,502,cs),
(26,374,o),
(118,325,o),
(242,289,c),
(242,166,l),
(181,171,o),
(105,188,o),
(42,216,c),
(42,63,l),
(98,39,o),
(156,24,o),
(242,22,c)
);
},
{
closed = 1;
nodes = (
(334,266,l),
(378,252,o),
(391,239,o),
(391,214,cs),
(391,189,o),
(373,174,o),
(334,168,c)
);
},
{
closed = 1;
nodes = (
(242,457,l),
(202,470,o),
(187,484,o),
(187,509,cs),
(187,532,o),
(206,547,o),
(242,550,c)
);
}
);
width = 577;
},
{
layerId = "98E204A9-1C79-49C7-AB3E-40A925F56409";
shapes = (
{
closed = 1;
nodes = (
(217,-58,l),
(288,-58,l),
(288,37,l),
(392,58,o),
(451,134,o),
(451,233,cs),
(451,331.15,o),
(400.949,379.248,o),
(288,422.264,c),
(288,564.478,l),
(323.876,559.4,o),
(367.303,546.467,o),
(404,524,c),
(438,645,l),
(389,672,o),
(336,688,o),
(288,692,c),
(288,759,l),
(217,759,l),
(217,691,l),
(116,677,o),
(45,619,o),
(45,510,cs),
(45,411.814,o),
(104.066,355.429,o),
(217,309.66,c),
(217,155.087,l),
(163.91,156.903,o),
(99.468,187.042,o),
(51,220,c),
(51,76,l),
(102,52,o),
(164,37,o),
(217,33,c)
);
},
{
closed = 1;
nodes = (
(288,278.386,l),
(311.342,264.308,o),
(325,247.637,o),
(325,223,cs),
(325,196.177,o),
(315.618,175.88,o),
(288,164.713,c)
);
},
{
closed = 1;
nodes = (
(217,452.21,l),
(187.492,468.4,o),
(175,484.685,o),
(175,507,cs),
(175,535.304,o),
(183.778,555.415,o),
(217,563.305,c)
);
}
);
width = 495;
},
{
layerId = "9FF96064-8718-4A86-A5C8-73C592101F67";
shapes = (
{
closed = 1;
nodes = (
(253,-58,l),
(317,-58,l),
(317,53,l),
(444,66,o),
(516,127,o),
(516,220,cs),
(516,320,o),
(449,357,o),
(317,395,c),
(317,596,l),
(370,592,o),
(423,578,o),
(466,561,c),
(493,635,l),
(445,655,o),
(388,670,o),
(317,672,c),
(317,759,l),
(253,759,l),
(253,671,l),
(136,664,o),
(62,606,o),
(62,508,cs),
(62,413,o),
(121,364,o),
(253,328,c),
(253,126,l),
(185,127,o),
(107,146,o),
(62,167,c),
(62,82,l),
(105,62,o),
(179,50,o),
(253,49,c)
);
},
{
closed = 1;
nodes = (
(317,307,l),
(404,285,o),
(430,264,o),
(430,214,cs),
(430,169,o),
(395,139,o),
(317,131,c)
);
},
{
closed = 1;
nodes = (
(253,417,l),
(173,437,o),
(148,462,o),
(148,515,cs),
(148,559,o),
(181,589,o),
(253,594,c)
);
}
);
width = 572;
},
{
layerId = "36F3C8CB-53EE-4548-BFDE-2C03212BACAA";
shapes = (
{
closed = 1;
nodes = (
(190,-58,l),
(239,-58,l),
(239,56,l),
(335,72,o),
(390,135,o),
(390,222,cs),
(390,308,o),
(340,350,o),
(239,392,c),
(239,607,l),
(283,604,o),
(319,595,o),
(354,577,c),
(377,642,l),
(335,663,o),
(290,674,o),
(239,677,c),
(239,760,l),
(190,760,l),
(190,675,l),
(100,666,o),
(40,603,o),
(40,511,cs),
(40,423,o),
(82,378,o),
(190,335,c),
(190,120,l),
(133,122,o),
(78,140,o),
(41,163,c),
(41,85,l),
(78,66,o),
(130,53,o),
(190,52,c)
);
},
{
closed = 1;
nodes = (
(239,315,l),
(295,291,o),
(319,264,o),
(319,217,cs),
(319,171,o),
(292,135,o),
(239,124,c)
);
},
{
closed = 1;
nodes = (
(190,413,l),
(132,439,o),
(112,461,o),
(112,513,c),
(112,562,o),
(140,598,o),
(190,606,c)
);
}
);
width = 429;
},
{
layerId = "AB666A95-3AF9-4DE8-B258-097FFCFE8A59";
shapes = (
{
closed = 1;
nodes = (
(253,-58,l),
(277,-58,l),
(277,10,l),
(388,16,o),
(469,73,o),
(469,186,cs),
(469,292,o),
(389,329,o),
(277,370,c),
(277,679,l),
(320,678,o),
(372,669,o),
(428,644,c),
(439,667,l),
(385,692,o),
(330,703,o),
(277,704,c),
(277,759,l),
(253,759,l),
(253,704,l),
(145,698,o),
(64,641,o),
(64,536,cs),
(64,428,o),
(150,392,o),
(253,353,c),
(253,35,l),
(180,36,o),
(113,50,o),
(67,68,c),
(67,39,l),
(109,25,o),
(169,11,o),
(253,10,c)
);
},
{
closed = 1;
nodes = (
(277,343,l),
(378,304,o),
(442,271,o),
(442,187,cs),
(442,87,o),
(372,40,o),
(277,35,c)
);
},
{
closed = 1;
nodes = (
(253,379,l),
(168,411,o),
(91,445,o),
(91,538,cs),
(91,630,o),
(163,675,o),
(253,679,c)
);
}
);
width = 570;
},
{
layerId = "029FEF0C-5FA4-4A3E-AC23-838A1147A554";
shapes = (
{
closed = 1;
nodes = (
(177,-58,l),
(201,-58,l),
(201,22,l),
(307,32,o),
(363,96,o),
(363,188,cs),
(363,273,o),
(311,320,o),
(201,371,c),
(201,681,l),
(245,681,o),
(284,668,o),
(320,647,c),
(332,672,l),
(293,694,o),
(250,706,o),
(201,707,c),
(201,760,l),
(177,760,l),
(177,706,l),
(93,700,o),
(31,636,o),
(31,538,cs),
(31,444,o),
(88,398,o),
(177,354,c),
(177,47,l),
(131,47,o),
(69,65,o),
(33,83,c),
(33,54,l),
(67,38,o),
(124,23,o),
(177,21,c)
);
},
{
closed = 1;
nodes = (
(201,343,l),
(295,296,o),
(337,260,o),
(337,187,cs),
(337,102,o),
(281,53,o),
(201,48,c)
);
},
{
closed = 1;
nodes = (
(177,383,l),
(103,421,o),
(58,457,o),
(58,537,cs),
(58,623,o),
(110,674,o),
(177,680,c)
);
}
);
width = 394;
}
);
script = "";
subCategory = Currency;
unicode = 36;
}
{
category = Symbol;
glyphname = percent;
layers = (
{
layerId = "0A718E2F-231D-484E-9433-16A5230D2CE8";
shapes = (
{
closed = 1;
nodes = (
(83,724,o),
(18,642,o),
(18,501,cs),
(18,360,o),
(91,276,o),
(200,276,cs),
(321,276,o),
(386,360,o),
(386,501,cs),
(386,642,o),
(312,724,o),
(200,724,cs)
);
},
{
closed = 1;
nodes = (
(230,605,o),
(239,564,o),
(239,499,cs),
(239,434,o),
(230,393,o),
(202,393,cs),
(174,393,o),
(165,435,o),
(165,499,cs),
(165,564,o),
(174,605,o),
(202,605,cs)
);
},
{
closed = 1;
nodes = (
(597,714,l),
(201,0,l),
(346,0,l),
(742,714,l)
);
},
{
closed = 1;
nodes = (
(626,440,o),
(561,358,o),
(561,217,cs),
(561,76,o),
(634,-8,o),
(743,-8,cs),
(864,-8,o),
(929,76,o),
(929,217,cs),
(929,358,o),
(855,440,o),
(743,440,cs)
);
},
{
closed = 1;
nodes = (
(773,321,o),
(782,282,o),
(782,215,cs),
(782,150,o),
(773,109,o),
(745,109,cs),
(717,109,o),
(708,151,o),
(708,215,cs),
(708,280,o),
(717,321,o),
(745,321,cs)
);
}
);
width = 948;
},
{
layerId = "98E204A9-1C79-49C7-AB3E-40A925F56409";
shapes = (
{
closed = 1;
nodes = (
(82,724,o),
(24,644,o),
(24,501,cs),
(24,364,o),
(84,276,o),
(181,276,cs),
(283,276,o),
(341,358,o),
(341,501,cs),
(341,637,o),
(278,724,o),
(181,724,cs)
);
},
{
closed = 1;
nodes = (
(206,612,o),
(217,577,o),
(217,499,cs),
(217,420,o),
(206,386,o),
(183,386,cs),
(160,386,o),
(148,421,o),
(148,499,cs),
(148,575,o),
(160,612,o),
(183,612,cs)
);
},
{
closed = 1;
nodes = (
(505,714,l),
(212,0,l),
(332,0,l),
(625,714,l)
);
},
{
closed = 1;
nodes = (
(556,440,o),
(499,360,o),
(499,217,cs),
(499,80,o),
(558,-8,o),
(656,-8,cs),
(757,-8,o),
(815,74,o),
(815,217,cs),
(815,353,o),
(753,440,o),
(656,440,cs)
);
},
{
closed = 1;
nodes = (
(683,328,o),
(691,283,o),
(691,215,cs),
(691,147,o),
(683,102,o),
(657,102,cs),
(634,102,o),
(623,137,o),
(623,215,cs),
(623,291,o),
(634,328,o),
(657,328,cs)
);
}
);
width = 840;
},
{
layerId = "9FF96064-8718-4A86-A5C8-73C592101F67";
shapes = (
{
closed = 1;
nodes = (
(94,724,o),
(49,642,o),
(49,501,cs),
(49,360,o),
(100,276,o),
(195,276,cs),
(298,276,o),
(345,360,o),
(345,501,cs),
(345,642,o),
(293,724,o),
(195,724,cs)
);
},
{
closed = 1;
nodes = (
(247,662,o),
(272,608,o),
(272,501,cs),
(272,393,o),
(247,339,o),
(195,339,cs),
(144,339,o),
(122,394,o),
(122,501,cs),
(122,608,o),
(144,662,o),
(195,662,cs)
);
},
{
closed = 1;
nodes = (
(575,714,l),
(179,0,l),
(256,0,l),
(652,714,l)
);
},
{
closed = 1;
nodes = (
(531,438,o),
(486,356,o),
(486,215,cs),
(486,74,o),
(537,-10,o),
(632,-10,cs),
(735,-10,o),
(782,74,o),
(782,215,cs),
(782,356,o),
(729,438,o),
(632,438,cs)
);
},
{
closed = 1;
nodes = (
(684,375,o),
(709,322,o),
(709,215,cs),
(709,106,o),
(684,53,o),
(632,53,cs),
(581,53,o),
(559,107,o),
(559,215,cs),
(559,322,o),
(581,375,o),
(632,375,cs)
);
}
);
width = 831;
},
{
layerId = "134B12F2-BF5D-48E3-8003-C7502B438C7E";
shapes = (
{
closed = 1;
nodes = (
(82,724,o),
(31,642,o),
(31,501,cs),
(31,360,o),
(89,276,o),
(199,276,cs),
(318,276,o),
(370,360,o),
(370,501,cs),
(370,642,o),
(311,724,o),
(199,724,cs)
);
},
{
closed = 1;
nodes = (
(232,622,o),
(247,582,o),
(247,500,cs),
(247,417,o),
(232,377,o),
(200,377,cs),
(168,377,o),
(154,418,o),
(154,500,cs),
(154,582,o),
(168,622,o),
(200,622,cs)
);
},
{
closed = 1;
nodes = (
(589,714,l),
(193,0,l),
(310,0,l),
(706,714,l)
);
},
{
closed = 1;
nodes = (
(582,439,o),
(531,357,o),
(531,216,cs),
(531,75,o),
(589,-9,o),
(699,-9,cs),
(818,-9,o),
(870,75,o),
(870,216,cs),
(870,357,o),
(811,439,o),
(699,439,cs)
);
},
{
closed = 1;
nodes = (
(732,337,o),
(747,297,o),
(747,215,cs),
(747,132,o),
(732,92,o),
(700,92,cs),
(668,92,o),
(654,133,o),
(654,215,cs),
(654,297,o),
(668,337,o),
(700,337,cs)
);
}
);
width = 901;
},
{
layerId = "36F3C8CB-53EE-4548-BFDE-2C03212BACAA";
shapes = (
{
closed = 1;
nodes = (
(80,724,o),
(40,645,o),
(40,501,cs),
(40,359,o),
(81,276,o),
(156,276,cs),
(230,276,o),
(273,358,o),
(273,501,cs),
(273,644,o),
(230,724,o),
(156,724,cs)
);
},
{
closed = 1;
nodes = (
(188,664,o),
(205,611,o),
(205,501,cs),
(205,390,o),
(190,337,o),
(156,337,cs),
(120,337,o),
(107,391,o),
(107,501,cs),
(107,610,o),
(120,664,o),
(155,664,cs)
);
},
{
closed = 1;
nodes = (
(423,714,l),
(173,0,l),
(239,0,l),
(489,714,l)
);
},
{
closed = 1;
nodes = (
(433,439,o),
(392,363,o),
(392,216,cs),
(392,75,o),
(433,-9,o),
(508,-9,cs),
(582,-9,o),
(625,71,o),
(625,216,cs),
(625,359,o),
(582,439,o),
(508,439,cs)
);
},
{
closed = 1;
nodes = (
(540,379,o),
(556,322,o),
(556,216,cs),
(556,108,o),
(543,52,o),
(508,52,cs),
(472,52,o),
(459,106,o),
(459,216,cs),
(459,325,o),
(472,379,o),
(507,379,cs)
);
}
);
width = 664;
},
{
layerId = "43B45EC1-5522-4B1A-B0C7-88628E50A583";
shapes = (
{
closed = 1;
nodes = (
(81,724,o),
(30,644,o),
(30,501,cs),
(30,362,o),
(83,276,o),
(171,276,cs),
(262,276,o),
(314,358,o),
(314,501,cs),
(314,640,o),
(259,724,o),
(171,724,cs)
);
},
{
closed = 1;
nodes = (
(199,632,o),
(212,590,o),
(212,500,cs),
(212,408,o),
(200,367,o),
(173,367,cs),
(145,367,o),
(132,409,o),
(132,500,cs),
(132,589,o),
(145,632,o),
(172,632,cs)
);
},
{
closed = 1;
nodes = (
(473,714,l),
(197,0,l),
(296,0,l),
(572,714,l)
);
},
{
closed = 1;
nodes = (
(508,439,o),
(457,361,o),
(457,216,cs),
(457,78,o),
(509,-9,o),
(598,-9,cs),
(689,-9,o),
(741,73,o),
(741,216,cs),
(741,355,o),
(686,439,o),
(598,439,cs)
);
},
{
closed = 1;
nodes = (
(627,348,o),
(638,298,o),
(638,215,cs),
(638,132,o),
(628,83,o),
(599,83,cs),
(571,83,o),
(559,125,o),
(559,215,cs),
(559,304,o),
(571,348,o),
(598,348,cs)
);
}
);
width = 771;
},
{
layerId = "AB666A95-3AF9-4DE8-B258-097FFCFE8A59";
shapes = (
{
closed = 1;
nodes = (
(112,724,o),
(59,649,o),
(59,501,cs),
(59,353,o),
(107,276,o),
(195,276,cs),
(281,276,o),
(333,350,o),
(333,501,cs),
(333,646,o),
(289,724,o),
(197,724,cs)
);
},
{
closed = 1;
nodes = (
(273,699,o),
(306,629,o),
(306,501,cs),
(306,371,o),
(269,301,o),
(195,301,cs),
(125,301,o),
(86,369,o),
(86,501,cs),
(86,634,o),
(127,699,o),
(197,699,cs)
);
},
{
closed = 1;
nodes = (
(581,714,l),
(185,0,l),
(213,0,l),
(609,714,l)
);
},
{
closed = 1;
nodes = (
(513,438,o),
(460,363,o),
(460,215,cs),
(460,67,o),
(508,-10,o),
(596,-10,cs),
(682,-10,o),
(734,64,o),
(734,215,cs),
(734,360,o),
(690,438,o),
(598,438,cs)
);
},
{
closed = 1;
nodes = (
(674,413,o),
(707,343,o),
(707,215,cs),
(707,85,o),
(670,15,o),
(596,15,cs),
(526,15,o),
(487,83,o),
(487,215,cs),
(487,348,o),
(528,413,o),
(598,413,cs)
);
}
);
width = 793;
},
{
layerId = "029FEF0C-5FA4-4A3E-AC23-838A1147A554";
shapes = (
{
closed = 1;
nodes = (
(75,724,o),
(46,645,o),
(46,502,cs),
(46,354,o),
(77,276,o),
(142,276,cs),
(206,276,o),
(239,354,o),
(239,501,cs),
(239,653,o),
(205,724,o),
(141,724,cs)
);
},
{
closed = 1;
nodes = (
(189,703,o),
(214,633,o),
(214,501,cs),
(214,369,o),
(189,300,o),
(142,300,cs),
(96,300,o),
(70,367,o),
(70,501,cs),
(70,637,o),
(97,703,o),
(142,703,cs)
);
},
{
closed = 1;
nodes = (
(390,714,l),
(157,0,l),
(182,0,l),
(415,714,l)
);
},
{
closed = 1;
nodes = (
(368,439,o),
(334,366,o),
(334,217,cs),
(334,54,o),
(374,-9,o),
(431,-9,cs),
(490,-9,o),
(527,59,o),
(527,216,cs),
(527,368,o),
(492,439,o),
(430,439,cs)
);
},
{
closed = 1;
nodes = (
(477,418,o),
(502,348,o),
(502,215,cs),
(502,90,o),
(480,14,o),
(431,14,cs),
(383,14,o),
(358,85,o),
(358,215,cs),
(358,351,o),
(385,418,o),
(430,418,cs)
);
}
);
width = 572;
}
);
script = "";
subCategory = Math;
unicode = 37;
}
{
category = Symbol;
color = 10;
glyphname = ampersand;
layers = (
{
layerId = "0A718E2F-231D-484E-9433-16A5230D2CE8";
shapes = (
{
closed = 1;
nodes = (
(182,723,o),
(104,652,o),
(104,553,cs),
(104,489,o),
(128,440,o),
(168,394,c),
(82,350,o),
(35,283,o),
(35,198,cs),
(35,83,o),
(127,-10,o),
(294,-10,cs),
(413,-10,o),
(455,16,o),
(509,50,c),
(557,0,l),
(804,0,l),
(648,150,l),
(697,209,o),
(744,304,o),
(765,401,c),
(567,401,l),
(557,353,o),
(539,309,o),
(516,274,c),
(419,366,l),
(495,412,o),
(548,470,o),
(548,553,cs),
(548,660,o),
(465,723,o),
(330,723,cs)
);
},
{
closed = 1;
nodes = (
(393,166,l),
(378,154,o),
(349,142,o),
(312,142,cs),
(264,142,o),
(232,171,o),
(232,212,cs),
(232,242,o),
(244,268,o),
(272,289,c)
);
},
{
closed = 1;
nodes = (
(355,598,o),
(376,585,o),
(376,553,cs),
(376,523,o),
(356,492,o),
(319,471,c),
(296,492,o),
(276,518,o),
(276,547,cs),
(276,583,o),
(300,598,o),
(327,598,cs)
);
}
);
width = 799;
},
{
layerId = "98E204A9-1C79-49C7-AB3E-40A925F56409";
shapes = (
{
closed = 1;
nodes = (
(159,723,o),
(84,653,o),
(84,553,cs),
(84,489,o),
(104,441,o),
(143,394,c),
(62,349,o),
(22,284,o),
(22,198,cs),
(22,71,o),
(91,-10,o),
(226,-10,cs),
(304,-10,o),
(359,8,o),
(410,42,c),
(440,0,l),
(648,0,l),
(529,150,l),
(576,227,o),
(605,315,o),
(619,401,c),
(448,401,l),
(440,354,o),
(431,317,o),
(419,291,c),
(352,375,l),
(418,424,o),
(460,481,o),
(460,553,cs),
(460,658,o),
(395,723,o),
(275,723,cs)
);
},
{
closed = 1;
nodes = (
(322,159,l),
(301,143,o),
(282,133,o),
(253,133,cs),
(212,133,o),
(189,171,o),
(189,208,cs),
(189,246,o),
(199,274,o),
(221,294,c)
);
},
{
closed = 1;
nodes = (
(296,605,o),
(312,590,o),
(312,560,cs),
(312,529,o),
(297,495,o),
(270,474,c),
(247,502,o),
(236,529,o),
(236,554,cs),
(236,589,o),
(253,605,o),
(274,605,cs)
);
}
);
width = 643;
},
{
layerId = "9FF96064-8718-4A86-A5C8-73C592101F67";
shapes = (
{
closed = 1;
nodes = (
(190,725,o),
(120,667,o),
(120,569,cs),
(120,496,o),
(164,444,o),
(207,396,c),
(112,342,o),
(53,288,o),
(53,186,cs),
(53,60,o),
(140,-10,o),
(278,-10,cs),
(389,-10,o),
(461,28,o),
(524,84,c),
(611,0,l),
(730,0,l),
(584,142,l),
(634,197,o),
(665,271,o),
(686,357,c),
(597,357,l),
(582,294,o),
(562,239,o),
(527,198,c),
(334,384,l),
(416,432,o),
(477,487,o),
(477,571,cs),
(477,668,o),
(411,725,o),
(304,725,cs)
);
},
{
closed = 1;
nodes = (
(468,139,l),
(426,100,o),
(366,68,o),
(281,68,cs),
(198,68,o),
(145,116,o),
(145,189,cs),
(145,261,o),
(188,298,o),
(260,341,c)
);
},
{
closed = 1;
nodes = (
(355,653,o),
(390,619,o),
(390,571,cs),
(390,517,o),
(359,481,o),
(280,436,c),
(232,485,o),
(206,522,o),
(206,570,cs),
(206,622,o),
(245,653,o),
(301,653,cs)
);
}
);
width = 732;
},
{
associatedMasterId = "9FF96064-8718-4A86-A5C8-73C592101F67";
attr = {
coordinates = (
151,
100
);
};
background = {
shapes = (
{
closed = 1;
nodes = (
(185.12,723.78,o),
(110.24,657.85,o),
(110.24,559.24,cs),
(110.24,491.73,o),
(142.04,441.56,o),
(183.21,394.78,c),
(93.7,346.88,o),
(42.02,284.95,o),
(42.02,193.32,cs),
(42.02,74.03,o),
(132.07,-10,o),
(287.76,-10,cs),
(403.64,-10,o),
(457.34,20.68,o),
(514.85,63.26,c),
(578.06,0,l),
(775.14,0,l),
(623.04,146.88,l),
(672.43,204.32,o),
(713.19,291.13,o),
(734.19,383.84,c),
(578.7,383.84,l),
(566.75,329.99,o),
(547.97,281.7,o),
(520.29,244.36,c),
(385.85,373.02,l),
(464.19,419.8,o),
(520.31,476.63,o),
(520.31,560.02,cs),
(520.31,663.12,o),
(443.94,723.78,o),
(319.86,723.78,cs)
);
},
{
closed = 1;
nodes = (
(422.25,155.47,l),
(396.72,132.94,o),
(355.63,113.14,o),
(299.91,113.14,cs),
(238.26,113.14,o),
(198.07,149.55,o),
(198.07,203.03,cs),
(198.07,249.41,o),
(222.16,279.7,o),
(267.32,309.28,c)
);
},
{
closed = 1;
nodes = (
(355,619.45,o),
(381.46,598.26,o),
(381.46,560.02,cs),
(381.46,520.66,o),
(357.17,487.71,o),
(303.79,457.35,c),
(271.04,489.27,o),
(248.7,519.56,o),
(248.7,555.97,cs),
(248.7,598.21,o),
(278.55,619.45,o),
(316.86,619.45,cs)
);
}
);
};
layerId = "dfe931cb-873f-4ef1-a1c1-e5d63c9ed990";
name = "SemiBold (intermediate)";
shapes = (
{
closed = 1;
nodes = (
(187,724,o),
(101,660,o),
(101,559,cs),
(101,501,o),
(119,455,o),
(171,395,c),
(89,348,o),
(40,294,o),
(40,193,cs),
(40,72,o),
(136,-10,o),
(299,-10,cs),
(382,-10,o),
(452,15,o),
(510,55,c),
(566,0,l),
(750,0,l),
(603,143,l),
(663,218,o),
(701,308,o),
(721,383,c),
(566,383,l),
(552,332,o),
(533,281,o),
(506,236,c),
(367,371,l),
(448,418,o),
(510,477,o),
(510,569,cs),
(510,668,o),
(425,724,o),
(310,724,cs)
);
},
{
closed = 1;
nodes = (
(420,145,l),
(389,126,o),
(352,115,o),
(309,115,cs),
(245,115,o),
(197,150,o),
(197,207,cs),
(197,248,o),
(220,278,o),
(258,306,c)
);
},
{
closed = 1;
nodes = (
(339,609,o),
(372,593,o),
(372,553,cs),
(372,513,o),
(341,485,o),
(285,454,c),
(257,486,o),
(239,516,o),
(239,549,cs),
(239,595,o),
(276,609,o),
(309,609,cs)
);
}
);
width = 750;
},
{
layerId = "36F3C8CB-53EE-4548-BFDE-2C03212BACAA";
shapes = (
{
closed = 1;
nodes = (
(130,724,o),
(82,668,o),
(82,577,cs),
(82,504,o),
(99,456,o),
(140,388,c),
(63,328,o),
(29,266,o),
(29,181,cs),
(29,72,o),
(77,-10,o),
(179,-10,cs),
(248,-10,o),
(294,20,o),
(338,73,c),
(381,0,l),
(479,0,l),
(390,134,l),
(424,191,o),
(447,274,o),
(451,340,c),
(368,340,l),
(366,287,o),
(357,242,o),
(340,207,c),
(239,377,l),
(299,433,o),
(327,493,o),
(327,574,cs),
(327,669,o),
(283,724,o),
(206,724,cs)
);
},
{
closed = 1;
nodes = (
(295,138,l),
(264,88,o),
(232,65,o),
(191,65,cs),
(143,65,o),
(112,110,o),
(112,184,cs),
(112,249,o),
(130,289,o),
(178,333,c)
);
},
{
closed = 1;
nodes = (
(235,658,o),
(252,631,o),
(252,576,cs),
(252,518,o),
(238,469,o),
(200,433,c),
(175,471,o),
(160,530,o),
(160,575,cs),
(160,629,o),
(177,658,o),
(204,658,cs)
);
}
);
width = 477;
},
{
layerId = "AB666A95-3AF9-4DE8-B258-097FFCFE8A59";
shapes = (
{
closed = 1;
nodes = (
(206,725,o),
(139,666,o),
(139,576,cs),
(139,507,o),
(176,465,o),
(246,395,c),
(129,339,o),
(63,291,o),
(63,179,cs),
(63,57,o),
(153,-10,o),
(281,-10,cs),
(400,-10,o),
(471,38,o),
(533,105,c),
(632,0,l),
(667,0,l),
(549,122,l),
(594,180,o),
(630,246,o),
(649,328,c),
(622,328,l),
(606,254,o),
(572,189,o),
(532,141,c),
(289,388,l),
(393,438,o),
(460,489,o),
(460,581,cs),
(460,670,o),
(395,725,o),
(304,725,cs)
);
},
{
closed = 1;
nodes = (
(516,122,l),
(455,56,o),
(391,15,o),
(281,15,cs),
(167,15,o),
(90,74,o),
(90,179,cs),
(90,282,o),
(151,324,o),
(264,377,c)
);
},
{
closed = 1;
nodes = (
(382,700,o),
(433,655,o),
(433,581,cs),
(433,499,o),
(370,450,o),
(269,406,c),
(203,472,o),
(166,515,o),
(166,576,cs),
(166,652,o),
(218,700,o),
(304,700,cs)
);
}
);
width = 702;
},
{
layerId = "029FEF0C-5FA4-4A3E-AC23-838A1147A554";
shapes = (
{
closed = 1;
nodes = (
(121,724,o),
(87,674,o),
(87,587,cs),
(87,516,o),
(110,458,o),
(145,389,c),
(64,329,o),
(32,262,o),
(32,173,cs),
(32,63,o),
(83,-10,o),
(165,-10,cs),
(231,-10,o),
(279,38,o),
(309,94,c),
(360,0,l),
(386,0,l),
(322,117,l),
(348,166,o),
(367,245,o),
(366,305,c),
(343,305,l),
(345,249,o),
(327,180,o),
(307,141,c),
(175,379,l),
(234,422,o),
(267,489,o),
(267,581,cs),
(267,679,o),
(230,724,o),
(177,724,cs)
);
},
{
closed = 1;
nodes = (
(295,118,l),
(264,58,o),
(221,15,o),
(165,15,cs),
(97,15,o),
(57,75,o),
(57,173,cs),
(57,248,o),
(80,311,o),
(156,367,c)
);
},
{
closed = 1;
nodes = (
(222,700,o),
(243,655,o),
(243,581,cs),
(243,510,o),
(224,443,o),
(165,402,c),
(136,455,o),
(110,517,o),
(110,587,cs),
(110,656,o),
(133,700,o),
(177,700,cs)
);
}
);
width = 385;
}
);
script = "";
subCategory = Other;
unicode = 38;
}
{
category = Punctuation;
glyphname = quotesingle;
kernLeft = quote.right;
kernRight = quote.left;
layers = (
{
layerId = "0A718E2F-231D-484E-9433-16A5230D2CE8";
shapes = (
{
closed = 1;
nodes = (
(59,714,l),
(79,456,l),
(213,456,l),
(233,714,l)
);
}
);
width = 292;
},
{
layerId = "98E204A9-1C79-49C7-AB3E-40A925F56409";
shapes = (
{
closed = 1;
nodes = (
(39,714,l),
(59,456,l),
(193,456,l),
(213,714,l)
);
}
);
width = 252;
},
{
layerId = "9FF96064-8718-4A86-A5C8-73C592101F67";
shapes = (
{
closed = 1;
nodes = (
(65,714,l),
(85,456,l),
(140,456,l),
(160,714,l)
);
}
);
width = 225;
},
{
layerId = "36F3C8CB-53EE-4548-BFDE-2C03212BACAA";
shapes = (
{
closed = 1;
nodes = (
(58,714,l),
(75,456,l),
(136,456,l),
(152,714,l)
);
}
);
width = 208;
},
{
layerId = "AB666A95-3AF9-4DE8-B258-097FFCFE8A59";
shapes = (
{
closed = 1;
nodes = (
(73,714,l),
(77,456,l),
(97,456,l),
(101,714,l)
);
}
);
width = 172;
},
{
layerId = "029FEF0C-5FA4-4A3E-AC23-838A1147A554";
shapes = (
{
closed = 1;
nodes = (
(65,714,l),
(71,456,l),
(93,456,l),
(97,714,l)
);
}
);
width = 161;
}
);
script = "";
subCategory = Other;
unicode = 39;
}
{
category = Punctuation;
glyphname = asterisk;
layers = (
{
layerId = "0A718E2F-231D-484E-9433-16A5230D2CE8";
shapes = (
{
closed = 1;
nodes = (
(195,760,l),
(214,588,l),
(44,637,l),
(22,495,l),
(175,483,l),
(74,347,l),
(207,281,l),
(267,418,l),
(337,280,l),
(464,347,l),
(363,483,l),
(516,493,l),
(498,637,l),
(324,588,l),
(343,760,l)
);
}
);
width = 537;
},
{
layerId = "98E204A9-1C79-49C7-AB3E-40A925F56409";
shapes = (
{
closed = 1;
nodes = (
(164,763,l),
(183,613,l),
(47,668,l),
(12,528,l),
(150,510,l),
(46,400,l),
(165,314,l),
(237,447,l),
(310,314,l),
(429,400,l),
(325,510,l),
(463,528,l),
(428,668,l),
(292,613,l),
(311,763,l)
);
}
);
width = 475;
},
{
layerId = "9FF96064-8718-4A86-A5C8-73C592101F67";
shapes = (
{
closed = 1;
nodes = (
(224,760,l),
(245,568,l),
(55,622,l),
(41,530,l),
(223,515,l),
(106,357,l),
(195,310,l),
(272,485,l),
(357,310,l),
(443,357,l),
(324,515,l),
(508,530,l),
(494,622,l),
(302,568,l),
(322,760,l)
);
}
);
width = 551;
},
{
layerId = "134B12F2-BF5D-48E3-8003-C7502B438C7E";
shapes = (
{
closed = 1;
nodes = (
(208,760,l),
(228,580,l),
(50,631,l),
(31,509,l),
(196,496,l),
(88,351,l),
(203,293,l),
(270,445,l),
(346,292,l),
(457,351,l),
(348,496,l),
(514,508,l),
(498,631,l),
(316,580,l),
(336,760,l)
);
}
);
width = 545;
},
{
layerId = "36F3C8CB-53EE-4548-BFDE-2C03212BACAA";
shapes = (
{
closed = 1;
nodes = (
(157,761,l),
(171,631,l),
(52,666,l),
(36,588,l),
(153,580,l),
(71,469,l),
(138,428,l),
(199,550,l),
(258,428,l),
(327,469,l),
(242,580,l),
(361,589,l),
(346,667,l),
(226,631,l),
(241,761,l)
);
}
);
width = 397;
},
{
layerId = "43B45EC1-5522-4B1A-B0C7-88628E50A583";
shapes = (
{
closed = 1;
nodes = (
(161,762,l),
(178,620,l),
(48,667,l),
(21,551,l),
(151,537,l),
(55,427,l),
(154,358,l),
(222,487,l),
(289,359,l),
(389,427,l),
(292,537,l),
(423,552,l),
(395,667,l),
(266,620,l),
(284,762,l)
);
}
);
width = 445;
},
{
layerId = "AB666A95-3AF9-4DE8-B258-097FFCFE8A59";
shapes = (
{
closed = 1;
nodes = (
(259,758,l),
(265,552,l),
(71,621,l),
(62,594,l),
(260,537,l),
(135,374,l),
(158,358,l),
(273,527,l),
(389,357,l),
(412,374,l),
(287,537,l),
(483,594,l),
(475,621,l),
(281,552,l),
(287,758,l)
);
}
);
width = 551;
},
{
layerId = "029FEF0C-5FA4-4A3E-AC23-838A1147A554";
shapes = (
{
closed = 1;
nodes = (
(161,760,l),
(164,634,l),
(52,677,l),
(45,660,l),
(158,618,l),
(73,516,l),
(89,504,l),
(171,608,l),
(250,504,l),
(265,517,l),
(184,618,l),
(293,660,l),
(287,678,l),
(178,634,l),
(182,760,l)
);
}
);
width = 339;
}
);
script = "";
subCategory = Other;
unicode = 42;
}
{
category = Symbol;
color = 10;
glyphname = plus;
layers = (
{
layerId = "0A718E2F-231D-484E-9433-16A5230D2CE8";
shapes = (
{
closed = 1;
nodes = (
(358,597,l),
(227,597,l),
(227,418,l),
(45,418,l),
(45,287,l),
(227,287,l),
(227,111,l),
(358,111,l),
(358,287,l),
(540,287,l),
(540,418,l),
(358,418,l)
);
}
);
width = 586;
},
{
layerId = "98E204A9-1C79-49C7-AB3E-40A925F56409";
shapes = (
{
closed = 1;
nodes = (
(317,597,l),
(183,597,l),
(183,418,l),
(34,418,l),
(34,287,l),
(183,287,l),
(183,111,l),
(317,111,l),
(317,287,l),
(466,287,l),
(466,418,l),
(317,418,l)
);
}
);
width = 500;
},
{
layerId = "9FF96064-8718-4A86-A5C8-73C592101F67";
shapes = (
{
closed = 1;
nodes = (
(321,595,l),
(249,595,l),
(249,388,l),
(50,388,l),
(50,317,l),
(249,317,l),
(249,111,l),
(321,111,l),
(321,317,l),
(520,317,l),
(520,388,l),
(321,388,l)
);
}
);
width = 572;
},
{
associatedMasterId = "9FF96064-8718-4A86-A5C8-73C592101F67";
attr = {
coordinates = (
151,
100
);
};
background = {
shapes = (
{
closed = 1;
nodes = (
(343.57,596.22,l),
(235.58,596.22,l),
(235.58,406.3,l),
(46.95,406.3,l),
(46.95,298.7,l),
(235.58,298.7,l),
(235.58,111,l),
(343.57,111,l),
(343.57,298.7,l),
(532.2,298.7,l),
(532.2,406.3,l),
(343.57,406.3,l)
);
}
);
};
layerId = "f15718ea-ec3a-4922-8b86-bbf4722cbcdf";
name = "SemiBold (intermediate)";
shapes = (
{
closed = 1;
nodes = (
(339,596,l),
(232,596,l),
(232,406,l),
(43,406,l),
(43,299,l),
(232,299,l),
(232,111,l),
(339,111,l),
(339,299,l),
(528,299,l),
(528,406,l),
(339,406,l)
);
}
);
width = 572;
},
{
layerId = "36F3C8CB-53EE-4548-BFDE-2C03212BACAA";
shapes = (
{
closed = 1;
nodes = (
(249,588,l),
(180,588,l),
(180,387,l),
(30,387,l),
(30,319,l),
(180,319,l),
(180,119,l),
(249,119,l),
(249,319,l),
(398,319,l),
(398,387,l),
(249,387,l)
);
}
);
width = 430;
},
{
layerId = "AB666A95-3AF9-4DE8-B258-097FFCFE8A59";
shapes = (
{
closed = 1;
nodes = (
(297,583,l),
(273,583,l),
(273,365,l),
(55,365,l),
(55,341,l),
(273,341,l),
(273,123,l),
(297,123,l),
(297,341,l),
(515,341,l),
(515,365,l),
(297,365,l)
);
}
);
width = 570;
},
{
layerId = "029FEF0C-5FA4-4A3E-AC23-838A1147A554";
shapes = (
{
closed = 1;
nodes = (
(212,583,l),
(188,583,l),
(188,363,l),
(29,363,l),
(29,339,l),
(188,339,l),
(188,123,l),
(212,123,l),
(212,339,l),
(369,339,l),
(369,363,l),
(212,363,l)
);
}
);
width = 399;
}
);
script = "";
subCategory = Math;
unicode = 43;
}
{
category = Punctuation;
glyphname = comma;
kernLeft = period.right;
kernRight = period.left;
layers = (
{
layerId = "0A718E2F-231D-484E-9433-16A5230D2CE8";
shapes = (
{
closed = 1;
nodes = (
(243,146,l),
(76,146,l),
(67,66,o),
(47,-48,o),
(28,-139,c),
(164,-139,l),
(197,-65,o),
(232,63,o),
(250,135,c)
);
}
);
width = 309;
},
{
layerId = "98E204A9-1C79-49C7-AB3E-40A925F56409";
shapes = (
{
closed = 1;
nodes = (
(225,146,l),
(67,146,l),
(63,71,o),
(45,-62,o),
(31,-139,c),
(165,-139,l),
(194,-66,o),
(215,25,o),
(230,135,c)
);
}
);
width = 273;
},
{
layerId = "9FF96064-8718-4A86-A5C8-73C592101F67";
shapes = (
{
closed = 1;
nodes = (
(185,116,l),
(91,116,l),
(81,46,o),
(60,-53,o),
(41,-129,c),
(106,-129,l),
(138,-57,o),
(174,34,o),
(192,105,c)
);
}
);
width = 268;
},
{
layerId = "36F3C8CB-53EE-4548-BFDE-2C03212BACAA";
shapes = (
{
closed = 1;
nodes = (
(167,114,l),
(81,114,l),
(74,42,o),
(57,-51,o),
(36,-132,c),
(98,-132,l),
(130,-60,o),
(154,19,o),
(174,103,c)
);
}
);
width = 226;
},
{
layerId = "AB666A95-3AF9-4DE8-B258-097FFCFE8A59";
shapes = (
{
closed = 1;
nodes = (
(122,116,l),
(94,116,l),
(83,40,o),
(67,-32,o),
(38,-129,c),
(60,-129,l),
(88,-60,o),
(110,30,o),
(125,104,c)
);
}
);
width = 183;
},
{
layerId = "029FEF0C-5FA4-4A3E-AC23-838A1147A554";
shapes = (
{
closed = 1;
nodes = (
(116,101,l),
(89,101,l),
(81,29,o),
(66,-38,o),
(38,-129,c),
(60,-129,l),
(89,-58,o),
(109,26,o),
(120,88,c)
);
}
);
width = 176;
}
);
script = "";
subCategory = Other;
unicode = 44;
}
{
category = Punctuation;
glyphname = period;
kernLeft = period.right;
kernRight = period.left;
layers = (
{
layerId = "0A718E2F-231D-484E-9433-16A5230D2CE8";
shapes = (
{
closed = 1;
nodes = (
(42,15,o),
(89,-12,o),
(146,-12,cs),
(200,-12,o),
(246,15,o),
(246,81,cs),
(246,150,o),
(200,175,o),
(146,175,cs),
(89,175,o),
(42,150,o),
(42,81,cs)
);
}
);
width = 289;
},
{
layerId = "98E204A9-1C79-49C7-AB3E-40A925F56409";
shapes = (
{
closed = 1;
nodes = (
(45,22,o),
(81,-12,o),
(138,-12,cs),
(195,-12,o),
(228,22,o),
(228,81,cs),
(228,141,o),
(196,175,o),
(138,175,cs),
(78,175,o),
(45,141,o),
(45,81,cs)
);
}
);
width = 273;
},
{
layerId = "9FF96064-8718-4A86-A5C8-73C592101F67";
shapes = (
{
closed = 1;
nodes = (
(72,6,o),
(99,-14,o),
(133,-14,cs),
(167,-14,o),
(196,6,o),
(196,54,cs),
(196,103,o),
(167,121,o),
(133,121,cs),
(99,121,o),
(72,103,o),
(72,54,cs)
);
}
);
width = 268;
},
{
layerId = "134B12F2-BF5D-48E3-8003-C7502B438C7E";
shapes = (
{
closed = 1;
nodes = (
(57,11,o),
(95,-13,o),
(143,-13,cs),
(189,-13,o),
(228,11,o),
(228,70,cs),
(228,131,o),
(189,153,o),
(143,153,cs),
(95,153,o),
(57,131,o),
(57,70,cs)
);
}
);
width = 285;
},
{
layerId = "36F3C8CB-53EE-4548-BFDE-2C03212BACAA";
shapes = (
{
closed = 1;
nodes = (
(59,13,o),
(79,-9,o),
(113,-9,cs),
(145,-9,o),
(167,11,o),
(167,55,cs),
(167,100,o),
(146,119,o),
(113,119,cs),
(78,119,o),
(59,97,o),
(59,55,cs)
);
}
);
width = 226;
},
{
layerId = "43B45EC1-5522-4B1A-B0C7-88628E50A583";
shapes = (
{
closed = 1;
nodes = (
(51,18,o),
(81,-11,o),
(129,-11,cs),
(176,-11,o),
(205,18,o),
(205,71,cs),
(205,125,o),
(177,153,o),
(129,153,cs),
(78,153,o),
(51,124,o),
(51,71,cs)
);
}
);
width = 255;
},
{
layerId = "AB666A95-3AF9-4DE8-B258-097FFCFE8A59";
shapes = (
{
closed = 1;
nodes = (
(85,6,o),
(90,-8,o),
(110,-8,cs),
(134,-8,o),
(137,6,o),
(137,23,cs),
(137,39,o),
(134,54,o),
(110,54,cs),
(90,54,o),
(85,39,o),
(85,23,cs)
);
}
);
width = 220;
},
{
layerId = "029FEF0C-5FA4-4A3E-AC23-838A1147A554";
shapes = (
{
closed = 1;
nodes = (
(65,9,o),
(70,-6,o),
(90,-6,cs),
(108,-6,o),
(116,7,o),
(116,30,cs),
(116,53,o),
(109,65,o),
(90,65,cs),
(70,65,o),
(65,49,o),
(65,30,cs)
);
}
);
width = 180;
}
);
script = "";
subCategory = Other;
unicode = 46;
}
{
category = Punctuation;
glyphname = slash;
layers = (
{
layerId = "0A718E2F-231D-484E-9433-16A5230D2CE8";
shapes = (
{
closed = 1;
nodes = (
(271,724,l),
(5,-10,l),
(174,-10,l),
(440,724,l)
);
}
);
width = 442;
},
{
layerId = "98E204A9-1C79-49C7-AB3E-40A925F56409";
shapes = (
{
closed = 1;
nodes = (
(282,724,l),
(3,-10,l),
(144,-10,l),
(423,724,l)
);
}
);
width = 425;
},
{
layerId = "9FF96064-8718-4A86-A5C8-73C592101F67";
shapes = (
{
closed = 1;
nodes = (
(276,714,l),
(10,0,l),
(96,0,l),
(362,714,l)
);
}
);
width = 372;
},
{
layerId = "134B12F2-BF5D-48E3-8003-C7502B438C7E";
shapes = (
{
closed = 1;
nodes = (
(273,714,l),
(7,0,l),
(142,0,l),
(408,714,l)
);
}
);
width = 413;
},
{
layerId = "36F3C8CB-53EE-4548-BFDE-2C03212BACAA";
shapes = (
{
closed = 1;
nodes = (
(282,717,l),
(19,-3,l),
(96,-3,l),
(358,717,l)
);
}
);
width = 371;
},
{
layerId = "43B45EC1-5522-4B1A-B0C7-88628E50A583";
shapes = (
{
closed = 1;
nodes = (
(282,721,l),
(9,-7,l),
(125,-7,l),
(397,721,l)
);
}
);
width = 404;
},
{
layerId = "AB666A95-3AF9-4DE8-B258-097FFCFE8A59";
shapes = (
{
closed = 1;
nodes = (
(281,714,l),
(13,0,l),
(41,0,l),
(309,714,l)
);
}
);
width = 322;
},
{
layerId = "029FEF0C-5FA4-4A3E-AC23-838A1147A554";
shapes = (
{
closed = 1;
nodes = (
(284,714,l),
(25,0,l),
(53,0,l),
(310,714,l)
);
}
);
width = 328;
}
);
script = "";
subCategory = Other;
unicode = 47;
}
{
category = Number;
color = 10;
glyphname = zero;
layers = (
{
layerId = "0A718E2F-231D-484E-9433-16A5230D2CE8";
shapes = (
{
closed = 1;
nodes = (
(551,588,o),
(471,724,o),
(293,724,cs),
(102,724,o),
(35,587,o),
(35,356,cs),
(35,127,o),
(114,-10,o),
(293,-10,cs),
(484,-10,o),
(551,127,o),
(551,356,cs)
);
},
{
closed = 1;
nodes = (
(227,497,o),
(239,570,o),
(293,570,cs),
(346,570,o),
(359,497,o),
(359,356,cs),
(359,215,o),
(346,144,o),
(293,144,cs),
(239,144,o),
(227,216,o),
(227,356,cs)
);
}
);
width = 586;
},
{
layerId = "98E204A9-1C79-49C7-AB3E-40A925F56409";
shapes = (
{
closed = 1;
nodes = (
(460,600,o),
(388,724,o),
(247,724,cs),
(103,724,o),
(35,610,o),
(35,356,cs),
(35,114,o),
(106,-10,o),
(247,-10,cs),
(417,-10,o),
(460,150,o),
(460,356,cs)
);
},
{
closed = 1;
nodes = (
(202,504,o),
(211,577,o),
(247,577,cs),
(286,577,o),
(293,504,o),
(293,356,cs),
(293,203,o),
(286,137,o),
(247,137,cs),
(209,137,o),
(202,203,o),
(202,356,cs)
);
}
);
width = 495;
},
{
layerId = "9FF96064-8718-4A86-A5C8-73C592101F67";
shapes = (
{
closed = 1;
nodes = (
(523,590,o),
(445,725,o),
(285,725,cs),
(114,725,o),
(49,589,o),
(49,358,cs),
(49,127,o),
(124,-10,o),
(285,-10,cs),
(456,-10,o),
(523,127,o),
(523,358,cs)
);
},
{
closed = 1;
nodes = (
(137,553,o),
(177,650,o),
(285,650,cs),
(392,650,o),
(434,553,o),
(434,358,cs),
(434,161,o),
(392,65,o),
(285,65,cs),
(177,65,o),
(137,162,o),
(137,358,cs)
);
}
);
width = 572;
},
{
associatedMasterId = "9FF96064-8718-4A86-A5C8-73C592101F67";
attr = {
coordinates = (
151,
100
);
};
background = {
shapes = (
{
closed = 1;
nodes = (
(540.08,588.78,o),
(460.86,724.39,o),
(289.88,724.39,cs),
(106.68,724.39,o),
(40.46,587.78,o),
(40.46,356.78,cs),
(40.46,127,o),
(117.9,-10,o),
(289.88,-10,cs),
(473.08,-10,o),
(540.08,127,o),
(540.08,356.78,cs)
);
},
{
closed = 1;
nodes = (
(191.9,518.84,o),
(214.82,601.2,o),
(289.88,601.2,cs),
(363.94,601.2,o),
(388.25,518.84,o),
(388.25,356.78,cs),
(388.25,193.94,o),
(363.94,113.19,o),
(289.88,113.19,cs),
(214.82,113.19,o),
(191.9,194.94,o),
(191.9,356.78,cs)
);
}
);
};
layerId = "aea8dc35-884e-4057-b0c5-457c5ff18b21";
name = "SemiBold (intermediate)";
shapes = (
{
closed = 1;
nodes = (
(535,589,o),
(456,725,o),
(285,725,cs),
(102,725,o),
(36,588,o),
(36,357,cs),
(36,127,o),
(113,-10,o),
(285,-10,cs),
(468,-10,o),
(535,127,o),
(535,357,cs)
);
},
{
closed = 1;
nodes = (
(186,520,o),
(209,603,o),
(285,603,cs),
(360,603,o),
(385,520,o),
(385,357,cs),
(385,193,o),
(360,112,o),
(285,112,cs),
(209,112,o),
(186,194,o),
(186,357,cs)
);
}
);
width = 572;
},
{
layerId = "36F3C8CB-53EE-4548-BFDE-2C03212BACAA";
shapes = (
{
closed = 1;
nodes = (
(387,603,o),
(331,724,o),
(214,724,cs),
(98,724,o),
(41,604,o),
(41,357,cs),
(41,71,o),
(106,-10,o),
(214,-10,cs),
(337,-10,o),
(387,126,o),
(387,357,cs)
);
},
{
closed = 1;
nodes = (
(126,553,o),
(151,648,o),
(214,648,cs),
(276,648,o),
(303,551,o),
(303,357,cs),
(303,162,o),
(276,66,o),
(214,66,cs),
(151,66,o),
(126,161,o),
(126,357,cs)
);
}
);
width = 429;
},
{
layerId = "AB666A95-3AF9-4DE8-B258-097FFCFE8A59";
shapes = (
{
closed = 1;
nodes = (
(507,574,o),
(456,725,o),
(286,725,cs),
(121,725,o),
(62,568,o),
(62,360,cs),
(62,109,o),
(144,-10,o),
(285,-10,cs),
(433,-10,o),
(507,115,o),
(507,360,cs)
);
},
{
closed = 1;
nodes = (
(89,557,o),
(136,700,o),
(286,700,cs),
(440,700,o),
(480,564,o),
(480,360,cs),
(480,127,o),
(422,15,o),
(285,15,cs),
(155,15,o),
(89,125,o),
(89,360,cs)
);
}
);
width = 570;
},
{
layerId = "029FEF0C-5FA4-4A3E-AC23-838A1147A554";
shapes = (
{
closed = 1;
nodes = (
(347,570,o),
(312,724,o),
(201,724,cs),
(89,724,o),
(47,573,o),
(47,355,cs),
(47,139,o),
(90,-6,o),
(201,-6,cs),
(312,-6,o),
(347,142,o),
(347,358,cs)
);
},
{
closed = 1;
nodes = (
(74,559,o),
(109,699,o),
(201,699,cs),
(291,699,o),
(320,554,o),
(320,357,cs),
(320,160,o),
(292,19,o),
(202,19,cs),
(111,19,o),
(74,157,o),
(74,358,cs)
);
}
);
width = 394;
}
);
script = "";
subCategory = "Decimal Digit";
unicode = 48;
}
{
category = Number;
glyphname = one;
layers = (
{
layerId = "0A718E2F-231D-484E-9433-16A5230D2CE8";
shapes = (
{
closed = 1;
nodes = (
(460,714,l),
(286,714,l),
(41,514,l),
(141,391,l),
(222,458,ls),
(236,470,o),
(250,484,o),
(267,504,c),
(264,453,o),
(264,372,o),
(264,353,cs),
(264,0,l),
(460,0,l)
);
}
);
width = 586;
},
{
layerId = "98E204A9-1C79-49C7-AB3E-40A925F56409";
shapes = (
{
closed = 1;
nodes = (
(400,714,l),
(250,714,l),
(38,487,l),
(139,390,l),
(201,457,l),
(215,473,o),
(226,488,o),
(235,502,c),
(234,464,o),
(233,422,o),
(233,376,cs),
(233,0,l),
(400,0,l)
);
}
);
width = 495;
},
{
layerId = "9FF96064-8718-4A86-A5C8-73C592101F67";
shapes = (
{
closed = 1;
nodes = (
(355,714,l),
(282,714,l),
(89,564,l),
(135,505,l),
(211,567,ls),
(237,589,o),
(252,600,o),
(273,622,c),
(270,584,o),
(269,556,o),
(269,499,cs),
(269,0,l),
(355,0,l)
);
}
);
width = 572;
},
{
layerId = "36F3C8CB-53EE-4548-BFDE-2C03212BACAA";
shapes = (
{
closed = 1;
nodes = (
(294,714,l),
(222,714,l),
(62,557,l),
(109,506,l),
(171,566,l),
(193,588,o),
(207,604,o),
(215,615,c),
(213,570,o),
(211,524,o),
(211,481,cs),
(211,0,l),
(294,0,l)
);
}
);
width = 429;
},
{
layerId = "AB666A95-3AF9-4DE8-B258-097FFCFE8A59";
shapes = (
{
closed = 1;
nodes = (
(320,714,l),
(297,714,l),
(102,572,l),
(118,551,l),
(241,642,ls),
(266,661,o),
(279,671,o),
(295,685,c),
(294,658,o),
(294,620,o),
(294,563,cs),
(294,0,l),
(320,0,l)
);
}
);
width = 570;
},
{
layerId = "029FEF0C-5FA4-4A3E-AC23-838A1147A554";
shapes = (
{
closed = 1;
nodes = (
(239,714,l),
(217,714,l),
(77,588,l),
(94,569,l),
(173,640,l),
(189,654,o),
(200,664,o),
(213,681,c),
(212,637,o),
(212,608,o),
(212,566,cs),
(212,0,l),
(239,0,l)
);
}
);
width = 394;
}
);
script = "";
subCategory = "Decimal Digit";
unicode = 49;
}
{
category = Number;
color = 10;
glyphname = two;
layers = (
{
layerId = "0A718E2F-231D-484E-9433-16A5230D2CE8";
shapes = (
{
closed = 1;
nodes = (
(548,159,l),
(278,159,l),
(278,164,l),
(330,211,ls),
(466,334,o),
(534,405,o),
(534,529,cs),
(534,641,o),
(441,724,o),
(296,724,cs),
(154,724,o),
(86,667,o),
(22,610,c),
(128,486,l),
(186,536,o),
(229,562,o),
(274,562,cs),
(311,562,o),
(343,544,o),
(343,502,cs),
(343,450,o),
(312,416,o),
(204,303,cs),
(30,127,l),
(30,0,l),
(548,0,l)
);
}
);
width = 586;
},
{
layerId = "98E204A9-1C79-49C7-AB3E-40A925F56409";
shapes = (
{
closed = 1;
nodes = (
(442,146,l),
(226,146,l),
(226,151,l),
(308,250,ls),
(409,371,o),
(432,441,o),
(432,524,cs),
(432,645,o),
(346,724,o),
(229,724,cs),
(146,724,o),
(84,694,o),
(20,610,c),
(101,501,l),
(145,560,o),
(175,578,o),
(209,578,cs),
(247,578,o),
(265,553,o),
(265,513,cs),
(265,465,o),
(251,421,o),
(161,300,cs),
(26,119,l),
(26,0,l),
(442,0,l)
);
}
);
width = 495;
},
{
layerId = "9FF96064-8718-4A86-A5C8-73C592101F67";
shapes = (
{
closed = 1;
nodes = (
(520,80,l),
(159,80,l),
(159,84,l),
(308,231,ls),
(418,338,o),
(491,422,o),
(491,534,cs),
(491,652,o),
(408,724,o),
(275,724,cs),
(184,724,o),
(112,687,o),
(56,640,c),
(103,581,l),
(158,624,o),
(205,649,o),
(275,649,cs),
(350,649,o),
(401,607,o),
(401,529,cs),
(401,432,o),
(342,370,o),
(235,262,cs),
(48,73,l),
(48,0,l),
(520,0,l)
);
}
);
width = 572;
},
{
associatedMasterId = "9FF96064-8718-4A86-A5C8-73C592101F67";
attr = {
coordinates = (
151,
100
);
};
background = {
shapes = (
{
closed = 1;
nodes = (
(537.08,128.19,l),
(231.59,128.19,l),
(231.59,132.8,l),
(321.42,218.8,ls),
(447.28,335.56,o),
(517.23,411.63,o),
(517.23,530.95,cs),
(517.23,645.29,o),
(428.13,724,o),
(287.81,724,cs),
(165.7,724,o),
(96.14,674.8,o),
(35.26,621.7,c),
(118.25,523.05,l),
(175.08,570.32,o),
(219.64,595.93,o),
(274.39,595.93,cs),
(326.21,595.93,o),
(365.62,568.57,o),
(365.62,512.53,cs),
(365.62,442.98,o),
(323.7,398.06,o),
(216.09,287.01,cs),
(37.02,105.94,l),
(37.02,0,l),
(537.08,0,l)
);
}
);
};
layerId = "88ae3981-807b-4b96-8c43-553e8f56fa75";
name = "SemiBold (intermediate)";
shapes = (
{
closed = 1;
nodes = (
(539,127,l),
(228,127,l),
(228,134,l),
(320,220,ls),
(446,336,o),
(519,412,o),
(519,531,cs),
(519,641,o),
(433,724,o),
(293,724,cs),
(165,724,o),
(99,675,o),
(38,622,c),
(120,525,l),
(177,572,o),
(227,598,o),
(282,598,cs),
(335,598,o),
(369,570,o),
(369,513,cs),
(369,443,o),
(327,397,o),
(219,286,cs),
(40,105,l),
(40,0,l),
(539,0,l)
);
}
);
width = 572;
},
{
layerId = "36F3C8CB-53EE-4548-BFDE-2C03212BACAA";
shapes = (
{
closed = 1;
nodes = (
(382,75,l),
(131,75,l),
(131,79,l),
(248,244,l),
(330,357,o),
(368,431,o),
(368,545,cs),
(368,651,o),
(304,724,o),
(197,724,cs),
(134,724,o),
(89,705,o),
(38,657,c),
(81,599,l),
(117,635,o),
(148,649,o),
(190,649,cs),
(251,649,o),
(284,606,o),
(284,542,cs),
(284,450,o),
(259,393,o),
(174,269,cs),
(33,62,l),
(33,0,l),
(382,0,l)
);
}
);
width = 429;
},
{
layerId = "AB666A95-3AF9-4DE8-B258-097FFCFE8A59";
shapes = (
{
closed = 1;
nodes = (
(491,25,l),
(95,25,l),
(95,26,l),
(303,246,ls),
(400,348,o),
(458,419,o),
(458,539,cs),
(458,649,o),
(382,724,o),
(268,724,cs),
(211,724,o),
(141,705,o),
(80,655,c),
(95,635,l),
(148,678,o),
(211,699,o),
(268,699,cs),
(370,699,o),
(431,639,o),
(431,539,cs),
(431,428,o),
(380,362,o),
(283,260,cs),
(59,23,l),
(59,0,l),
(491,0,l)
);
}
);
width = 570;
},
{
layerId = "029FEF0C-5FA4-4A3E-AC23-838A1147A554";
shapes = (
{
closed = 1;
nodes = (
(347,25,l),
(75,25,l),
(75,27,l),
(207,220,ls),
(276,320,o),
(330,416,o),
(330,539,cs),
(330,661,o),
(274,724,o),
(183,724,cs),
(133,724,o),
(87,705,o),
(55,681,c),
(70,660,l),
(99,682,o),
(140,699,o),
(183,699,cs),
(254,699,o),
(303,652,o),
(303,538,cs),
(303,426,o),
(255,334,o),
(187,234,cs),
(40,19,l),
(40,0,l),
(347,0,l)
);
}
);
width = 394;
}
);
script = "";
subCategory = "Decimal Digit";
unicode = 50;
}
{
category = Number;
color = 10;
glyphname = three;
layers = (
{
layerId = "0A718E2F-231D-484E-9433-16A5230D2CE8";
shapes = (
{
closed = 1;
nodes = (
(524,662,o),
(434,724,o),
(287,724,cs),
(163,724,o),
(94,692,o),
(35,652,c),
(115,523,l),
(136,536,o),
(192,569,o),
(257,569,cs),
(305,569,o),
(337,551,o),
(337,513,cs),
(337,469,o),
(299,438,o),
(190,438,cs),
(145,438,l),
(145,293,l),
(189,293,ls),
(312,293,o),
(341,264,o),
(341,216,cs),
(341,171,o),
(313,142,o),
(219,142,cs),
(165,142,o),
(96,157,o),
(34,189,c),
(34,29,l),
(95,5,o),
(155,-10,o),
(247,-10,cs),
(454,-10,o),
(545,87,o),
(545,204,cs),
(545,305,o),
(480,359,o),
(366,373,c),
(366,376,l),
(451,399,o),
(524,457,o),
(524,559,cs)
);
}
);
width = 586;
},
{
layerId = "98E204A9-1C79-49C7-AB3E-40A925F56409";
shapes = (
{
closed = 1;
nodes = (
(437,663,o),
(361,724,o),
(239,724,cs),
(154,724,o),
(94,706,o),
(31,657,c),
(92,535,l),
(132,565,o),
(169,580,o),
(203,580,cs),
(250,580,o),
(273,561,o),
(273,520,cs),
(273,463,o),
(233,435,o),
(152,435,cs),
(115,435,l),
(115,296,l),
(151,296,ls),
(241,296,o),
(276,273,o),
(276,211,cs),
(276,158,o),
(246,134,o),
(179,134,cs),
(135,134,o),
(81,149,o),
(30,181,c),
(30,27,l),
(95,-2,o),
(141,-10,o),
(206,-10,cs),
(359,-10,o),
(453,71,o),
(453,204,cs),
(453,297,o),
(407,353,o),
(314,373,c),
(314,376,l),
(393,405,o),
(437,466,o),
(437,538,cs)
);
}
);
width = 495;
},
{
layerId = "9FF96064-8718-4A86-A5C8-73C592101F67";
shapes = (
{
closed = 1;
nodes = (
(493,649,o),
(421,724,o),
(272,724,cs),
(176,724,o),
(100,690,o),
(49,650,c),
(93,590,l),
(146,625,o),
(196,650,o),
(273,650,cs),
(353,650,o),
(403,610,o),
(403,541,cs),
(403,460,o),
(341,406,o),
(224,406,cs),
(154,406,l),
(154,331,l),
(223,331,ls),
(349,331,o),
(423,294,o),
(423,205,cs),
(423,117,o),
(370,64,o),
(242,64,cs),
(178,64,o),
(105,81,o),
(45,111,c),
(45,29,l),
(104,0,o),
(166,-10,o),
(241,-10,cs),
(430,-10,o),
(515,78,o),
(515,203,cs),
(515,297,o),
(459,358,o),
(345,372,c),
(345,376,l),
(435,394,o),
(493,451,o),
(493,547,cs)
);
}
);
width = 572;
},
{
associatedMasterId = "9FF96064-8718-4A86-A5C8-73C592101F67";
attr = {
coordinates = (
151,
100
);
};
background = {
shapes = (
{
closed = 1;
nodes = (
(511.91,656.93,o),
(428.93,724,o),
(281.15,724,cs),
(168.07,724,o),
(96.34,691.22,o),
(40.46,651.22,c),
(106.42,549.13,l),
(139.9,570.71,o),
(193.56,600.59,o),
(263.24,600.59,cs),
(323.72,600.59,o),
(362.74,574.01,o),
(362.74,523.92,cs),
(362.74,465.49,o),
(315.38,425.52,o),
(203.26,425.52,cs),
(148.51,425.52,l),
(148.51,307.82,l),
(202.26,307.82,ls),
(326.43,307.82,o),
(372.98,275.7,o),
(372.98,211.71,cs),
(372.98,149.94,o),
(335.23,111.58,o),
(227.97,111.58,cs),
(170.07,111.58,o),
(99.51,127.36,o),
(38.29,158.58,c),
(38.29,29,l),
(98.51,3.05,o),
(159.29,-10,o),
(244.66,-10,cs),
(444.64,-10,o),
(533.3,83.49,o),
(533.3,203.61,cs),
(533.3,301.88,o),
(471.81,358.61,o),
(357.81,372.61,c),
(357.81,376,l),
(444.76,397.05,o),
(511.91,454.66,o),
(511.91,554.32,cs)
);
}
);
};
layerId = "62c756dd-c3e0-4729-9279-fe94b714b6a5";
name = "SemiBold (intermediate)";
shapes = (
{
closed = 1;
nodes = (
(511,662,o),
(419,724,o),
(272,724,cs),
(168,724,o),
(95,694,o),
(39,654,c),
(109,550,l),
(143,572,o),
(193,602,o),
(261,602,cs),
(334,602,o),
(363,572,o),
(363,521,cs),
(363,465,o),
(335,425,o),
(203,425,cs),
(148,425,l),
(148,309,l),
(202,309,ls),
(336,309,o),
(374,276,o),
(374,217,cs),
(374,149,o),
(336,110,o),
(228,110,cs),
(170,110,o),
(99,126,o),
(38,157,c),
(38,29,l),
(98,3,o),
(165,-10,o),
(244,-10,cs),
(444,-10,o),
(532,83,o),
(532,208,cs),
(532,302,o),
(471,359,o),
(357,373,c),
(357,376,l),
(444,397,o),
(511,455,o),
(511,554,cs)
);
}
);
width = 572;
},
{
layerId = "36F3C8CB-53EE-4548-BFDE-2C03212BACAA";
shapes = (
{
closed = 1;
nodes = (
(369,657,o),
(306,724,o),
(202,724,cs),
(137,724,o),
(87,706,o),
(35,658,c),
(75,600,l),
(113,634,o),
(144,651,o),
(191,651,cs),
(252,651,o),
(286,611,o),
(286,541,cs),
(286,460,o),
(236,405,o),
(152,405,cs),
(113,405,l),
(113,332,l),
(149,332,ls),
(247,332,o),
(294,285,o),
(294,200,cs),
(294,119,o),
(257,63,o),
(177,63,cs),
(129,63,o),
(81,76,o),
(38,102,c),
(38,19,l),
(81,-1,o),
(126,-10,o),
(185,-10,cs),
(309,-10,o),
(381,73,o),
(381,196,cs),
(381,290,o),
(335,353,o),
(251,371,c),
(251,375,l),
(329,403,o),
(369,466,o),
(369,550,cs)
);
}
);
width = 429;
},
{
layerId = "AB666A95-3AF9-4DE8-B258-097FFCFE8A59";
shapes = (
{
closed = 1;
nodes = (
(470,662,o),
(390,724,o),
(273,724,cs),
(185,724,o),
(114,695,o),
(55,650,c),
(69,629,l),
(134,676,o),
(198,699,o),
(273,699,cs),
(375,699,o),
(443,651,o),
(443,551,cs),
(443,435,o),
(345,384,o),
(239,384,cs),
(156,384,l),
(156,359,l),
(239,359,ls),
(372,359,o),
(465,314,o),
(465,194,cs),
(465,85,o),
(391,15,o),
(247,15,cs),
(173,15,o),
(97,35,o),
(47,60,c),
(47,32,l),
(98,8,o),
(168,-10,o),
(247,-10,cs),
(407,-10,o),
(492,75,o),
(492,194,cs),
(492,300,o),
(429,358,o),
(318,373,c),
(318,375,l),
(405,390,o),
(470,457,o),
(470,551,cs)
);
}
);
width = 570;
},
{
layerId = "029FEF0C-5FA4-4A3E-AC23-838A1147A554";
shapes = (
{
closed = 1;
nodes = (
(335,660,o),
(271,724,o),
(176,724,cs),
(115,724,o),
(71,698,o),
(37,666,c),
(53,647,l),
(86,677,o),
(125,699,o),
(176,699,cs),
(255,699,o),
(308,646,o),
(308,554,cs),
(308,447,o),
(239,383,o),
(157,383,cs),
(113,383,l),
(113,358,l),
(155,358,ls),
(240,358,o),
(317,313,o),
(317,184,cs),
(317,78,o),
(264,15,o),
(169,15,cs),
(122,15,o),
(74,31,o),
(41,47,c),
(41,19,l),
(79,1,o),
(124,-10,o),
(169,-10,cs),
(288,-10,o),
(344,69,o),
(344,183,cs),
(344,292,o),
(293,351,o),
(219,370,c),
(219,373,l),
(276,394,o),
(335,453,o),
(335,554,cs)
);
}
);
width = 394;
}
);
script = "";
subCategory = "Decimal Digit";
unicode = 51;
}
{
category = Number;
glyphname = four;
layers = (
{
layerId = "0A718E2F-231D-484E-9433-16A5230D2CE8";
shapes = (
{
closed = 1;
nodes = (
(571,282,l),
(492,282,l),
(492,714,l),
(314,714,l),
(17,280,l),
(17,138,l),
(302,138,l),
(302,0,l),
(492,0,l),
(492,138,l),
(571,138,l)
);
},
{
closed = 1;
nodes = (
(302,282,l),
(184,282,l),
(263,400,ls),
(280,426,o),
(288,441,o),
(301,470,c),
(306,470,l),
(305,468,o),
(302,395,o),
(302,365,cs)
);
}
);
width = 586;
},
{
layerId = "98E204A9-1C79-49C7-AB3E-40A925F56409";
shapes = (
{
closed = 1;
nodes = (
(482,275,l),
(412,275,l),
(412,714,l),
(252,714,l),
(16,272,l),
(16,138,l),
(248,138,l),
(248,0,l),
(412,0,l),
(412,138,l),
(482,138,l)
);
},
{
closed = 1;
nodes = (
(248,275,l),
(149,275,l),
(218,406,ls),
(229,426,o),
(239,449,o),
(247,477,c),
(251,477,l),
(250,474,o),
(248,384,o),
(248,372,cs)
);
}
);
width = 495;
},
{
layerId = "9FF96064-8718-4A86-A5C8-73C592101F67";
shapes = (
{
closed = 1;
nodes = (
(552,241,l),
(448,241,l),
(448,718,l),
(357,718,l),
(21,237,l),
(21,162,l),
(363,162,l),
(363,0,l),
(448,0,l),
(448,162,l),
(552,162,l)
);
},
{
closed = 1;
nodes = (
(363,241,l),
(107,241,l),
(321,546,ls),
(335,566,o),
(353,599,o),
(364,624,c),
(368,624,l),
(366,580,o),
(363,535,o),
(363,466,cs)
);
}
);
width = 572;
},
{
layerId = "36F3C8CB-53EE-4548-BFDE-2C03212BACAA";
shapes = (
{
closed = 1;
nodes = (
(415,226,l),
(341,226,l),
(341,720,l),
(252,720,l),
(17,223,l),
(17,155,l),
(259,155,l),
(259,0,l),
(341,0,l),
(341,155,l),
(415,155,l)
);
},
{
closed = 1;
nodes = (
(259,226,l),
(91,226,l),
(225,525,ls),
(237,552,o),
(248,580,o),
(259,611,c),
(262,611,l),
(261,583,o),
(259,529,o),
(259,498,cs)
);
}
);
width = 429;
},
{
layerId = "AB666A95-3AF9-4DE8-B258-097FFCFE8A59";
shapes = (
{
closed = 1;
nodes = (
(560,219,l),
(426,219,l),
(426,718,l),
(398,718,l),
(25,212,l),
(25,194,l),
(400,194,l),
(400,0,l),
(426,0,l),
(426,194,l),
(560,194,l)
);
},
{
closed = 1;
nodes = (
(400,219,l),
(60,219,l),
(335,592,ls),
(365,633,o),
(376,650,o),
(399,686,c),
(401,686,l),
(400,635,o),
(400,610,o),
(400,524,cs)
);
}
);
width = 570;
},
{
layerId = "029FEF0C-5FA4-4A3E-AC23-838A1147A554";
shapes = (
{
closed = 1;
nodes = (
(384,201,l),
(294,201,l),
(294,718,l),
(266,718,l),
(14,201,l),
(14,176,l),
(268,176,l),
(268,0,l),
(294,0,l),
(294,176,l),
(384,176,l)
);
},
{
closed = 1;
nodes = (
(268,201,l),
(42,201,l),
(224,576,ls),
(239,607,o),
(256,642,o),
(268,677,c),
(269,677,l),
(268,655,o),
(268,642,o),
(268,617,cs)
);
}
);
width = 394;
}
);
script = "";
subCategory = "Decimal Digit";
unicode = 52;
}
{
category = Number;
color = 10;
glyphname = five;
layers = (
{
layerId = "0A718E2F-231D-484E-9433-16A5230D2CE8";
shapes = (
{
closed = 1;
nodes = (
(277,468,o),
(261,463,o),
(240,459,c),
(249,553,l),
(492,553,l),
(492,714,l),
(85,714,l),
(58,337,l),
(129,302,l),
(155,310,o),
(191,319,o),
(227,319,cs),
(306,319,o),
(345,286,o),
(345,232,cs),
(345,173,o),
(305,142,o),
(234,142,cs),
(175,142,o),
(96,164,o),
(46,187,c),
(46,29,l),
(99,3,o),
(167,-10,o),
(250,-10,cs),
(445,-10,o),
(540,78,o),
(540,238,cs),
(540,385,o),
(443,468,o),
(324,468,cs)
);
}
);
width = 586;
},
{
layerId = "98E204A9-1C79-49C7-AB3E-40A925F56409";
shapes = (
{
closed = 1;
nodes = (
(264,468,o),
(242,467,o),
(214,459,c),
(221,567,l),
(416,567,l),
(416,714,l),
(80,714,l),
(59,345,l),
(112,310,l),
(140,321,o),
(165,327,o),
(189,327,cs),
(251,327,o),
(282,292,o),
(282,232,cs),
(282,167,o),
(251,134,o),
(196,134,cs),
(150,134,o),
(95,153,o),
(50,179,c),
(50,27,l),
(94,2,o),
(146,-10,o),
(207,-10,cs),
(373,-10,o),
(452,78,o),
(452,238,cs),
(452,374,o),
(379,468,o),
(279,468,cs)
);
}
);
width = 495;
},
{
layerId = "9FF96064-8718-4A86-A5C8-73C592101F67";
shapes = (
{
closed = 1;
nodes = (
(228,438,o),
(188,431,o),
(165,427,c),
(182,634,l),
(465,634,l),
(465,714,l),
(107,714,l),
(80,377,l),
(124,349,l),
(153,356,o),
(208,364,o),
(246,364,cs),
(370,364,o),
(425,312,o),
(425,219,cs),
(425,114,o),
(354,65,o),
(249,65,cs),
(186,65,o),
(111,83,o),
(63,112,c),
(63,29,l),
(107,3,o),
(174,-10,o),
(248,-10,cs),
(416,-10,o),
(515,80,o),
(515,228,cs),
(515,361,o),
(421,438,o),
(275,438,cs)
);
}
);
width = 572;
},
{
associatedMasterId = "9FF96064-8718-4A86-A5C8-73C592101F67";
attr = {
coordinates = (
151,
100
);
};
background = {
shapes = (
{
closed = 1;
nodes = (
(257.89,456.3,o),
(232.53,450.52,o),
(210.75,446.52,c),
(222.87,584.59,l),
(481.47,584.59,l),
(481.47,714,l),
(93.58,714,l),
(66.58,352.6,l),
(127.05,320.33,l),
(154.22,327.94,o),
(197.63,336.55,o),
(234.41,336.55,cs),
(330.96,336.55,o),
(376.2,296.14,o),
(376.2,226.93,cs),
(376.2,149.99,o),
(324.11,111.97,o),
(239.85,111.97,cs),
(179.29,111.97,o),
(101.85,132.41,o),
(52.63,157.75,c),
(52.63,29,l),
(102.12,3,o),
(169.73,-10,o),
(249.22,-10,cs),
(433.69,-10,o),
(530.25,78.78,o),
(530.25,234.1,cs),
(530.25,375.64,o),
(434.42,456.3,o),
(304.89,456.3,cs)
);
}
);
};
layerId = "af0f6b28-7b0c-459b-b8de-c41f1d04c38b";
name = "SemiBold (intermediate)";
shapes = (
{
closed = 1;
nodes = (
(253,456,o),
(231,450,o),
(209,446,c),
(222,586,l),
(477,586,l),
(477,714,l),
(90,714,l),
(63,350,l),
(123,318,l),
(150,325,o),
(194,334,o),
(231,334,cs),
(328,334,o),
(374,296,o),
(374,226,cs),
(374,148,o),
(325,113,o),
(236,113,cs),
(175,113,o),
(98,133,o),
(49,159,c),
(49,29,l),
(98,3,o),
(166,-10,o),
(241,-10,cs),
(429,-10,o),
(526,84,o),
(526,239,cs),
(526,380,o),
(430,456,o),
(300,456,cs)
);
}
);
width = 572;
},
{
layerId = "36F3C8CB-53EE-4548-BFDE-2C03212BACAA";
shapes = (
{
closed = 1;
nodes = (
(187,439,o),
(160,436,o),
(132,430,c),
(146,638,l),
(346,638,l),
(346,714,l),
(76,714,l),
(55,384,l),
(88,352,l),
(120,362,o),
(151,368,o),
(182,368,cs),
(256,368,o),
(300,320,o),
(300,227,cs),
(300,138,o),
(259,63,o),
(174,63,cs),
(131,63,o),
(87,78,o),
(49,103,c),
(49,20,l),
(82,0,o),
(125,-10,o),
(180,-10,cs),
(313,-10,o),
(385,87,o),
(385,230,cs),
(385,354,o),
(319,439,o),
(211,439,cs)
);
}
);
width = 429;
},
{
layerId = "AB666A95-3AF9-4DE8-B258-097FFCFE8A59";
shapes = (
{
closed = 1;
nodes = (
(206,426,o),
(159,414,o),
(126,406,c),
(151,689,l),
(462,689,l),
(462,714,l),
(128,714,l),
(98,393,l),
(117,378,l),
(166,392,o),
(212,401,o),
(274,401,cs),
(408,401,o),
(478,331,o),
(478,217,cs),
(478,90,o),
(389,15,o),
(253,15,cs),
(180,15,o),
(119,35,o),
(74,62,c),
(74,32,l),
(116,8,o),
(177,-10,o),
(253,-10,cs),
(403,-10,o),
(505,76,o),
(505,217,cs),
(505,351,o),
(417,426,o),
(274,426,cs)
);
}
);
width = 570;
},
{
layerId = "029FEF0C-5FA4-4A3E-AC23-838A1147A554";
shapes = (
{
closed = 1;
nodes = (
(141,425,o),
(104,416,o),
(82,408,c),
(103,689,l),
(313,689,l),
(313,714,l),
(79,714,l),
(55,392,l),
(71,377,l),
(96,389,o),
(138,400,o),
(180,400,cs),
(286,400,o),
(323,330,o),
(323,222,cs),
(323,108,o),
(275,16,o),
(162,16,cs),
(115,16,o),
(74,32,o),
(48,49,c),
(48,19,l),
(75,3,o),
(117,-9,o),
(162,-9,cs),
(292,-9,o),
(350,92,o),
(350,222,cs),
(350,341,o),
(302,425,o),
(182,425,cs)
);
}
);
width = 394;
}
);
script = "";
subCategory = "Decimal Digit";
unicode = 53;
}
{
category = Number;
glyphname = six;
layers = (
{
layerId = "0A718E2F-231D-484E-9433-16A5230D2CE8";
shapes = (
{
closed = 1;
nodes = (
(34,88,o),
(150,-10,o),
(303,-10,cs),
(459,-10,o),
(555,84,o),
(555,244,cs),
(555,392,o),
(480,476,o),
(355,476,cs),
(279,476,o),
(239,440,o),
(214,393,c),
(208,393,l),
(214,506,o),
(259,574,o),
(404,574,cs),
(452,574,o),
(483,570,o),
(510,565,c),
(510,716,l),
(483,720,o),
(436,724,o),
(408,724,cs),
(92,724,o),
(34,507,o),
(34,302,cs)
);
},
{
closed = 1;
nodes = (
(248,143,o),
(226,199,o),
(226,250,cs),
(226,288,o),
(253,327,o),
(301,327,cs),
(348,327,o),
(368,294,o),
(368,240,cs),
(368,173,o),
(340,143,o),
(299,143,cs)
);
}
);
width = 586;
},
{
layerId = "98E204A9-1C79-49C7-AB3E-40A925F56409";
shapes = (
{
closed = 1;
nodes = (
(32,106,o),
(116,-10,o),
(255,-10,cs),
(387,-10,o),
(464,89,o),
(464,244,cs),
(464,390,o),
(404,476,o),
(304,476,cs),
(251,476,o),
(214,448,o),
(191,393,c),
(187,393,l),
(191,528,o),
(241,584,o),
(344,584,cs),
(374,584,o),
(403,581,o),
(430,575,c),
(430,716,l),
(396,721,o),
(362,724,o),
(328,724,cs),
(88,724,o),
(32,517,o),
(32,302,cs)
);
},
{
closed = 1;
nodes = (
(220,134,o),
(201,184,o),
(201,252,cs),
(201,299,o),
(222,336,o),
(252,336,cs),
(284,336,o),
(299,304,o),
(299,241,cs),
(299,167,o),
(279,134,o),
(251,134,cs)
);
}
);
width = 495;
},
{
layerId = "9FF96064-8718-4A86-A5C8-73C592101F67";
shapes = (
{
closed = 1;
nodes = (
(55,91,o),
(162,-10,o),
(298,-10,cs),
(437,-10,o),
(525,81,o),
(525,230,cs),
(525,368,o),
(442,447,o),
(318,447,cs),
(232,447,o),
(179,410,o),
(149,363,c),
(143,363,l),
(150,519,o),
(199,652,o),
(384,652,cs),
(414,652,o),
(446,648,o),
(470,640,c),
(470,715,l),
(448,721,o),
(410,724,o),
(382,724,cs),
(113,724,o),
(55,510,o),
(55,305,cs)
);
},
{
closed = 1;
nodes = (
(196,64,o),
(144,160,o),
(144,247,cs),
(144,310,o),
(206,378,o),
(300,378,cs),
(392,378,o),
(438,321,o),
(438,230,cs),
(438,117,o),
(381,64,o),
(297,64,cs)
);
}
);
width = 572;
},
{
layerId = "134B12F2-BF5D-48E3-8003-C7502B438C7E";
shapes = (
{
closed = 1;
nodes = (
(35,89,o),
(150,-10,o),
(296,-10,cs),
(445,-10,o),
(539,83,o),
(539,238,cs),
(539,382,o),
(460,464,o),
(335,464,cs),
(255,464,o),
(207,428,o),
(180,381,c),
(174,381,l),
(180,513,o),
(225,604,o),
(403,604,cs),
(432,604,o),
(463,600,o),
(489,594,c),
(489,715,l),
(464,720,o),
(421,722,o),
(393,722,cs),
(96,722,o),
(35,508,o),
(35,303,cs)
);
},
{
closed = 1;
nodes = (
(222,111,o),
(185,183,o),
(185,249,cs),
(185,297,o),
(229,348,o),
(296,348,cs),
(361,348,o),
(393,305,o),
(393,236,cs),
(393,150,o),
(352,111,o),
(293,111,cs)
);
}
);
width = 572;
},
{
layerId = "36F3C8CB-53EE-4548-BFDE-2C03212BACAA";
shapes = (
{
closed = 1;
nodes = (
(44,102,o),
(107,-10,o),
(221,-10,cs),
(333,-10,o),
(388,93,o),
(388,226,cs),
(388,352,o),
(340,452,o),
(240,452,cs),
(189,452,o),
(150,422,o),
(128,372,c),
(124,372,l),
(130,556,o),
(183,650,o),
(280,650,cs),
(306,650,o),
(330,646,o),
(351,639,c),
(351,714,l),
(330,720,o),
(305,724,o),
(277,724,cs),
(110,724,o),
(44,568,o),
(44,303,cs)
);
},
{
closed = 1;
nodes = (
(153,65,o),
(129,173,o),
(129,255,cs),
(129,319,o),
(160,378,o),
(220,378,cs),
(276,378,o),
(305,325,o),
(305,224,cs),
(305,117,o),
(273,65,o),
(220,65,cs)
);
}
);
width = 429;
},
{
layerId = "43B45EC1-5522-4B1A-B0C7-88628E50A583";
shapes = (
{
closed = 1;
nodes = (
(37,105,o),
(113,-10,o),
(242,-10,cs),
(366,-10,o),
(435,90,o),
(435,237,cs),
(435,375,o),
(379,467,o),
(279,467,cs),
(227,467,o),
(189,438,o),
(167,385,c),
(163,385,l),
(168,539,o),
(219,610,o),
(319,610,cs),
(348,610,o),
(375,606,o),
(400,600,c),
(400,715,l),
(371,721,o),
(340,724,o),
(308,724,cs),
(97,724,o),
(37,537,o),
(37,303,cs)
);
},
{
closed = 1;
nodes = (
(194,107,o),
(173,180,o),
(173,253,cs),
(173,307,o),
(198,352,o),
(240,352,cs),
(281,352,o),
(301,312,o),
(301,234,cs),
(301,148,o),
(277,107,o),
(239,107,cs)
);
}
);
width = 469;
},
{
layerId = "AB666A95-3AF9-4DE8-B258-097FFCFE8A59";
shapes = (
{
closed = 1;
nodes = (
(68,150,o),
(130,-10,o),
(299,-10,cs),
(435,-10,o),
(513,86,o),
(513,225,cs),
(513,355,o),
(436,439,o),
(304,439,cs),
(189,439,o),
(121,378,o),
(95,322,c),
(93,322,l),
(99,593,o),
(209,701,o),
(367,701,cs),
(407,701,o),
(441,695,o),
(465,686,c),
(465,713,l),
(438,721,o),
(407,726,o),
(367,726,cs),
(196,726,o),
(68,608,o),
(68,303,cs)
);
},
{
closed = 1;
nodes = (
(137,15,o),
(100,179,o),
(100,258,cs),
(100,325,o),
(177,414,o),
(304,414,cs),
(426,414,o),
(486,342,o),
(486,225,cs),
(486,95,o),
(420,15,o),
(299,15,cs)
);
}
);
width = 570;
},
{
layerId = "029FEF0C-5FA4-4A3E-AC23-838A1147A554";
shapes = (
{
closed = 1;
nodes = (
(49,91,o),
(92,-14,o),
(204,-14,cs),
(295,-14,o),
(350,71,o),
(350,217,cs),
(350,347,o),
(306,436,o),
(207,436,cs),
(120,436,o),
(85,369,o),
(77,334,c),
(76,334,l),
(76,568,o),
(136,695,o),
(248,695,cs),
(273,695,o),
(301,689,o),
(320,682,c),
(320,707,l),
(303,715,o),
(274,720,o),
(248,720,cs),
(137,720,o),
(49,626,o),
(49,307,cs)
);
},
{
closed = 1;
nodes = (
(94,11,o),
(78,162,o),
(78,237,cs),
(78,345,o),
(125,411,o),
(206,411,cs),
(294,411,o),
(323,333,o),
(323,219,cs),
(323,82,o),
(282,11,o),
(202,11,cs)
);
}
);
width = 394;
}
);
script = "";
subCategory = "Decimal Digit";
unicode = 54;
}
{
category = Number;
color = 10;
glyphname = seven;
layers = (
{
layerId = "0A718E2F-231D-484E-9433-16A5230D2CE8";
shapes = (
{
closed = 1;
nodes = (
(302,0,l),
(553,600,l),
(553,714,l),
(38,714,l),
(38,554,l),
(347,554,l),
(102,0,l)
);
}
);
width = 586;
},
{
layerId = "98E204A9-1C79-49C7-AB3E-40A925F56409";
shapes = (
{
closed = 1;
nodes = (
(262,0,l),
(459,600,l),
(459,714,l),
(37,714,l),
(37,567,l),
(289,567,l),
(85,0,l)
);
}
);
width = 495;
},
{
layerId = "9FF96064-8718-4A86-A5C8-73C592101F67";
shapes = (
{
closed = 1;
nodes = (
(233,0,l),
(523,646,l),
(523,714,l),
(44,714,l),
(44,634,l),
(429,634,l),
(136,0,l)
);
}
);
width = 572;
},
{
associatedMasterId = "9FF96064-8718-4A86-A5C8-73C592101F67";
attr = {
coordinates = (
151,
100
);
};
background = {
shapes = (
{
closed = 1;
nodes = (
(275.09,0,l),
(541.3,617.94,l),
(541.3,714,l),
(40.34,714,l),
(40.34,585.2,l),
(378.98,585.2,l),
(115.26,0,l)
);
}
);
};
layerId = "47fcc256-af3b-41f3-9a55-93f7e8094361";
name = "SemiBold (intermediate)";
shapes = (
{
closed = 1;
nodes = (
(269,0,l),
(539,619,l),
(539,714,l),
(27,714,l),
(27,587,l),
(379,587,l),
(111,0,l)
);
}
);
width = 572;
},
{
layerId = "36F3C8CB-53EE-4548-BFDE-2C03212BACAA";
shapes = (
{
closed = 1;
nodes = (
(180,0,l),
(393,652,l),
(393,714,l),
(31,714,l),
(31,637,l),
(309,637,l),
(93,0,l)
);
}
);
width = 429;
},
{
layerId = "AB666A95-3AF9-4DE8-B258-097FFCFE8A59";
shapes = (
{
closed = 1;
nodes = (
(212,0,l),
(510,697,l),
(510,714,l),
(58,714,l),
(58,689,l),
(480,689,l),
(183,0,l)
);
}
);
width = 570;
},
{
layerId = "029FEF0C-5FA4-4A3E-AC23-838A1147A554";
shapes = (
{
closed = 1;
nodes = (
(130,0,l),
(342,692,l),
(342,714,l),
(44,714,l),
(44,689,l),
(315,689,l),
(103,0,l)
);
}
);
width = 394;
}
);
script = "";
subCategory = "Decimal Digit";
unicode = 55;
}
{
category = Number;
glyphname = eight;
layers = (
{
layerId = "0A718E2F-231D-484E-9433-16A5230D2CE8";
shapes = (
{
closed = 1;
nodes = (
(154,724,o),
(54,666,o),
(54,551,cs),
(54,468,o),
(103,413,o),
(163,373,c),
(88,335,o),
(33,287,o),
(33,188,cs),
(33,71,o),
(112,-10,o),
(293,-10,cs),
(473,-10,o),
(554,75,o),
(554,190,cs),
(554,284,o),
(477,338,o),
(410,376,c),
(482,411,o),
(533,464,o),
(533,550,cs),
(533,667,o),
(436,724,o),
(295,724,cs)
);
},
{
closed = 1;
nodes = (
(210,239,o),
(247,268,o),
(291,291,c),
(304,283,ls),
(329,268,o),
(377,236,o),
(377,192,cs),
(377,153,o),
(350,129,o),
(291,129,cs),
(240,129,o),
(210,156,o),
(210,196,cs)
);
},
{
closed = 1;
nodes = (
(325,585,o),
(352,565,o),
(352,533,cs),
(352,495,o),
(320,475,o),
(292,459,c),
(260,477,o),
(235,502,o),
(235,533,cs),
(235,565,o),
(262,585,o),
(294,585,cs)
);
}
);
width = 586;
},
{
layerId = "98E204A9-1C79-49C7-AB3E-40A925F56409";
shapes = (
{
closed = 1;
nodes = (
(124,724,o),
(48,661,o),
(48,551,cs),
(48,481,o),
(75,424,o),
(138,373,c),
(61,325,o),
(30,264,o),
(30,188,cs),
(30,61,o),
(107,-10,o),
(246,-10,cs),
(383,-10,o),
(464,63,o),
(464,190,cs),
(464,259,o),
(434,316,o),
(349,376,c),
(417,418,o),
(446,474,o),
(446,550,cs),
(446,661,o),
(375,724,o),
(248,724,cs)
);
},
{
closed = 1;
nodes = (
(188,228,o),
(203,259,o),
(245,291,c),
(255,283,ls),
(298,246,o),
(306,218,o),
(306,187,cs),
(306,144,o),
(286,122,o),
(245,122,cs),
(207,122,o),
(188,148,o),
(188,191,cs)
);
},
{
closed = 1;
nodes = (
(271,592,o),
(290,571,o),
(290,538,cs),
(290,508,o),
(281,488,o),
(246,459,c),
(218,482,o),
(205,508,o),
(205,538,cs),
(205,570,o),
(222,592,o),
(248,592,cs)
);
}
);
width = 495;
},
{
layerId = "9FF96064-8718-4A86-A5C8-73C592101F67";
shapes = (
{
closed = 1;
nodes = (
(163,724,o),
(72,663,o),
(72,554,cs),
(72,466,o),
(127,413,o),
(197,373,c),
(118,337,o),
(49,279,o),
(49,182,cs),
(49,61,o),
(134,-10,o),
(288,-10,cs),
(430,-10,o),
(522,65,o),
(522,185,cs),
(522,282,o),
(451,335,o),
(363,378,c),
(437,416,o),
(499,467,o),
(499,553,cs),
(499,664,o),
(410,724,o),
(285,724,cs)
);
},
{
closed = 1;
nodes = (
(135,254,o),
(182,299,o),
(270,337,c),
(286,331,ls),
(377,296,o),
(436,253,o),
(436,184,cs),
(436,111,o),
(383,60,o),
(286,60,cs),
(183,60,o),
(135,112,o),
(135,181,cs)
);
},
{
closed = 1;
nodes = (
(361,653,o),
(412,616,o),
(412,550,cs),
(412,478,o),
(358,441,o),
(289,412,c),
(216,443,o),
(158,476,o),
(158,550,cs),
(158,616,o),
(210,653,o),
(284,653,cs)
);
}
);
width = 572;
},
{
layerId = "36F3C8CB-53EE-4548-BFDE-2C03212BACAA";
shapes = (
{
closed = 1;
nodes = (
(116,724,o),
(51,658,o),
(51,556,cs),
(51,485,o),
(83,425,o),
(151,372,c),
(71,321,o),
(34,260,o),
(34,176,cs),
(34,64,o),
(101,-10,o),
(219,-10,cs),
(326,-10,o),
(396,68,o),
(396,181,cs),
(396,268,o),
(344,322,o),
(269,373,c),
(344,418,o),
(380,479,o),
(380,557,cs),
(380,659,o),
(319,724,o),
(216,724,cs)
);
},
{
closed = 1;
nodes = (
(116,245,o),
(140,290,o),
(207,334,c),
(227,320,ls),
(287,277,o),
(313,232,o),
(313,181,cs),
(313,110,o),
(280,60,o),
(215,60,cs),
(151,60,o),
(116,109,o),
(116,176,cs)
);
},
{
closed = 1;
nodes = (
(267,654,o),
(298,615,o),
(298,551,cs),
(298,494,o),
(274,452,o),
(214,413,c),
(159,451,o),
(132,490,o),
(132,551,cs),
(132,615,o),
(164,654,o),
(214,654,cs)
);
}
);
width = 429;
},
{
layerId = "AB666A95-3AF9-4DE8-B258-097FFCFE8A59";
shapes = (
{
closed = 1;
nodes = (
(168,724,o),
(87,659,o),
(87,559,cs),
(87,460,o),
(161,415,o),
(251,381,c),
(138,343,o),
(64,284,o),
(64,175,cs),
(64,65,o),
(153,-10,o),
(279,-10,cs),
(404,-10,o),
(503,59,o),
(503,181,cs),
(503,284,o),
(432,342,o),
(314,382,c),
(415,422,o),
(479,473,o),
(479,561,cs),
(479,663,o),
(403,724,o),
(283,724,cs)
);
},
{
closed = 1;
nodes = (
(91,282,o),
(175,333,o),
(281,368,c),
(309,358,ls),
(418,319,o),
(476,268,o),
(476,181,cs),
(476,72,o),
(393,15,o),
(279,15,cs),
(167,15,o),
(91,76,o),
(91,175,cs)
);
},
{
closed = 1;
nodes = (
(389,699,o),
(452,653,o),
(452,561,cs),
(452,482,o),
(396,439,o),
(286,394,c),
(182,430,o),
(114,474,o),
(114,559,cs),
(114,649,o),
(185,699,o),
(283,699,cs)
);
}
);
width = 570;
},
{
layerId = "029FEF0C-5FA4-4A3E-AC23-838A1147A554";
shapes = (
{
closed = 1;
nodes = (
(109,723,o),
(53,656,o),
(53,567,cs),
(53,482,o),
(102,426,o),
(173,379,c),
(99,335,o),
(36,275,o),
(36,170,cs),
(36,64,o),
(100,-10,o),
(196,-10,cs),
(299,-10,o),
(357,70,o),
(357,172,cs),
(357,268,o),
(295,329,o),
(217,378,c),
(286,421,o),
(342,467,o),
(342,565,cs),
(342,658,o),
(287,723,o),
(199,723,cs)
);
},
{
closed = 1;
nodes = (
(63,268,o),
(122,323,o),
(195,365,c),
(209,356,ls),
(299,299,o),
(330,237,o),
(330,170,cs),
(330,84,o),
(281,15,o),
(197,15,cs),
(119,15,o),
(63,74,o),
(63,169,cs)
);
},
{
closed = 1;
nodes = (
(271,698,o),
(315,648,o),
(315,564,cs),
(315,474,o),
(264,435,o),
(196,393,c),
(123,438,o),
(80,490,o),
(80,566,cs),
(80,646,o),
(124,698,o),
(199,698,cs)
);
}
);
width = 394;
}
);
script = "";
subCategory = "Decimal Digit";
unicode = 56;
}
{
category = Number;
glyphname = nine;
layers = (
{
layerId = "0A718E2F-231D-484E-9433-16A5230D2CE8";
shapes = (
{
closed = 1;
nodes = (
(552,626,o),
(433,724,o),
(284,724,cs),
(127,724,o),
(31,630,o),
(31,471,cs),
(31,322,o),
(108,238,o),
(228,238,cs),
(309,238,o),
(346,273,o),
(372,321,c),
(378,321,l),
(372,214,o),
(331,140,o),
(170,140,cs),
(133,140,o),
(107,143,o),
(79,148,c),
(79,-5,l),
(106,-9,o),
(150,-10,o),
(179,-10,cs),
(444,-10,o),
(552,146,o),
(552,401,cs)
);
},
{
closed = 1;
nodes = (
(339,570,o),
(360,515,o),
(360,464,cs),
(360,426,o),
(330,386,o),
(287,386,cs),
(241,386,o),
(218,420,o),
(218,473,cs),
(218,541,o),
(244,570,o),
(289,570,cs)
);
}
);
width = 586;
},
{
layerId = "98E204A9-1C79-49C7-AB3E-40A925F56409";
shapes = (
{
closed = 1;
nodes = (
(463,608,o),
(378,724,o),
(240,724,cs),
(108,724,o),
(30,626,o),
(30,470,cs),
(30,326,o),
(89,238,o),
(191,238,cs),
(243,238,o),
(280,266,o),
(303,321,c),
(308,321,l),
(304,187,o),
(254,130,o),
(151,130,cs),
(121,130,o),
(92,133,o),
(65,140,c),
(65,-1,l),
(98,-7,o),
(132,-10,o),
(167,-10,cs),
(394,-10,o),
(463,186,o),
(463,413,cs)
);
},
{
closed = 1;
nodes = (
(289,580,o),
(294,494,o),
(294,462,cs),
(294,430,o),
(281,378,o),
(242,378,cs),
(211,378,o),
(195,410,o),
(195,473,cs),
(195,547,o),
(215,580,o),
(243,580,c)
);
}
);
width = 495;
},
{
layerId = "9FF96064-8718-4A86-A5C8-73C592101F67";
shapes = (
{
closed = 1;
nodes = (
(520,622,o),
(414,724,o),
(278,724,cs),
(140,724,o),
(50,632,o),
(50,483,cs),
(50,345,o),
(132,267,o),
(255,267,cs),
(342,267,o),
(395,304,o),
(425,350,c),
(431,350,l),
(425,194,o),
(376,62,o),
(190,62,cs),
(160,62,o),
(126,67,o),
(102,75,c),
(102,0,l),
(124,-7,o),
(165,-10,o),
(192,-10,cs),
(462,-10,o),
(520,204,o),
(520,409,cs)
);
},
{
closed = 1;
nodes = (
(380,650,o),
(431,553,o),
(431,467,cs),
(431,403,o),
(370,336,o),
(274,336,cs),
(181,336,o),
(137,392,o),
(137,484,cs),
(137,596,o),
(195,650,o),
(278,650,cs)
);
}
);
width = 572;
},
{
layerId = "36F3C8CB-53EE-4548-BFDE-2C03212BACAA";
shapes = (
{
closed = 1;
nodes = (
(381,614,o),
(320,724,o),
(209,724,cs),
(92,724,o),
(37,621,o),
(37,488,cs),
(37,362,o),
(84,262,o),
(185,262,cs),
(236,262,o),
(275,292,o),
(297,342,c),
(301,342,l),
(296,198,o),
(257,64,o),
(144,64,cs),
(114,64,o),
(90,68,o),
(69,76,c),
(69,0,l),
(88,-5,o),
(122,-10,o),
(146,-10,cs),
(310,-10,o),
(381,150,o),
(381,417,cs)
);
},
{
closed = 1;
nodes = (
(281,649,o),
(297,534,o),
(297,467,cs),
(297,401,o),
(268,336,o),
(206,336,cs),
(150,336,o),
(121,389,o),
(121,490,cs),
(121,597,o),
(151,649,o),
(208,649,cs)
);
}
);
width = 429;
},
{
layerId = "AB666A95-3AF9-4DE8-B258-097FFCFE8A59";
shapes = (
{
closed = 1;
nodes = (
(500,568,o),
(441,724,o),
(269,724,cs),
(133,724,o),
(55,629,o),
(55,491,cs),
(55,360,o),
(130,275,o),
(262,275,cs),
(377,275,o),
(447,337,o),
(473,394,c),
(475,394,l),
(469,124,o),
(357,13,o),
(201,13,cs),
(159,13,o),
(117,20,o),
(93,29,c),
(93,1,l),
(120,-7,o),
(162,-12,o),
(201,-12,cs),
(372,-12,o),
(500,107,o),
(500,413,cs)
);
},
{
closed = 1;
nodes = (
(431,699,o),
(468,536,o),
(468,458,cs),
(468,390,o),
(390,300,o),
(264,300,cs),
(142,300,o),
(82,373,o),
(82,491,cs),
(82,620,o),
(148,699,o),
(269,699,cs)
);
}
);
width = 570;
},
{
layerId = "029FEF0C-5FA4-4A3E-AC23-838A1147A554";
shapes = (
{
closed = 1;
nodes = (
(341,619,o),
(295,724,o),
(186,724,cs),
(95,724,o),
(40,639,o),
(40,493,cs),
(40,363,o),
(84,274,o),
(184,274,cs),
(270,274,o),
(305,341,o),
(313,376,c),
(314,376,l),
(314,142,o),
(254,15,o),
(142,15,cs),
(117,15,o),
(89,21,o),
(70,28,c),
(70,3,l),
(87,-5,o),
(116,-10,o),
(142,-10,cs),
(253,-10,o),
(341,84,o),
(341,403,cs)
);
},
{
closed = 1;
nodes = (
(296,699,o),
(312,552,o),
(312,473,cs),
(312,365,o),
(265,299,o),
(184,299,cs),
(96,299,o),
(67,377,o),
(67,491,cs),
(67,625,o),
(108,699,o),
(188,699,cs)
);
}
);
width = 394;
}
);
script = "";
subCategory = "Decimal Digit";
unicode = 57;
}
{
category = Punctuation;
glyphname = colon;
kernLeft = colon;
layers = (
{
layerId = "0A718E2F-231D-484E-9433-16A5230D2CE8";
shapes = (
{
closed = 1;
nodes = (
(42,15,o),
(89,-12,o),
(146,-12,cs),
(200,-12,o),
(246,15,o),
(246,81,cs),
(246,150,o),
(200,175,o),
(146,175,cs),
(89,175,o),
(42,150,o),
(42,81,c)
);
},
{
closed = 1;
nodes = (
(42,400,o),
(89,373,o),
(146,373,cs),
(200,373,o),
(246,400,o),
(246,467,cs),
(246,535,o),
(200,560,o),
(146,560,cs),
(89,560,o),
(42,535,o),
(42,467,c)
);
}
);
width = 289;
},
{
layerId = "98E204A9-1C79-49C7-AB3E-40A925F56409";
shapes = (
{
closed = 1;
nodes = (
(49,22,o),
(84,-12,o),
(142,-12,cs),
(198,-12,o),
(231,22,o),
(231,81,cs),
(231,141,o),
(200,175,o),
(142,175,cs),
(81,175,o),
(49,141,o),
(49,81,cs)
);
},
{
closed = 1;
nodes = (
(49,408,o),
(84,374,o),
(142,374,cs),
(198,374,o),
(231,408,o),
(231,467,cs),
(231,527,o),
(200,561,o),
(142,561,cs),
(81,561,o),
(49,527,o),
(49,467,cs)
);
}
);
width = 280;
},
{
layerId = "9FF96064-8718-4A86-A5C8-73C592101F67";
shapes = (
{
closed = 1;
nodes = (
(72,6,o),
(99,-14,o),
(133,-14,cs),
(167,-14,o),
(196,6,o),
(196,54,cs),
(196,103,o),
(167,121,o),
(133,121,cs),
(99,121,o),
(72,103,o),
(72,54,cs)
);
},
{
closed = 1;
nodes = (
(72,434,o),
(99,414,o),
(133,414,cs),
(167,414,o),
(196,434,o),
(196,482,cs),
(196,532,o),
(167,550,o),
(133,550,cs),
(99,550,o),
(72,532,o),
(72,482,cs)
);
}
);
width = 268;
},
{
layerId = "36F3C8CB-53EE-4548-BFDE-2C03212BACAA";
shapes = (
{
closed = 1;
nodes = (
(60,13,o),
(79,-9,o),
(114,-9,cs),
(145,-9,o),
(168,11,o),
(168,55,cs),
(168,100,o),
(147,119,o),
(114,119,cs),
(78,119,o),
(60,97,o),
(60,55,cs)
);
},
{
closed = 1;
nodes = (
(60,433,o),
(79,411,o),
(114,411,cs),
(145,411,o),
(168,432,o),
(168,476,cs),
(168,518,o),
(149,540,o),
(114,540,cs),
(78,540,o),
(60,518,o),
(60,476,cs)
);
}
);
width = 228;
},
{
layerId = "AB666A95-3AF9-4DE8-B258-097FFCFE8A59";
shapes = (
{
closed = 1;
nodes = (
(85,6,o),
(90,-8,o),
(110,-8,cs),
(134,-8,o),
(137,6,o),
(137,23,cs),
(137,39,o),
(134,54,o),
(110,54,cs),
(90,54,o),
(85,39,o),
(85,23,cs)
);
},
{
closed = 1;
nodes = (
(85,484,o),
(90,470,o),
(110,470,cs),
(134,470,o),
(137,484,o),
(137,501,cs),
(137,517,o),
(134,532,o),
(110,532,cs),
(90,532,o),
(85,517,o),
(85,501,cs)
);
}
);
width = 220;
},
{
layerId = "029FEF0C-5FA4-4A3E-AC23-838A1147A554";
shapes = (
{
closed = 1;
nodes = (
(65,12,o),
(67,-5,o),
(90,-5,cs),
(112,-5,o),
(116,11,o),
(116,31,cs),
(116,50,o),
(112,66,o),
(90,66,cs),
(69,66,o),
(65,50,o),
(65,31,cs)
);
},
{
closed = 1;
nodes = (
(65,476,o),
(70,461,o),
(90,461,cs),
(108,461,o),
(116,474,o),
(116,497,cs),
(116,521,o),
(109,532,o),
(91,532,cs),
(70,532,o),
(65,516,o),
(65,496,cs)
);
}
);
width = 180;
}
);
script = "";
subCategory = Other;
unicode = 58;
}
{
category = Punctuation;
color = 10;
glyphname = semicolon;
kernLeft = colon;
layers = (
{
layerId = "0A718E2F-231D-484E-9433-16A5230D2CE8";
shapes = (
{
closed = 1;
nodes = (
(243,146,l),
(76,146,l),
(67,66,o),
(47,-48,o),
(28,-139,c),
(164,-139,l),
(197,-65,o),
(232,63,o),
(250,135,c)
);
},
{
closed = 1;
nodes = (
(45,400,o),
(91,373,o),
(148,373,cs),
(202,373,o),
(249,400,o),
(249,467,cs),
(249,535,o),
(202,560,o),
(148,560,cs),
(91,560,o),
(45,535,o),
(45,467,c)
);
}
);
width = 297;
},
{
layerId = "98E204A9-1C79-49C7-AB3E-40A925F56409";
shapes = (
{
closed = 1;
nodes = (
(225,146,l),
(67,146,l),
(61,69,o),
(46,-60,o),
(30,-139,c),
(165,-139,l),
(193,-66,o),
(215,25,o),
(230,135,c)
);
},
{
closed = 1;
nodes = (
(49,408,o),
(84,374,o),
(142,374,cs),
(198,374,o),
(231,408,o),
(231,467,cs),
(231,527,o),
(200,561,o),
(142,561,cs),
(81,561,o),
(49,527,o),
(49,467,cs)
);
}
);
width = 280;
},
{
layerId = "9FF96064-8718-4A86-A5C8-73C592101F67";
shapes = (
{
closed = 1;
nodes = (
(176,116,l),
(82,116,l),
(72,46,o),
(50,-54,o),
(31,-129,c),
(97,-129,l),
(129,-58,o),
(165,35,o),
(183,105,c)
);
},
{
closed = 1;
nodes = (
(70,434,o),
(97,414,o),
(131,414,cs),
(166,414,o),
(194,434,o),
(194,482,cs),
(194,532,o),
(166,550,o),
(131,550,cs),
(97,550,o),
(70,532,o),
(70,482,cs)
);
}
);
width = 268;
},
{
associatedMasterId = "9FF96064-8718-4A86-A5C8-73C592101F67";
attr = {
coordinates = (
151,
100
);
};
background = {
shapes = (
{
closed = 1;
nodes = (
(216.87,134.3,l),
(78.34,134.3,l),
(68.95,58.2,o),
(48.17,-50.34,o),
(29.17,-135.1,c),
(137.87,-135.1,l),
(170.48,-62.27,o),
(205.87,52.08,o),
(223.87,123.3,c)
);
},
{
closed = 1;
nodes = (
(54.75,413.26,o),
(93.34,388.99,o),
(141.37,388.99,cs),
(187.96,388.99,o),
(227.55,413.26,o),
(227.55,472.85,cs),
(227.55,533.83,o),
(187.96,556.1,o),
(141.37,556.1,cs),
(93.34,556.1,o),
(54.75,533.83,o),
(54.75,472.85,cs)
);
}
);
};
layerId = "825f38e9-598b-42f8-b247-5e8c538d8731";
name = "SemiBold (intermediate)";
shapes = (
{
closed = 1;
nodes = (
(217,116,l),
(80,116,l),
(70,47,o),
(50,-50,o),
(31,-129,c),
(138,-129,l),
(171,-56,o),
(206,34,o),
(224,105,c)
);
},
{
closed = 1;
nodes = (
(57,414,o),
(95,390,o),
(143,390,cs),
(189,390,o),
(228,414,o),
(228,473,cs),
(228,534,o),
(189,556,o),
(143,556,cs),
(95,556,o),
(57,534,o),
(57,473,c)
);
}
);
width = 285;
},
{
layerId = "36F3C8CB-53EE-4548-BFDE-2C03212BACAA";
shapes = (
{
closed = 1;
nodes = (
(167,114,l),
(82,114,l),
(74,42,o),
(58,-50,o),
(36,-132,c),
(98,-132,l),
(130,-60,o),
(155,19,o),
(174,103,c)
);
},
{
closed = 1;
nodes = (
(60,433,o),
(79,411,o),
(114,411,cs),
(145,411,o),
(168,432,o),
(168,476,cs),
(168,518,o),
(149,540,o),
(114,540,cs),
(78,540,o),
(60,518,o),
(60,476,cs)
);
}
);
width = 228;
},
{
layerId = "AB666A95-3AF9-4DE8-B258-097FFCFE8A59";
shapes = (
{
closed = 1;
nodes = (
(122,116,l),
(94,116,l),
(83,40,o),
(67,-32,o),
(38,-129,c),
(60,-129,l),
(88,-60,o),
(110,30,o),
(125,104,c)
);
},
{
closed = 1;
nodes = (
(85,484,o),
(90,470,o),
(110,470,cs),
(134,470,o),
(137,484,o),
(137,501,cs),
(137,517,o),
(134,532,o),
(110,532,cs),
(90,532,o),
(85,517,o),
(85,501,cs)
);
}
);
width = 220;
},
{
layerId = "029FEF0C-5FA4-4A3E-AC23-838A1147A554";
shapes = (
{
closed = 1;
nodes = (
(117,101,l),
(89,101,l),
(79,22,o),
(72,-13,o),
(38,-129,c),
(59,-129,l),
(88,-58,o),
(110,26,o),
(121,88,c)
);
},
{
closed = 1;
nodes = (
(70,476,o),
(75,461,o),
(95,461,cs),
(113,461,o),
(121,474,o),
(121,497,cs),
(121,520,o),
(114,532,o),
(95,532,cs),
(75,532,o),
(70,516,o),
(70,497,cs)
);
}
);
width = 177;
}
);
script = "";
subCategory = Other;
unicode = 59;
}
{
category = Symbol;
color = 10;
glyphname = less;
layers = (
{
layerId = "0A718E2F-231D-484E-9433-16A5230D2CE8";
shapes = (
{
closed = 1;
nodes = (
(539,231,l),
(236,354,l),
(539,492,l),
(539,637,l),
(45,390,l),
(45,306,l),
(539,87,l)
);
}
);
width = 586;
},
{
layerId = "98E204A9-1C79-49C7-AB3E-40A925F56409";
shapes = (
{
closed = 1;
nodes = (
(466,256,l),
(220,361,l),
(466,464,l),
(466,609,l),
(29,403,l),
(29,319,l),
(466,112,l)
);
}
);
width = 500;
},
{
layerId = "9FF96064-8718-4A86-A5C8-73C592101F67";
shapes = (
{
closed = 1;
nodes = (
(521,194,l),
(144,352,l),
(521,530,l),
(521,608,l),
(50,373,l),
(50,323,l),
(521,116,l)
);
}
);
width = 572;
},
{
associatedMasterId = "9FF96064-8718-4A86-A5C8-73C592101F67";
attr = {
coordinates = (
151,
100
);
};
background = {
shapes = (
{
closed = 1;
nodes = (
(531.98,216.57,l),
(200.12,353.22,l),
(531.98,506.82,l),
(531.98,625.69,l),
(46.95,383.37,l),
(46.95,312.63,l),
(531.98,98.31,l)
);
}
);
};
layerId = "7e9c8727-964b-4117-b944-2a443d6ee72f";
name = "SemiBold (intermediate)";
shapes = (
{
closed = 1;
nodes = (
(528,216,l),
(194,353,l),
(528,508,l),
(528,625,l),
(43,383,l),
(43,313,l),
(528,99,l)
);
}
);
width = 572;
},
{
layerId = "36F3C8CB-53EE-4548-BFDE-2C03212BACAA";
shapes = (
{
closed = 1;
nodes = (
(400,210,l),
(121,355,l),
(400,500,l),
(400,578,l),
(29,380,l),
(29,332,l),
(400,132,l)
);
}
);
width = 430;
},
{
layerId = "AB666A95-3AF9-4DE8-B258-097FFCFE8A59";
shapes = (
{
closed = 1;
nodes = (
(514,164,l),
(91,362,l),
(514,560,l),
(514,586,l),
(56,371,l),
(56,353,l),
(514,138,l)
);
}
);
width = 570;
},
{
layerId = "029FEF0C-5FA4-4A3E-AC23-838A1147A554";
shapes = (
{
closed = 1;
nodes = (
(369,176,l),
(58,366,l),
(369,530,l),
(369,558,l),
(29,377,l),
(29,355,l),
(369,148,l)
);
}
);
width = 399;
}
);
script = "";
subCategory = Math;
unicode = 60;
}
{
category = Symbol;
glyphname = equal;
layers = (
{
layerId = "0A718E2F-231D-484E-9433-16A5230D2CE8";
shapes = (
{
closed = 1;
nodes = (
(541,398,l),
(541,529,l),
(45,529,l),
(45,398,l)
);
},
{
closed = 1;
nodes = (
(541,175,l),
(541,307,l),
(45,307,l),
(45,175,l)
);
}
);
width = 586;
},
{
layerId = "98E204A9-1C79-49C7-AB3E-40A925F56409";
shapes = (
{
closed = 1;
nodes = (
(466,398,l),
(466,529,l),
(34,529,l),
(34,398,l)
);
},
{
closed = 1;
nodes = (
(466,175,l),
(466,307,l),
(34,307,l),
(34,175,l)
);
}
);
width = 500;
},
{
layerId = "9FF96064-8718-4A86-A5C8-73C592101F67";
shapes = (
{
closed = 1;
nodes = (
(514,416,l),
(514,487,l),
(56,487,l),
(56,416,l)
);
},
{
closed = 1;
nodes = (
(514,217,l),
(514,288,l),
(56,288,l),
(56,217,l)
);
}
);
width = 572;
},
{
layerId = "134B12F2-BF5D-48E3-8003-C7502B438C7E";
shapes = (
{
closed = 1;
nodes = (
(528,394,l),
(528,500,l),
(43,500,l),
(43,394,l)
);
},
{
closed = 1;
nodes = (
(528,204,l),
(528,311,l),
(43,311,l),
(43,204,l)
);
}
);
width = 572;
},
{
layerId = "36F3C8CB-53EE-4548-BFDE-2C03212BACAA";
shapes = (
{
closed = 1;
nodes = (
(398,425,l),
(398,493,l),
(30,493,l),
(30,425,l)
);
},
{
closed = 1;
nodes = (
(398,211,l),
(398,279,l),
(30,279,l),
(30,211,l)
);
}
);
width = 430;
},
{
layerId = "43B45EC1-5522-4B1A-B0C7-88628E50A583";
shapes = (
{
closed = 1;
nodes = (
(440,409,l),
(440,515,l),
(33,515,l),
(33,409,l)
);
},
{
closed = 1;
nodes = (
(440,189,l),
(440,296,l),
(33,296,l),
(33,189,l)
);
}
);
width = 473;
},
{
layerId = "AB666A95-3AF9-4DE8-B258-097FFCFE8A59";
shapes = (
{
closed = 1;
nodes = (
(515,443,l),
(515,467,l),
(55,467,l),
(55,443,l)
);
},
{
closed = 1;
nodes = (
(515,239,l),
(515,263,l),
(55,263,l),
(55,239,l)
);
}
);
width = 570;
},
{
layerId = "029FEF0C-5FA4-4A3E-AC23-838A1147A554";
shapes = (
{
closed = 1;
nodes = (
(369,447,l),
(369,473,l),
(29,473,l),
(29,447,l)
);
},
{
closed = 1;
nodes = (
(369,232,l),
(369,258,l),
(29,258,l),
(29,232,l)
);
}
);
width = 399;
}
);
script = "";
subCategory = Math;
unicode = 61;
}
{
category = Symbol;
glyphname = greater;
layers = (
{
layerId = "0A718E2F-231D-484E-9433-16A5230D2CE8";
shapes = (
{
closed = 1;
nodes = (
(45,87,l),
(539,306,l),
(539,390,l),
(45,637,l),
(45,492,l),
(348,354,l),
(45,231,l)
);
}
);
width = 586;
},
{
layerId = "98E204A9-1C79-49C7-AB3E-40A925F56409";
shapes = (
{
closed = 1;
nodes = (
(34,112,l),
(471,319,l),
(471,403,l),
(34,609,l),
(34,464,l),
(280,361,l),
(34,256,l)
);
}
);
width = 500;
},
{
layerId = "9FF96064-8718-4A86-A5C8-73C592101F67";
shapes = (
{
closed = 1;
nodes = (
(50,116,l),
(521,323,l),
(521,373,l),
(50,608,l),
(50,530,l),
(427,351,l),
(50,194,l)
);
}
);
width = 572;
},
{
layerId = "36F3C8CB-53EE-4548-BFDE-2C03212BACAA";
shapes = (
{
closed = 1;
nodes = (
(30,132,l),
(401,332,l),
(401,380,l),
(30,578,l),
(30,500,l),
(309,355,l),
(30,210,l)
);
}
);
width = 430;
},
{
layerId = "AB666A95-3AF9-4DE8-B258-097FFCFE8A59";
shapes = (
{
closed = 1;
nodes = (
(56,138,l),
(514,353,l),
(514,371,l),
(56,586,l),
(56,560,l),
(479,362,l),
(56,164,l)
);
}
);
width = 570;
},
{
layerId = "029FEF0C-5FA4-4A3E-AC23-838A1147A554";
shapes = (
{
closed = 1;
nodes = (
(29,148,l),
(369,355,l),
(369,377,l),
(29,558,l),
(29,530,l),
(342,365,l),
(29,176,l)
);
}
);
width = 399;
}
);
script = "";
subCategory = Math;
unicode = 62;
}
{
category = Punctuation;
glyphname = question;
layers = (
{
layerId = "0A718E2F-231D-484E-9433-16A5230D2CE8";
shapes = (
{
closed = 1;
nodes = (
(144,252,l),
(294,252,l),
(294,277,ls),
(294,308,o),
(312,324,o),
(371,362,cs),
(454,415,o),
(487,469,o),
(487,546,cs),
(487,653,o),
(402,724,o),
(254,724,cs),
(156,724,o),
(73,697,o),
(0,655,c),
(68,522,l),
(133,556,o),
(191,574,o),
(240,574,cs),
(280,574,o),
(307,557,o),
(307,530,cs),
(307,503,o),
(299,481,o),
(233,439,cs),
(163,395,o),
(144,354,o),
(144,294,cs)
);
},
{
closed = 1;
nodes = (
(123,15,o),
(169,-12,o),
(226,-12,cs),
(281,-12,o),
(327,15,o),
(327,81,cs),
(327,150,o),
(281,175,o),
(226,175,cs),
(169,175,o),
(123,150,o),
(123,81,cs)
);
}
);
width = 505;
},
{
layerId = "98E204A9-1C79-49C7-AB3E-40A925F56409";
shapes = (
{
closed = 1;
nodes = (
(107,252,l),
(243,252,l),
(243,277,ls),
(243,306,o),
(245,317,o),
(295,362,cs),
(354,414,o),
(388,460,o),
(388,546,cs),
(388,655,o),
(319,724,o),
(189,724,cs),
(126,724,o),
(63,701,o),
(0,655,c),
(52,528,l),
(98,562,o),
(138,580,o),
(173,580,cs),
(212,580,o),
(230,563,o),
(230,532,cs),
(230,494,o),
(215,476,o),
(175,440,cs),
(126,396,o),
(107,359,o),
(107,294,cs)
);
},
{
closed = 1;
nodes = (
(83,22,o),
(119,-12,o),
(176,-12,cs),
(233,-12,o),
(266,22,o),
(266,81,cs),
(266,141,o),
(234,175,o),
(176,175,cs),
(116,175,o),
(83,141,o),
(83,81,cs)
);
}
);
width = 402;
},
{
layerId = "9FF96064-8718-4A86-A5C8-73C592101F67";
shapes = (
{
closed = 1;
nodes = (
(140,201,l),
(210,201,l),
(210,218,ls),
(210,275,o),
(223,301,o),
(290,358,cs),
(362,418,o),
(408,459,o),
(408,549,cs),
(408,657,o),
(336,724,o),
(209,724,cs),
(129,724,o),
(65,703,o),
(12,675,c),
(43,605,l),
(89,627,o),
(137,647,o),
(203,647,cs),
(281,647,o),
(324,611,o),
(324,547,cs),
(324,487,o),
(301,463,o),
(224,398,cs),
(159,343,o),
(140,303,o),
(140,228,cs)
);
},
{
closed = 1;
nodes = (
(117,6,o),
(143,-14,o),
(179,-14,cs),
(212,-14,o),
(240,6,o),
(240,54,cs),
(240,103,o),
(212,121,o),
(179,121,cs),
(143,121,o),
(117,103,o),
(117,54,cs)
);
}
);
width = 434;
},
{
layerId = "134B12F2-BF5D-48E3-8003-C7502B438C7E";
shapes = (
{
closed = 1;
nodes = (
(135,237,l),
(264,237,l),
(264,266,l),
(264,307,o),
(277,323,o),
(336,366,cs),
(414,423,o),
(453,465,o),
(453,547,cs),
(453,650,o),
(373,724,o),
(234,724,cs),
(143,724,o),
(68,699,o),
(3,663,c),
(56,556,l),
(113,585,o),
(167,604,o),
(223,604,cs),
(279,604,o),
(312,581,o),
(312,539,cs),
(312,496,o),
(288,471,o),
(228,428,cs),
(160,379,o),
(135,339,o),
(135,273,c)
);
},
{
closed = 1;
nodes = (
(119,11,o),
(157,-13,o),
(205,-13,cs),
(251,-13,o),
(290,11,o),
(290,70,cs),
(290,131,o),
(251,153,o),
(205,153,cs),
(157,153,o),
(119,131,o),
(119,70,cs)
);
}
);
width = 477;
},
{
layerId = "36F3C8CB-53EE-4548-BFDE-2C03212BACAA";
shapes = (
{
closed = 1;
nodes = (
(98,201,l),
(163,201,l),
(163,221,ls),
(163,275,o),
(175,306,o),
(215,358,cs),
(272,433,o),
(297,474,o),
(297,560,cs),
(297,665,o),
(243,724,o),
(145,724,cs),
(98,724,o),
(54,709,o),
(12,678,c),
(43,614,l),
(76,637,o),
(104,650,o),
(141,650,cs),
(188,650,o),
(216,617,o),
(216,553,cs),
(216,495,o),
(198,455,o),
(151,394,cs),
(110,342,o),
(98,298,o),
(98,230,cs)
);
},
{
closed = 1;
nodes = (
(78,13,o),
(98,-9,o),
(132,-9,cs),
(164,-9,o),
(186,11,o),
(186,55,cs),
(186,100,o),
(165,119,o),
(132,119,cs),
(97,119,o),
(78,97,o),
(78,55,cs)
);
}
);
width = 318;
},
{
layerId = "43B45EC1-5522-4B1A-B0C7-88628E50A583";
shapes = (
{
closed = 1;
nodes = (
(104,232,l),
(212,232,l),
(212,255,ls),
(212,294,o),
(218,313,o),
(264,360,cs),
(323,420,o),
(353,466,o),
(353,552,cs),
(353,659,o),
(290,724,o),
(172,724,cs),
(115,724,o),
(60,704,o),
(5,664,c),
(49,562,l),
(90,591,o),
(125,607,o),
(161,607,cs),
(203,607,o),
(225,584,o),
(225,540,cs),
(225,495,o),
(209,468,o),
(166,422,cs),
(121,374,o),
(104,335,o),
(104,269,cs)
);
},
{
closed = 1;
nodes = (
(81,18,o),
(111,-11,o),
(159,-11,cs),
(206,-11,o),
(235,18,o),
(235,71,cs),
(235,125,o),
(207,153,o),
(159,153,cs),
(108,153,o),
(81,124,o),
(81,71,cs)
);
}
);
width = 369;
},
{
layerId = "AB666A95-3AF9-4DE8-B258-097FFCFE8A59";
shapes = (
{
closed = 1;
nodes = (
(144,174,l),
(169,174,l),
(169,186,ls),
(169,277,o),
(190,314,o),
(242,350,cs),
(321,405,o),
(374,454,o),
(374,554,cs),
(374,668,o),
(300,724,o),
(188,724,cs),
(134,724,o),
(96,715,o),
(38,691,c),
(48,665,l),
(96,689,o),
(139,699,o),
(188,699,cs),
(281,699,o),
(347,654,o),
(347,554,cs),
(347,463,o),
(301,422,o),
(229,371,cs),
(160,322,o),
(144,285,o),
(144,186,cs)
);
},
{
closed = 1;
nodes = (
(133,6,o),
(138,-8,o),
(158,-8,cs),
(182,-8,o),
(185,6,o),
(185,23,cs),
(185,39,o),
(182,54,o),
(158,54,cs),
(138,54,o),
(133,39,o),
(133,23,cs)
);
}
);
width = 413;
},
{
layerId = "029FEF0C-5FA4-4A3E-AC23-838A1147A554";
shapes = (
{
closed = 1;
nodes = (
(85,170,l),
(109,170,l),
(109,192,ls),
(109,259,o),
(114,294,o),
(161,363,cs),
(200,420,o),
(240,468,o),
(240,565,cs),
(240,674,o),
(189,724,o),
(115,724,cs),
(76,724,o),
(40,710,o),
(17,693,c),
(30,672,l),
(54,689,o),
(83,699,o),
(114,699,cs),
(177,699,o),
(213,657,o),
(213,567,cs),
(213,483,o),
(182,437,o),
(138,373,cs),
(96,312,o),
(85,274,o),
(85,193,cs)
);
},
{
closed = 1;
nodes = (
(72,9,o),
(77,-6,o),
(97,-6,cs),
(115,-6,o),
(123,7,o),
(123,31,cs),
(123,53,o),
(116,65,o),
(98,65,cs),
(77,65,o),
(72,49,o),
(72,29,cs)
);
}
);
width = 263;
}
);
script = "";
subCategory = Other;
unicode = 63;
}
{
category = Symbol;
glyphname = at;
layers = (
{
layerId = "0A718E2F-231D-484E-9433-16A5230D2CE8";
shapes = (
{
closed = 1;
nodes = (
(857,588,o),
(704,723,o),
(473,723,cs),
(209,723,o),
(40,538,o),
(40,298,cs),
(40,67,o),
(190,-75,o),
(446,-75,cs),
(535,-75,o),
(621,-58,o),
(690,-29,c),
(690,83,l),
(610,54,o),
(513,36,o),
(439,36,cs),
(262,36,o),
(173,138,o),
(173,296,cs),
(173,481,o),
(277,614,o),
(475,614,cs),
(643,614,o),
(728,519,o),
(728,370,cs),
(728,289,o),
(707,220,o),
(671,220,cs),
(657,220,o),
(647,231,o),
(647,262,cs),
(647,280,o),
(648,301,o),
(648,308,c),
(658,514,l),
(616,529,o),
(549,544,o),
(484,544,cs),
(321,544,o),
(234,444,o),
(234,312,cs),
(234,193,o),
(295,114,o),
(419,114,cs),
(474,114,o),
(516,139,o),
(546,172,c),
(553,172,l),
(578,134,o),
(624,114,o),
(672,114,cs),
(792,114,o),
(857,244,o),
(857,369,c)
);
},
{
closed = 1;
nodes = (
(371,380,o),
(406,437,o),
(486,437,cs),
(498,437,o),
(506,436,o),
(519,434,c),
(514,358,ls),
(508,260,o),
(489,220,o),
(436,220,cs),
(397,220,o),
(371,248,o),
(371,313,cs)
);
}
);
width = 897;
},
{
layerId = "98E204A9-1C79-49C7-AB3E-40A925F56409";
shapes = (
{
closed = 1;
nodes = (
(733,583,o),
(597,723,o),
(396,723,cs),
(182,723,o),
(34,558,o),
(34,298,cs),
(34,65,o),
(165,-75,o),
(396,-75,cs),
(472,-75,o),
(540,-62,o),
(601,-34,c),
(601,68,l),
(533,39,o),
(457,21,o),
(394,21,cs),
(232,21,o),
(149,125,o),
(149,302,cs),
(149,499,o),
(238,628,o),
(396,628,cs),
(545,628,o),
(620,521,o),
(620,370,cs),
(620,249,o),
(597,208,o),
(566,208,cs),
(549,208,o),
(539,223,o),
(539,250,cs),
(539,269,o),
(540,289,o),
(541,308,cs),
(549,514,l),
(506,533,o),
(452,544,o),
(408,544,cs),
(288,544,o),
(212,448,o),
(212,312,cs),
(212,187,o),
(265,114,o),
(360,114,cs),
(400,114,o),
(434,136,o),
(461,182,c),
(468,182,l),
(484,138,o),
(521,114,o),
(573,114,cs),
(664,114,o),
(733,221,o),
(733,369,cs)
);
},
{
closed = 1;
nodes = (
(332,397,o),
(362,449,o),
(407,449,cs),
(414,449,o),
(421,448,o),
(430,445,c),
(426,361,ls),
(420,245,o),
(407,208,o),
(375,208,cs),
(349,208,o),
(332,239,o),
(332,311,cs)
);
}
);
width = 767;
},
{
layerId = "9FF96064-8718-4A86-A5C8-73C592101F67";
shapes = (
{
closed = 1;
nodes = (
(841,578,o),
(690,714,o),
(482,714,cs),
(218,714,o),
(58,529,o),
(58,280,cs),
(58,48,o),
(197,-89,o),
(433,-89,cs),
(519,-89,o),
(591,-72,o),
(648,-48,c),
(648,20,l),
(591,-2,o),
(514,-23,o),
(433,-23,cs),
(237,-23,o),
(130,86,o),
(130,283,cs),
(130,495,o),
(254,648,o),
(482,648,cs),
(648,648,o),
(771,543,o),
(771,358,cs),
(771,255,o),
(736,171,o),
(674,171,cs),
(641,171,o),
(612,187,o),
(612,257,cs),
(612,261,o),
(612,269,o),
(613,293,cs),
(623,496,l),
(591,508,o),
(529,520,o),
(470,520,cs),
(340,520,o),
(258,426,o),
(258,295,cs),
(258,183,o),
(315,109,o),
(417,109,cs),
(488,109,o),
(534,147,o),
(558,196,c),
(563,196,l),
(571,150,o),
(607,109,o),
(668,109,cs),
(784,109,o),
(841,235,o),
(841,357,cs)
);
},
{
closed = 1;
nodes = (
(336,375,o),
(372,457,o),
(471,457,cs),
(499,457,o),
(527,452,o),
(545,447,c),
(539,322,ls),
(534,233,o),
(504,171,o),
(430,171,cs),
(372,171,o),
(336,207,o),
(336,293,cs)
);
}
);
width = 899;
},
{
layerId = "36F3C8CB-53EE-4548-BFDE-2C03212BACAA";
shapes = (
{
closed = 1;
nodes = (
(606,559,o),
(509,720,o),
(343,720,cs),
(167,722,o),
(48,552,o),
(48,287,cs),
(48,49,o),
(144,-84,o),
(318,-84,cs),
(375,-84,o),
(417,-73,o),
(459,-51,c),
(459,12,l),
(422,-10,o),
(370,-26,o),
(320,-26,cs),
(176,-26,o),
(114,118,o),
(114,294,cs),
(114,463,o),
(177,662,o),
(343,662,cs),
(462,663,o),
(539,540,o),
(539,364,cs),
(539,232,o),
(519,174,o),
(479,174,cs),
(452,174,o),
(436,194,o),
(436,244,cs),
(436,256,o),
(437,279,o),
(438,299,cs),
(446,507,l),
(415,519,o),
(381,525,o),
(348,525,cs),
(252,525,o),
(200,443,o),
(200,294,cs),
(200,179,o),
(239,113,o),
(307,113,cs),
(349,113,o),
(376,142,o),
(391,204,c),
(396,204,l),
(402,146,o),
(428,113,o),
(481,113,cs),
(560,113,o),
(606,202,o),
(606,362,cs)
);
},
{
closed = 1;
nodes = (
(268,408,o),
(296,470,o),
(343,470,cs),
(356,470,o),
(366,469,o),
(375,466,c),
(368,336,ls),
(362,222,o),
(347,174,o),
(317,174,cs),
(285,174,o),
(268,213,o),
(268,292,cs)
);
}
);
width = 651;
},
{
layerId = "AB666A95-3AF9-4DE8-B258-097FFCFE8A59";
shapes = (
{
closed = 1;
nodes = (
(826,569,o),
(690,706,o),
(467,706,cs),
(222,706,o),
(52,556,o),
(52,284,cs),
(52,49,o),
(190,-100,o),
(414,-100,cs),
(490,-100,o),
(558,-86,o),
(616,-62,c),
(616,-34,l),
(552,-61,o),
(481,-75,o),
(414,-75,cs),
(204,-75,o),
(79,62,o),
(79,284,cs),
(79,539,o),
(240,681,o),
(467,681,cs),
(683,681,o),
(799,549,o),
(799,351,cs),
(799,223,o),
(759,132,o),
(670,132,cs),
(609,132,o),
(587,174,o),
(587,246,cs),
(587,280,o),
(590,317,o),
(591,341,cs),
(598,486,l),
(560,499,o),
(518,506,o),
(470,506,cs),
(344,506,o),
(258,412,o),
(258,284,cs),
(258,169,o),
(313,107,o),
(411,107,cs),
(475,107,o),
(535,137,o),
(565,212,c),
(566,212,l),
(568,144,o),
(610,107,o),
(670,107,cs),
(776,107,o),
(826,214,o),
(826,351,cs)
);
},
{
closed = 1;
nodes = (
(285,405,o),
(361,481,o),
(470,481,cs),
(511,481,o),
(543,476,o),
(572,466,c),
(564,316,ls),
(557,189,o),
(504,132,o),
(411,132,cs),
(326,132,o),
(285,188,o),
(285,284,cs)
);
}
);
width = 878;
},
{
layerId = "029FEF0C-5FA4-4A3E-AC23-838A1147A554";
shapes = (
{
closed = 1;
nodes = (
(553,568,o),
(466,718,o),
(314,718,cs),
(158,718,o),
(54,560,o),
(54,293,cs),
(54,61,o),
(132,-92,o),
(292,-92,cs),
(335,-92,o),
(377,-81,o),
(403,-63,c),
(403,-36,l),
(379,-53,o),
(331,-66,o),
(290,-66,cs),
(155,-66,o),
(81,69,o),
(81,292,cs),
(81,537,o),
(170,693,o),
(313,693,cs),
(445,693,o),
(526,562,o),
(526,341,cs),
(526,196,o),
(491,138,o),
(443,138,cs),
(404,138,o),
(384,177,o),
(384,239,cs),
(384,258,o),
(386,293,o),
(387,313,cs),
(395,499,l),
(382,504,o),
(353,513,o),
(327,513,cs),
(251,513,o),
(197,435,o),
(197,288,cs),
(197,169,o),
(232,112,o),
(285,112,cs),
(322,112,o),
(352,140,o),
(366,219,c),
(368,219,l),
(368,155,o),
(390,112,o),
(443,112,cs),
(515,112,o),
(553,191,o),
(553,341,cs)
);
},
{
closed = 1;
nodes = (
(223,418,o),
(268,489,o),
(327,489,cs),
(341,489,o),
(356,485,o),
(368,481,c),
(360,325,ls),
(353,189,o),
(323,138,o),
(286,138,cs),
(246,138,o),
(223,194,o),
(223,288,cs)
);
}
);
width = 603;
}
);
script = "";
subCategory = Other;
unicode = 64;
}
{
category = Letter;
glyphname = A;
kernLeft = A.right;
kernRight = A.left;
layers = (
{
anchors = (
{
name = bottom;
pos = (363,0);
},
{
name = center;
pos = (363,358);
},
{
name = top;
pos = (363,714);
},
{
name = topright;
pos = (636,714);
}
);
layerId = "0A718E2F-231D-484E-9433-16A5230D2CE8";
shapes = (
{
closed = 1;
nodes = (
(726,0,l),
(490,717,l),
(233,717,l),
(0,0,l),
(212,0,l),
(248,134,l),
(480,134,l),
(515,0,l)
);
},
{
closed = 1;
nodes = (
(440,292,l),
(288,292,l),
(319,409,ls),
(331,456,o),
(354,550,o),
(363,599,c),
(372,550,o),
(399,447,o),
(409,409,cs)
);
}
);
width = 726;
},
{
anchors = (
{
name = bottom;
pos = (288,0);
},
{
name = center;
pos = (287,357);
},
{
name = top;
pos = (288,714);
},
{
name = topright;
pos = (526,714);
}
);
layerId = "98E204A9-1C79-49C7-AB3E-40A925F56409";
shapes = (
{
closed = 1;
nodes = (
(574,0,l),
(398,714,l),
(174,714,l),
(0,0,l),
(184,0,l),
(211,139,l),
(365,139,l),
(392,0,l)
);
},
{
closed = 1;
nodes = (
(339,285,l),
(236,285,l),
(266,447,ls),
(276,500,o),
(284,551,o),
(288,589,c),
(293,549,o),
(300,498,o),
(310,445,cs)
);
}
);
width = 574;
},
{
anchors = (
{
name = bottom;
pos = (324,0);
},
{
name = center;
pos = (319,358);
},
{
name = top;
pos = (318,714);
},
{
name = topright;
pos = (519,714);
}
);
layerId = "9FF96064-8718-4A86-A5C8-73C592101F67";
shapes = (
{
closed = 1;
nodes = (
(638,0,l),
(360,717,l),
(279,717,l),
(0,0,l),
(91,0,l),
(176,221,l),
(459,221,l),
(545,0,l)
);
},
{
closed = 1;
nodes = (
(432,301,l),
(206,301,l),
(287,517,ls),
(295,540,o),
(308,583,o),
(318,624,c),
(325,599,o),
(346,533,o),
(352,517,cs)
);
}
);
width = 639;
},
{
anchors = (
{
name = bottom;
pos = (345,0);
},
{
name = center;
pos = (345,358);
},
{
name = top;
pos = (345,714);
},
{
name = topright;
pos = (590,714);
}
);
layerId = "134B12F2-BF5D-48E3-8003-C7502B438C7E";
shapes = (
{
closed = 1;
nodes = (
(690,0,l),
(437,717,l),
(252,717,l),
(0,0,l),
(163,0,l),
(215,170,l),
(475,170,l),
(527,0,l)
);
},
{
closed = 1;
nodes = (
(439,297,l),
(253,297,l),
(304,463,ls),
(311,485,o),
(335,566,o),
(345,606,c),
(355,566,o),
(377,496,o),
(387,463,cs)
);
}
);
width = 690;
},
{
anchors = (
{
name = bottom;
pos = (220,0);
},
{
name = center;
pos = (225,357);
},
{
name = top;
pos = (224,714);
},
{
name = topright;
pos = (390,714);
}
);
layerId = "36F3C8CB-53EE-4548-BFDE-2C03212BACAA";
shapes = (
{
closed = 1;
nodes = (
(450,0,l),
(274,714,l),
(173,714,l),
(0,0,l),
(90,0,l),
(142,223,l),
(309,223,l),
(361,0,l)
);
},
{
closed = 1;
nodes = (
(293,301,l),
(155,301,l),
(206,536,ls),
(214,571,o),
(220,607,o),
(223,638,c),
(227,607,o),
(233,572,o),
(240,535,c)
);
}
);
width = 450;
},
{
anchors = (
{
name = bottom;
pos = (261,0);
},
{
name = center;
pos = (263,357);
},
{
name = top;
pos = (263,714);
},
{
name = topright;
pos = (466,714);
}
);
layerId = "43B45EC1-5522-4B1A-B0C7-88628E50A583";
shapes = (
{
closed = 1;
nodes = (
(526,0,l),
(350,714,l),
(173,714,l),
(0,0,l),
(147,0,l),
(184,172,l),
(343,172,l),
(380,0,l)
);
},
{
closed = 1;
nodes = (
(322,291,l),
(205,291,l),
(243,482,ls),
(253,528,o),
(260,573,o),
(263,608,c),
(268,572,o),
(275,527,o),
(283,480,c)
);
}
);
width = 526;
},
{
anchors = (
{
name = bottom;
pos = (289,0);
},
{
name = center;
pos = (288,358);
},
{
name = top;
pos = (289,714);
},
{
name = topright;
pos = (557,714);
}
);
layerId = "AB666A95-3AF9-4DE8-B258-097FFCFE8A59";
shapes = (
{
closed = 1;
nodes = (
(577,0,l),
(307,716,l),
(282,716,l),
(0,0,l),
(28,0,l),
(135,271,l),
(445,271,l),
(549,0,l)
);
},
{
closed = 1;
nodes = (
(435,296,l),
(144,296,l),
(260,593,ls),
(270,620,o),
(283,652,o),
(293,682,c),
(306,645,o),
(317,617,o),
(325,594,cs)
);
}
);
width = 577;
},
{
anchors = (
{
name = bottom;
pos = (189,0);
},
{
name = center;
pos = (188,357);
},
{
name = top;
pos = (189,714);
},
{
name = topright;
pos = (357,714);
}
);
layerId = "029FEF0C-5FA4-4A3E-AC23-838A1147A554";
shapes = (
{
closed = 1;
nodes = (
(377,0,l),
(208,714,l),
(170,714,l),
(0,0,l),
(26,0,l),
(94,281,l),
(284,281,l),
(351,0,l)
);
},
{
closed = 1;
nodes = (
(278,306,l),
(100,306,l),
(170,612,ls),
(178,646,o),
(183,666,o),
(189,695,c),
(195,666,o),
(200,645,o),
(208,612,cs)
);
}
);
width = 377;
}
);
script = latin;
subCategory = Uppercase;
unicode = 65;
}
{
category = Letter;
glyphname = B;
layers = (
{
anchors = (
{
name = bottom;
pos = (340,0);
},
{
name = center;
pos = (352,357);
},
{
name = top;
pos = (339,714);
},
{
name = topright;
pos = (654,714);
}
);
layerId = "0A718E2F-231D-484E-9433-16A5230D2CE8";
shapes = (
{
closed = 1;
nodes = (
(77,714,l),
(77,0,l),
(355,0,ls),
(523,0,o),
(627,79,o),
(627,209,cs),
(627,323,o),
(559,359,o),
(501,374,c),
(501,379,l),
(554,392,o),
(613,442,o),
(613,536,cs),
(613,651,o),
(532,714,o),
(326,714,cs)
);
},
{
closed = 1;
nodes = (
(270,440,l),
(270,568,l),
(324,568,ls),
(386,568,o),
(415,547,o),
(415,508,cs),
(415,470,o),
(392,440,o),
(328,440,cs)
);
},
{
closed = 1;
nodes = (
(334,299,l),
(406,299,o),
(428,263,o),
(428,225,cs),
(428,181,o),
(405,149,o),
(338,149,cs),
(270,149,l),
(270,299,l)
);
}
);
width = 674;
},
{
anchors = (
{
name = bottom;
pos = (283,0);
},
{
name = center;
pos = (287,357);
},
{
name = top;
pos = (282,714);
},
{
name = topright;
pos = (538,714);
}
);
layerId = "98E204A9-1C79-49C7-AB3E-40A925F56409";
shapes = (
{
closed = 1;
nodes = (
(59,714,l),
(59,0,l),
(286,0,ls),
(428,0,o),
(516,80,o),
(516,209,cs),
(516,296,o),
(485,351,o),
(411,374,c),
(411,379,l),
(467,396,o),
(504,457,o),
(504,536,cs),
(504,658,o),
(427,714,o),
(266,714,cs)
);
},
{
closed = 1;
nodes = (
(229,436,l),
(229,576,l),
(263,576,ls),
(309,576,o),
(332,554,o),
(332,510,cs),
(332,461,o),
(308,436,o),
(266,436,cs)
);
},
{
closed = 1;
nodes = (
(271,303,l),
(317,303,o),
(342,274,o),
(342,223,cs),
(342,168,o),
(319,141,o),
(273,141,cs),
(229,141,l),
(229,303,l)
);
}
);
width = 558;
},
{
anchors = (
{
name = bottom;
pos = (315,0);
},
{
name = center;
pos = (346,357);
},
{
name = top;
pos = (322,714);
},
{
name = topright;
pos = (630,714);
}
);
layerId = "9FF96064-8718-4A86-A5C8-73C592101F67";
shapes = (
{
closed = 1;
nodes = (
(97,714,l),
(97,0,l),
(348,0,ls),
(501,0,o),
(596,73,o),
(596,203,cs),
(596,314,o),
(526,359,o),
(436,374,c),
(436,379,l),
(524,395,o),
(572,453,o),
(572,537,cs),
(572,667,o),
(479,714,o),
(301,714,cs)
);
},
{
closed = 1;
nodes = (
(187,410,l),
(187,637,l),
(305,637,ls),
(426,637,o),
(479,605,o),
(479,527,cs),
(479,450,o),
(441,410,o),
(319,410,cs)
);
},
{
closed = 1;
nodes = (
(324,335,l),
(456,335,o),
(500,285,o),
(500,210,cs),
(500,130,o),
(457,76,o),
(331,76,cs),
(187,76,l),
(187,335,l)
);
}
);
width = 650;
},
{
anchors = (
{
name = bottom;
pos = (247,0);
},
{
name = center;
pos = (255,357);
},
{
name = top;
pos = (246,714);
},
{
name = topright;
pos = (457,714);
}
);
layerId = "36F3C8CB-53EE-4548-BFDE-2C03212BACAA";
shapes = (
{
closed = 1;
nodes = (
(73,714,l),
(73,0,l),
(256,0,ls),
(373,0,o),
(438,81,o),
(438,205,cs),
(438,301,o),
(401,355,o),
(321,374,c),
(321,378,l),
(388,393,o),
(424,450,o),
(424,542,cs),
(424,657,o),
(357,714,o),
(231,714,cs)
);
},
{
closed = 1;
nodes = (
(157,408,l),
(157,642,l),
(230,642,ls),
(301,642,o),
(338,604,o),
(338,534,cs),
(338,450,o),
(306,408,o),
(231,408,cs)
);
},
{
closed = 1;
nodes = (
(237,337,l),
(309,337,o),
(351,292,o),
(351,209,cs),
(351,118,o),
(316,73,o),
(247,73,cs),
(157,73,l),
(157,337,l)
);
}
);
width = 477;
},
{
anchors = (
{
name = bottom;
pos = (307,0);
},
{
name = center;
pos = (330,357);
},
{
name = top;
pos = (307,714);
},
{
name = topright;
pos = (593,714);
}
);
layerId = "AB666A95-3AF9-4DE8-B258-097FFCFE8A59";
shapes = (
{
closed = 1;
nodes = (
(103,714,l),
(103,0,l),
(303,0,ls),
(449,0,o),
(557,56,o),
(557,203,cs),
(557,293,o),
(516,357,o),
(398,375,c),
(398,377,l),
(490,393,o),
(539,461,o),
(539,542,cs),
(539,657,o),
(469,714,o),
(294,714,cs)
);
},
{
closed = 1;
nodes = (
(129,388,l),
(129,689,l),
(291,689,ls),
(446,689,o),
(512,646,o),
(512,541,cs),
(512,440,o),
(444,388,o),
(303,388,cs)
);
},
{
closed = 1;
nodes = (
(300,363,l),
(443,363,o),
(530,325,o),
(530,202,cs),
(530,79,o),
(447,25,o),
(311,25,cs),
(129,25,l),
(129,363,l)
);
}
);
width = 613;
},
{
anchors = (
{
name = bottom;
pos = (215,0);
},
{
name = center;
pos = (234,357);
},
{
name = top;
pos = (215,714);
},
{
name = topright;
pos = (410,714);
}
);
layerId = "029FEF0C-5FA4-4A3E-AC23-838A1147A554";
shapes = (
{
closed = 1;
nodes = (
(78,714,l),
(78,0,l),
(224,0,ls),
(332,0,o),
(391,75,o),
(391,197,cs),
(391,293,o),
(355,356,o),
(274,376,c),
(274,377,l),
(339,390,o),
(376,458,o),
(376,550,cs),
(376,659,o),
(324,714,o),
(217,714,cs)
);
},
{
closed = 1;
nodes = (
(104,388,l),
(104,689,l),
(203,689,ls),
(313,689,o),
(349,644,o),
(349,550,cs),
(349,441,o),
(301,388,o),
(210,388,cs)
);
},
{
closed = 1;
nodes = (
(213,363,ls),
(301,363,o),
(364,322,o),
(364,198,cs),
(364,81,o),
(308,25,o),
(217,25,cs),
(104,25,l),
(104,363,l)
);
}
);
width = 430;
}
);
script = latin;
subCategory = Uppercase;
unicode = 66;
}
{
category = Letter;
glyphname = C;
kernLeft = O.right;
kernRight = C.left;
layers = (
{
anchors = (
{
name = bottom;
pos = (379,0);
},
{
name = center;
pos = (334,357);
},
{
name = top;
pos = (365,714);
},
{
name = topright;
pos = (629,714);
}
);
layerId = "0A718E2F-231D-484E-9433-16A5230D2CE8";
shapes = (
{
closed = 1;
nodes = (
(455,566,o),
(507,547,o),
(559,522,c),
(618,674,l),
(545,709,o),
(466,724,o),
(397,724,cs),
(174,724,o),
(51,571,o),
(51,355,cs),
(51,138,o),
(152,-10,o),
(385,-10,cs),
(459,-10,o),
(524,2,o),
(587,30,c),
(587,193,l),
(527,168,o),
(469,148,o),
(406,148,cs),
(300,148,o),
(249,219,o),
(249,354,cs),
(249,487,o),
(304,566,o),
(395,566,cs)
);
}
);
width = 649;
},
{
anchors = (
{
name = bottom;
pos = (283,0);
},
{
name = center;
pos = (261,357);
},
{
name = top;
pos = (293,714);
},
{
name = topright;
pos = (487,714);
}
);
layerId = "98E204A9-1C79-49C7-AB3E-40A925F56409";
shapes = (
{
closed = 1;
nodes = (
(363,578,o),
(400,561,o),
(438,534,c),
(483,674,l),
(426,708,o),
(368,724,o),
(305,724,cs),
(140,724,o),
(39,575,o),
(39,355,cs),
(39,119,o),
(131,-10,o),
(301,-10,cs),
(360,-10,o),
(413,3,o),
(459,30,c),
(459,182,l),
(416,157,o),
(374,137,o),
(328,137,cs),
(253,137,o),
(216,209,o),
(216,354,cs),
(216,493,o),
(253,578,o),
(320,578,cs)
);
}
);
width = 507;
},
{
anchors = (
{
name = bottom;
pos = (372,0);
},
{
name = center;
pos = (331,357);
},
{
name = top;
pos = (380,714);
},
{
name = topright;
pos = (612,714);
}
);
layerId = "9FF96064-8718-4A86-A5C8-73C592101F67";
shapes = (
{
closed = 1;
nodes = (
(467,645,o),
(521,626,o),
(565,606,c),
(601,682,l),
(547,709,o),
(477,724,o),
(404,724,cs),
(183,724,o),
(61,574,o),
(61,358,cs),
(61,133,o),
(170,-10,o),
(389,-10,cs),
(468,-10,o),
(520,-1,o),
(573,19,c),
(573,97,l),
(519,81,o),
(464,69,o),
(402,69,cs),
(238,69,o),
(156,180,o),
(156,357,cs),
(156,536,o),
(250,645,o),
(403,645,cs)
);
}
);
width = 632;
},
{
anchors = (
{
name = bottom;
pos = (370,0);
},
{
name = center;
pos = (330,357);
},
{
name = top;
pos = (377,714);
},
{
name = topright;
pos = (617,714);
}
);
layerId = "134B12F2-BF5D-48E3-8003-C7502B438C7E";
shapes = (
{
closed = 1;
nodes = (
(445,598,o),
(500,576,o),
(553,551,c),
(602,674,l),
(537,705,o),
(464,724,o),
(393,724,cs),
(177,724,o),
(58,572,o),
(58,356,cs),
(58,136,o),
(158,-10,o),
(379,-10,cs),
(455,-10,o),
(512,1,o),
(575,27,c),
(575,154,l),
(507,130,o),
(451,116,o),
(393,116,cs),
(268,116,o),
(214,203,o),
(214,355,cs),
(214,505,o),
(277,598,o),
(393,598,cs)
);
}
);
width = 637;
},
{
anchors = (
{
name = bottom;
pos = (267,0);
},
{
name = center;
pos = (236,357);
},
{
name = top;
pos = (277,714);
},
{
name = topright;
pos = (426,714);
}
);
layerId = "36F3C8CB-53EE-4548-BFDE-2C03212BACAA";
shapes = (
{
closed = 1;
nodes = (
(329,649,o),
(362,637,o),
(392,618,c),
(422,689,l),
(381,713,o),
(337,725,o),
(289,725,cs),
(128,725,o),
(50,561,o),
(50,358,cs),
(50,127,o),
(141,-10,o),
(287,-10,c),
(333,-10,o),
(372,-1,o),
(404,17,c),
(404,93,l),
(372,77,o),
(337,66,o),
(297,66,cs),
(199,66,o),
(137,176,o),
(137,357,cs),
(137,512,o),
(182,649,o),
(292,649,cs)
);
}
);
width = 446;
},
{
anchors = (
{
name = bottom;
pos = (277,0);
},
{
name = center;
pos = (251,357);
},
{
name = top;
pos = (287,714);
},
{
name = topright;
pos = (463,714);
}
);
layerId = "43B45EC1-5522-4B1A-B0C7-88628E50A583";
shapes = (
{
closed = 1;
nodes = (
(350,606,o),
(385,591,o),
(420,567,c),
(459,680,l),
(409,710,o),
(356,724,o),
(299,724,cs),
(135,724,o),
(43,569,o),
(43,356,c),
(43,122,o),
(135,-10,o),
(296,-10,c),
(350,-10,o),
(397,2,o),
(438,25,c),
(438,147,l),
(399,126,o),
(360,109,o),
(316,109,cs),
(232,109,o),
(185,196,o),
(185,355,c),
(185,500,o),
(225,606,o),
(309,606,cs)
);
}
);
width = 483;
},
{
anchors = (
{
name = bottom;
pos = (367,0);
},
{
name = center;
pos = (323,357);
},
{
name = top;
pos = (387,714);
},
{
name = topright;
pos = (594,714);
}
);
layerId = "AB666A95-3AF9-4DE8-B258-097FFCFE8A59";
shapes = (
{
closed = 1;
nodes = (
(460,699,o),
(516,692,o),
(573,662,c),
(583,687,l),
(528,712,o),
(470,724,o),
(405,724,cs),
(191,724,o),
(63,568,o),
(63,360,cs),
(63,139,o),
(174,-10,o),
(386,-10,cs),
(465,-10,o),
(526,4,o),
(570,21,c),
(570,44,l),
(522,27,o),
(463,15,o),
(386,15,cs),
(189,15,o),
(90,153,o),
(90,360,cs),
(90,555,o),
(204,699,o),
(405,699,cs)
);
}
);
width = 614;
},
{
anchors = (
{
name = bottom;
pos = (258,0);
},
{
name = center;
pos = (222,357);
},
{
name = top;
pos = (268,714);
},
{
name = topright;
pos = (395,714);
}
);
layerId = "029FEF0C-5FA4-4A3E-AC23-838A1147A554";
shapes = (
{
closed = 1;
nodes = (
(312,699,o),
(346,693,o),
(378,673,c),
(391,696,l),
(357,715,o),
(323,724,o),
(285,724,cs),
(117,724,o),
(54,548,o),
(54,358,cs),
(54,131,o),
(147,-10,o),
(289,-10,cs),
(327,-10,o),
(365,1,o),
(390,16,c),
(390,43,l),
(370,31,o),
(334,15,o),
(289,15,cs),
(161,15,o),
(81,154,o),
(81,357,cs),
(81,529,o),
(136,699,o),
(285,699,cs)
);
}
);
width = 415;
}
);
script = latin;
subCategory = Uppercase;
unicode = 67;
}
{
category = Letter;
glyphname = D;
kernRight = O.left;
layers = (
{
anchors = (
{
name = bottom;
pos = (359,0);
},
{
name = center;
pos = (367,357);
},
{
name = top;
pos = (367,714);
},
{
name = topright;
pos = (714,714);
}
);
layerId = "0A718E2F-231D-484E-9433-16A5230D2CE8";
shapes = (
{
closed = 1;
nodes = (
(683,593,o),
(554,714,o),
(324,714,cs),
(77,714,l),
(77,0,l),
(308,0,ls),
(535,0,o),
(683,123,o),
(683,372,cs)
);
},
{
closed = 1;
nodes = (
(483,225,o),
(430,158,o),
(313,158,cs),
(270,158,l),
(270,558,l),
(326,558,ls),
(431,558,o),
(483,495,o),
(483,365,cs)
);
}
);
width = 734;
},
{
anchors = (
{
name = bottom;
pos = (273,0);
},
{
name = center;
pos = (290,360);
},
{
name = top;
pos = (290,714);
},
{
name = topright;
pos = (567,714);
}
);
layerId = "98E204A9-1C79-49C7-AB3E-40A925F56409";
shapes = (
{
closed = 1;
nodes = (
(548,593,o),
(442,714,o),
(255,714,cs),
(59,714,l),
(59,0,l),
(243,0,ls),
(437,0,o),
(548,135,o),
(548,372,cs)
);
},
{
closed = 1;
nodes = (
(372,216,o),
(332,148,o),
(242,148,cs),
(229,148,l),
(229,567,l),
(252,567,ls),
(332,567,o),
(372,510,o),
(372,365,cs)
);
}
);
width = 587;
},
{
anchors = (
{
name = bottom;
pos = (342,0);
},
{
name = center;
pos = (365,357);
},
{
name = top;
pos = (361,714);
},
{
name = topright;
pos = (710,714);
}
);
layerId = "9FF96064-8718-4A86-A5C8-73C592101F67";
shapes = (
{
closed = 1;
nodes = (
(669,593,o),
(532,714,o),
(317,714,cs),
(97,714,l),
(97,0,l),
(296,0,ls),
(531,0,o),
(669,123,o),
(669,364,cs)
);
},
{
closed = 1;
nodes = (
(574,173,o),
(477,77,o),
(284,77,cs),
(187,77,l),
(187,637,l),
(304,637,ls),
(476,637,o),
(574,551,o),
(574,361,cs)
);
}
);
width = 730;
},
{
anchors = (
{
name = bottom;
pos = (239,0);
},
{
name = center;
pos = (261,360);
},
{
name = top;
pos = (253,714);
},
{
name = topright;
pos = (496,714);
}
);
layerId = "36F3C8CB-53EE-4548-BFDE-2C03212BACAA";
shapes = (
{
closed = 1;
nodes = (
(467,593,o),
(382,714,o),
(223,714,cs),
(73,714,l),
(73,0,l),
(217,0,ls),
(381,0,o),
(467,125,o),
(467,366,cs)
);
},
{
closed = 1;
nodes = (
(379,172,o),
(328,75,o),
(214,75,cs),
(157,75,l),
(157,639,l),
(220,639,ls),
(325,639,o),
(379,546,o),
(379,362,cs)
);
}
);
width = 516;
},
{
anchors = (
{
name = bottom;
pos = (346,0);
},
{
name = center;
pos = (346,357);
},
{
name = top;
pos = (346,714);
},
{
name = topright;
pos = (672,714);
}
);
layerId = "AB666A95-3AF9-4DE8-B258-097FFCFE8A59";
shapes = (
{
closed = 1;
nodes = (
(628,591,o),
(516,714,o),
(280,714,cs),
(103,714,l),
(103,0,l),
(257,0,ls),
(507,0,o),
(628,125,o),
(628,364,cs)
);
},
{
closed = 1;
nodes = (
(601,136,o),
(489,25,o),
(260,25,cs),
(129,25,l),
(129,689,l),
(270,689,ls),
(502,689,o),
(601,575,o),
(601,363,cs)
);
}
);
width = 692;
},
{
anchors = (
{
name = bottom;
pos = (236,0);
},
{
name = center;
pos = (236,357);
},
{
name = top;
pos = (236,714);
},
{
name = topright;
pos = (452,714);
}
);
layerId = "029FEF0C-5FA4-4A3E-AC23-838A1147A554";
shapes = (
{
closed = 1;
nodes = (
(418,596,o),
(349,714,o),
(190,714,cs),
(78,714,l),
(78,0,l),
(189,0,ls),
(349,0,o),
(418,124,o),
(418,364,cs)
);
},
{
closed = 1;
nodes = (
(391,141,o),
(331,25,o),
(187,25,cs),
(104,25,l),
(104,689,l),
(188,689,ls),
(339,689,o),
(391,570,o),
(391,362,cs)
);
}
);
width = 472;
}
);
script = latin;
subCategory = Uppercase;
unicode = 68;
}
{
category = Letter;
color = 10;
glyphname = F;
layers = (
{
anchors = (
{
name = bottom;
pos = (270,0);
},
{
name = center;
pos = (288,357);
},
{
name = top;
pos = (288,714);
},
{
name = topright;
pos = (519,714);
}
);
layerId = "0A718E2F-231D-484E-9433-16A5230D2CE8";
shapes = (
{
closed = 1;
nodes = (
(267,268,l),
(481,268,l),
(481,423,l),
(267,423,l),
(267,559,l),
(499,559,l),
(499,714,l),
(77,714,l),
(77,0,l),
(267,0,l)
);
}
);
width = 539;
},
{
anchors = (
{
name = bottom;
pos = (218,0);
},
{
name = center;
pos = (230,357);
},
{
name = top;
pos = (231,714);
},
{
name = topright;
pos = (416,714);
}
);
layerId = "98E204A9-1C79-49C7-AB3E-40A925F56409";
shapes = (
{
closed = 1;
nodes = (
(229,273,l),
(388,273,l),
(388,417,l),
(229,417,l),
(229,570,l),
(401,570,l),
(401,714,l),
(59,714,l),
(59,0,l),
(229,0,l)
);
}
);
width = 436;
},
{
anchors = (
{
name = bottom;
pos = (260,0);
},
{
name = center;
pos = (296,357);
},
{
name = top;
pos = (298,714);
},
{
name = topright;
pos = (499,714);
}
);
layerId = "9FF96064-8718-4A86-A5C8-73C592101F67";
shapes = (
{
closed = 1;
nodes = (
(187,303,l),
(477,303,l),
(477,382,l),
(187,382,l),
(187,635,l),
(496,635,l),
(496,714,l),
(97,714,l),
(97,0,l),
(187,0,l)
);
}
);
width = 519;
},
{
anchors = (
{
name = bottom;
pos = (275,0);
},
{
name = center;
pos = (294,357);
},
{
name = top;
pos = (298,714);
},
{
name = topright;
pos = (529,714);
}
);
associatedMasterId = "9FF96064-8718-4A86-A5C8-73C592101F67";
attr = {
coordinates = (
151,
100
);
};
background = {
shapes = (
{
closed = 1;
nodes = (
(235.8,281.65,l),
(479.44,281.65,l),
(479.44,407.01,l),
(235.8,407.01,l),
(235.8,588.64,l),
(497.83,588.64,l),
(497.83,714,l),
(84.8,714,l),
(84.8,0,l),
(235.8,0,l)
);
}
);
};
layerId = "ac67225a-4045-44c0-8e48-8195db0b5d09";
name = "SemiBold (intermediate)";
shapes = (
{
closed = 1;
nodes = (
(239,282,l),
(481,282,l),
(481,406,l),
(239,406,l),
(239,590,l),
(499,590,l),
(499,714,l),
(90,714,l),
(90,0,l),
(239,0,l)
);
}
);
width = 549;
},
{
anchors = (
{
name = bottom;
pos = (190,0);
},
{
name = center;
pos = (215,357);
},
{
name = top;
pos = (220,714);
},
{
name = topright;
pos = (360,714);
}
);
layerId = "36F3C8CB-53EE-4548-BFDE-2C03212BACAA";
shapes = (
{
closed = 1;
nodes = (
(157,305,l),
(345,305,l),
(345,381,l),
(157,381,l),
(157,639,l),
(357,639,l),
(357,714,l),
(73,714,l),
(73,0,l),
(157,0,l)
);
}
);
width = 380;
},
{
anchors = (
{
name = bottom;
pos = (246,0);
},
{
name = center;
pos = (296,357);
},
{
name = top;
pos = (296,714);
},
{
name = topright;
pos = (472,714);
}
);
layerId = "AB666A95-3AF9-4DE8-B258-097FFCFE8A59";
shapes = (
{
closed = 1;
nodes = (
(129,329,l),
(470,329,l),
(470,354,l),
(129,354,l),
(129,689,l),
(489,689,l),
(489,714,l),
(103,714,l),
(103,0,l),
(129,0,l)
);
}
);
width = 492;
},
{
anchors = (
{
name = bottom;
pos = (176,0);
},
{
name = center;
pos = (206,357);
},
{
name = top;
pos = (206,714);
},
{
name = topright;
pos = (332,714);
}
);
layerId = "029FEF0C-5FA4-4A3E-AC23-838A1147A554";
shapes = (
{
closed = 1;
nodes = (
(104,329,l),
(322,329,l),
(322,354,l),
(104,354,l),
(104,689,l),
(334,689,l),
(334,714,l),
(78,714,l),
(78,0,l),
(104,0,l)
);
}
);
width = 352;
}
);
script = latin;
subCategory = Uppercase;
unicode = 70;
}
{
category = Letter;
glyphname = G;
kernLeft = O.right;
layers = (
{
anchors = (
{
name = bottom;
pos = (380,0);
},
{
name = center;
pos = (361,357);
},
{
name = top;
pos = (401,714);
},
{
name = topright;
pos = (720,714);
}
);
layerId = "0A718E2F-231D-484E-9433-16A5230D2CE8";
shapes = (
{
closed = 1;
nodes = (
(364,269,l),
(491,269,l),
(491,157,l),
(474,153,o),
(435,149,o),
(412,149,cs),
(308,149,o),
(250,221,o),
(250,354,cs),
(250,470,o),
(299,566,o),
(427,566,cs),
(490,566,o),
(545,553,o),
(596,528,c),
(657,679,l),
(598,705,o),
(515,724,o),
(426,724,cs),
(182,724,o),
(51,583,o),
(51,359,cs),
(51,109,o),
(190,-10,o),
(396,-10,cs),
(500,-10,o),
(598,8,o),
(672,33,c),
(672,418,l),
(364,418,l)
);
}
);
width = 740;
},
{
anchors = (
{
name = bottom;
pos = (326,0);
},
{
name = center;
pos = (291,357);
},
{
name = top;
pos = (329,714);
},
{
name = topright;
pos = (573,714);
}
);
layerId = "98E204A9-1C79-49C7-AB3E-40A925F56409";
shapes = (
{
closed = 1;
nodes = (
(295,276,l),
(377,276,l),
(377,145,l),
(360,140,o),
(342,137,o),
(324,137,cs),
(253,137,o),
(216,213,o),
(216,354,cs),
(216,498,o),
(262,578,o),
(353,578,cs),
(402,578,o),
(447,565,o),
(486,540,c),
(533,679,l),
(486,705,o),
(421,724,o),
(347,724,cs),
(153,724,o),
(39,588,o),
(39,359,cs),
(39,123,o),
(138,-10,o),
(314,-10,cs),
(394,-10,o),
(470,4,o),
(544,33,c),
(544,418,l),
(295,418,l)
);
}
);
width = 593;
},
{
anchors = (
{
name = bottom;
pos = (402,0);
},
{
name = center;
pos = (357,357);
},
{
name = top;
pos = (405,714);
},
{
name = topright;
pos = (708,714);
}
);
layerId = "9FF96064-8718-4A86-A5C8-73C592101F67";
shapes = (
{
closed = 1;
nodes = (
(407,297,l),
(564,297,l),
(564,85,l),
(528,76,o),
(487,68,o),
(424,68,cs),
(232,68,o),
(155,186,o),
(155,357,cs),
(155,535,o),
(255,645,o),
(426,645,cs),
(494,645,o),
(559,626,o),
(610,604,c),
(644,682,l),
(583,708,o),
(511,724,o),
(431,724,cs),
(197,724,o),
(61,580,o),
(61,357,cs),
(61,131,o),
(181,-10,o),
(403,-10,cs),
(503,-10,o),
(577,2,o),
(654,27,c),
(654,377,l),
(407,377,l)
);
}
);
width = 728;
},
{
anchors = (
{
name = bottom;
pos = (390,0);
},
{
name = center;
pos = (351,357);
},
{
name = top;
pos = (400,714);
},
{
name = topright;
pos = (704,714);
}
);
layerId = "134B12F2-BF5D-48E3-8003-C7502B438C7E";
shapes = (
{
closed = 1;
nodes = (
(361,275,l),
(496,275,l),
(496,126,l),
(470,121,o),
(443,116,o),
(400,116,cs),
(268,116,o),
(214,215,o),
(214,355,cs),
(214,502,o),
(298,598,o),
(430,598,cs),
(491,598,o),
(549,581,o),
(593,559,c),
(643,680,l),
(583,706,o),
(507,724,o),
(431,724,cs),
(191,724,o),
(58,582,o),
(58,358,cs),
(58,118,o),
(177,-10,o),
(390,-10,cs),
(492,-10,o),
(569,6,o),
(644,31,c),
(644,401,l),
(361,401,l)
);
}
);
width = 724;
},
{
anchors = (
{
name = bottom;
pos = (309,0);
},
{
name = center;
pos = (270,357);
},
{
name = top;
pos = (308,714);
},
{
name = topright;
pos = (525,714);
}
);
layerId = "36F3C8CB-53EE-4548-BFDE-2C03212BACAA";
shapes = (
{
closed = 1;
nodes = (
(308,302,l),
(409,302,l),
(409,81,l),
(381,71,o),
(348,66,o),
(311,66,cs),
(188,66,o),
(138,192,o),
(138,357,cs),
(138,547,o),
(202,649,o),
(322,649,cs),
(366,649,o),
(409,635,o),
(453,607,c),
(483,678,l),
(435,708,o),
(380,724,o),
(320,724,cs),
(138,724,o),
(50,572,o),
(50,359,cs),
(50,148,o),
(129,-10,o),
(304,-10,cs),
(369,-10,o),
(432,2,o),
(491,25,c),
(491,377,l),
(308,377,l)
);
}
);
width = 545;
},
{
anchors = (
{
name = bottom;
pos = (319,0);
},
{
name = center;
pos = (283,357);
},
{
name = top;
pos = (321,714);
},
{
name = topright;
pos = (554,714);
}
);
layerId = "43B45EC1-5522-4B1A-B0C7-88628E50A583";
shapes = (
{
closed = 1;
nodes = (
(300,286,l),
(389,286,l),
(389,120,l),
(368,113,o),
(344,109,o),
(319,109,cs),
(227,109,o),
(185,205,o),
(185,355,cs),
(185,517,o),
(238,606,o),
(341,606,cs),
(388,606,o),
(432,592,o),
(473,566,c),
(513,679,l),
(466,706,o),
(405,724,o),
(336,724,cs),
(147,724,o),
(43,582,o),
(43,359,cs),
(43,133,o),
(134,-10,o),
(310,-10,cs),
(384,-10,o),
(455,3,o),
(523,30,c),
(523,402,l),
(300,402,l)
);
}
);
width = 574;
},
{
anchors = (
{
name = bottom;
pos = (400,0);
},
{
name = center;
pos = (351,358);
},
{
name = top;
pos = (410,714);
},
{
name = topright;
pos = (700,714);
}
);
layerId = "AB666A95-3AF9-4DE8-B258-097FFCFE8A59";
shapes = (
{
closed = 1;
nodes = (
(367,325,l),
(613,325,l),
(613,50,l),
(561,28,o),
(496,15,o),
(419,15,cs),
(219,15,o),
(90,114,o),
(90,356,cs),
(90,554,o),
(216,701,o),
(423,701,cs),
(487,701,o),
(551,690,o),
(619,657,c),
(631,682,l),
(568,713,o),
(500,726,o),
(424,726,cs),
(199,726,o),
(63,566,o),
(63,355,cs),
(63,121,o),
(186,-10,o),
(417,-10,cs),
(496,-10,o),
(575,5,o),
(639,36,c),
(639,350,l),
(367,350,l)
);
}
);
width = 720;
},
{
anchors = (
{
name = bottom;
pos = (290,0);
},
{
name = center;
pos = (259,357);
},
{
name = top;
pos = (290,714);
},
{
name = topright;
pos = (500,714);
}
);
layerId = "029FEF0C-5FA4-4A3E-AC23-838A1147A554";
shapes = (
{
closed = 1;
nodes = (
(298,326,l),
(439,326,l),
(439,40,l),
(402,26,o),
(354,15,o),
(309,15,cs),
(149,15,o),
(80,157,o),
(80,354,cs),
(80,556,o),
(152,699,o),
(314,699,cs),
(355,699,o),
(398,690,o),
(443,658,c),
(457,680,l),
(408,713,o),
(362,724,o),
(314,724,cs),
(138,724,o),
(54,574,o),
(54,354,cs),
(54,143,o),
(132,-10,o),
(308,-10,cs),
(355,-10,o),
(415,1,o),
(464,24,c),
(464,351,l),
(298,351,l)
);
}
);
width = 520;
}
);
script = latin;
subCategory = Uppercase;
unicode = 71;
}
{
category = Letter;
glyphname = H;
layers = (
{
anchors = (
{
name = bottom;
pos = (383,0);
},
{
name = center;
pos = (383,357);
},
{
name = top;
pos = (383,714);
},
{
name = topright;
pos = (746,714);
}
);
layerId = "0A718E2F-231D-484E-9433-16A5230D2CE8";
shapes = (
{
closed = 1;
nodes = (
(689,714,l),
(495,714,l),
(495,449,l),
(271,449,l),
(271,714,l),
(77,714,l),
(77,0,l),
(271,0,l),
(271,291,l),
(495,291,l),
(495,0,l),
(689,0,l)
);
}
);
width = 766;
},
{
anchors = (
{
name = bottom;
pos = (303,0);
},
{
name = center;
pos = (303,357);
},
{
name = top;
pos = (304,714);
},
{
name = topright;
pos = (589,714);
}
);
layerId = "98E204A9-1C79-49C7-AB3E-40A925F56409";
shapes = (
{
closed = 1;
nodes = (
(550,714,l),
(380,714,l),
(380,444,l),
(229,444,l),
(229,714,l),
(59,714,l),
(59,0,l),
(229,0,l),
(229,298,l),
(380,298,l),
(380,0,l),
(550,0,l)
);
}
);
width = 609;
},
{
anchors = (
{
name = bottom;
pos = (368,0);
},
{
name = center;
pos = (371,357);
},
{
name = top;
pos = (371,714);
},
{
name = topright;
pos = (721,714);
}
);
layerId = "9FF96064-8718-4A86-A5C8-73C592101F67";
shapes = (
{
closed = 1;
nodes = (
(643,714,l),
(553,714,l),
(553,412,l),
(187,412,l),
(187,714,l),
(97,714,l),
(97,0,l),
(187,0,l),
(187,333,l),
(553,333,l),
(553,0,l),
(643,0,l)
);
}
);
width = 741;
},
{
anchors = (
{
name = bottom;
pos = (379,0);
},
{
name = center;
pos = (383,357);
},
{
name = top;
pos = (383,714);
},
{
name = topright;
pos = (745,714);
}
);
layerId = "134B12F2-BF5D-48E3-8003-C7502B438C7E";
shapes = (
{
closed = 1;
nodes = (
(675,714,l),
(524,714,l),
(524,434,l),
(241,434,l),
(241,714,l),
(90,714,l),
(90,0,l),
(241,0,l),
(241,308,l),
(524,308,l),
(524,0,l),
(675,0,l)
);
}
);
width = 765;
},
{
anchors = (
{
name = bottom;
pos = (267,0);
},
{
name = center;
pos = (267,357);
},
{
name = top;
pos = (268,714);
},
{
name = topright;
pos = (513,714);
}
);
layerId = "36F3C8CB-53EE-4548-BFDE-2C03212BACAA";
shapes = (
{
closed = 1;
nodes = (
(461,714,l),
(377,714,l),
(377,411,l),
(157,411,l),
(157,714,l),
(73,714,l),
(73,0,l),
(157,0,l),
(157,335,l),
(377,335,l),
(377,0,l),
(461,0,l)
);
}
);
width = 533;
},
{
anchors = (
{
name = bottom;
pos = (289,0);
},
{
name = center;
pos = (289,357);
},
{
name = top;
pos = (290,714);
},
{
name = topright;
pos = (559,714);
}
);
layerId = "43B45EC1-5522-4B1A-B0C7-88628E50A583";
shapes = (
{
closed = 1;
nodes = (
(515,714,l),
(378,714,l),
(378,431,l),
(201,431,l),
(201,714,l),
(64,714,l),
(64,0,l),
(201,0,l),
(201,312,l),
(378,312,l),
(378,0,l),
(515,0,l)
);
}
);
width = 579;
},
{
anchors = (
{
name = bottom;
pos = (353,0);
},
{
name = center;
pos = (353,357);
},
{
name = top;
pos = (353,714);
},
{
name = topright;
pos = (686,714);
}
);
layerId = "AB666A95-3AF9-4DE8-B258-097FFCFE8A59";
shapes = (
{
closed = 1;
nodes = (
(603,714,l),
(577,714,l),
(577,388,l),
(129,388,l),
(129,714,l),
(103,714,l),
(103,0,l),
(129,0,l),
(129,363,l),
(577,363,l),
(577,0,l),
(603,0,l)
);
}
);
width = 706;
},
{
anchors = (
{
name = bottom;
pos = (243,0);
},
{
name = center;
pos = (243,357);
},
{
name = top;
pos = (243,714);
},
{
name = topright;
pos = (466,714);
}
);
layerId = "029FEF0C-5FA4-4A3E-AC23-838A1147A554";
shapes = (
{
closed = 1;
nodes = (
(408,714,l),
(382,714,l),
(382,388,l),
(104,388,l),
(104,714,l),
(78,714,l),
(78,0,l),
(104,0,l),
(104,363,l),
(382,363,l),
(382,0,l),
(408,0,l)
);
}
);
width = 486;
}
);
script = latin;
subCategory = Uppercase;
unicode = 72;
}
{
category = Letter;
glyphname = I;
layers = (
{
anchors = (
{
name = bottom;
pos = (220,0);
},
{
name = center;
pos = (220,357);
},
{
name = top;
pos = (220,714);
},
{
name = topright;
pos = (420,714);
}
);
layerId = "0A718E2F-231D-484E-9433-16A5230D2CE8";
shapes = (
{
closed = 1;
nodes = (
(406,110,l),
(317,144,l),
(317,571,l),
(406,604,l),
(406,714,l),
(34,714,l),
(34,604,l),
(123,571,l),
(123,144,l),
(34,110,l),
(34,0,l),
(406,0,l)
);
}
);
width = 440;
},
{
anchors = (
{
name = bottom;
pos = (177,0);
},
{
name = center;
pos = (177,357);
},
{
name = top;
pos = (177,714);
},
{
name = topright;
pos = (334,714);
}
);
layerId = "98E204A9-1C79-49C7-AB3E-40A925F56409";
shapes = (
{
closed = 1;
nodes = (
(329,91,l),
(262,126,l),
(262,588,l),
(329,623,l),
(329,714,l),
(25,714,l),
(25,623,l),
(92,588,l),
(92,126,l),
(25,91,l),
(25,0,l),
(329,0,l)
);
}
);
width = 354;
},
{
anchors = (
{
name = bottom;
pos = (170,0);
},
{
name = center;
pos = (169,357);
},
{
name = top;
pos = (170,714);
},
{
name = topright;
pos = (319,714);
}
);
layerId = "9FF96064-8718-4A86-A5C8-73C592101F67";
shapes = (
{
closed = 1;
nodes = (
(298,52,l),
(214,71,l),
(214,642,l),
(298,662,l),
(298,714,l),
(40,714,l),
(40,662,l),
(124,642,l),
(124,71,l),
(40,52,l),
(40,0,l),
(298,0,l)
);
}
);
width = 339;
},
{
anchors = (
{
name = bottom;
pos = (142,0);
},
{
name = center;
pos = (141,357);
},
{
name = top;
pos = (141,714);
},
{
name = topright;
pos = (263,714);
}
);
layerId = "36F3C8CB-53EE-4548-BFDE-2C03212BACAA";
shapes = (
{
closed = 1;
nodes = (
(248,48,l),
(183,65,l),
(183,649,l),
(248,666,l),
(248,714,l),
(34,714,l),
(34,666,l),
(99,649,l),
(99,65,l),
(34,48,l),
(34,0,l),
(248,0,l)
);
}
);
width = 283;
},
{
anchors = (
{
name = bottom;
pos = (142,0);
},
{
name = center;
pos = (142,357);
},
{
name = top;
pos = (142,714);
},
{
name = topright;
pos = (263,714);
}
);
layerId = "AB666A95-3AF9-4DE8-B258-097FFCFE8A59";
shapes = (
{
closed = 1;
nodes = (
(223,20,l),
(155,23,l),
(155,690,l),
(223,694,l),
(223,714,l),
(61,714,l),
(61,694,l),
(129,690,l),
(129,23,l),
(61,20,l),
(61,0,l),
(223,0,l)
);
}
);
width = 283;
},
{
anchors = (
{
name = bottom;
pos = (110,0);
},
{
name = center;
pos = (109,357);
},
{
name = top;
pos = (110,714);
},
{
name = topright;
pos = (199,714);
}
);
layerId = "029FEF0C-5FA4-4A3E-AC23-838A1147A554";
shapes = (
{
closed = 1;
nodes = (
(181,19,l),
(123,22,l),
(123,691,l),
(181,695,l),
(181,714,l),
(38,714,l),
(38,695,l),
(98,691,l),
(98,22,l),
(38,19,l),
(38,0,l),
(181,0,l)
);
}
);
width = 219;
}
);
script = latin;
subCategory = Uppercase;
unicode = 73;
}
{
category = Letter;
color = 10;
glyphname = J;
layers = (
{
anchors = (
{
name = bottom;
pos = (21,-204);
},
{
name = center;
pos = (98,245);
},
{
name = top;
pos = (176,714);
},
{
name = topright;
pos = (332,714);
}
);
layerId = "0A718E2F-231D-484E-9433-16A5230D2CE8";
shapes = (
{
closed = 1;
nodes = (
(171,-224,o),
(275,-145,o),
(275,70,cs),
(275,714,l),
(81,714,l),
(81,53,ls),
(81,-32,o),
(61,-74,o),
(-8,-74,cs),
(-35,-74,o),
(-58,-68,o),
(-79,-64,c),
(-79,-214,l),
(-55,-219,o),
(-23,-224,o),
(21,-224,cs)
);
}
);
width = 352;
},
{
anchors = (
{
name = bottom;
pos = (22,-204);
},
{
name = center;
pos = (85,245);
},
{
name = top;
pos = (147,714);
},
{
name = topright;
pos = (270,714);
}
);
layerId = "98E204A9-1C79-49C7-AB3E-40A925F56409";
shapes = (
{
closed = 1;
nodes = (
(155,-224,o),
(231,-161,o),
(231,55,cs),
(231,714,l),
(62,714,l),
(62,47,ls),
(62,-51,o),
(46,-80,o),
(-6,-80,cs),
(-27,-80,o),
(-45,-76,o),
(-61,-70,c),
(-61,-214,l),
(-35,-221,o),
(-7,-224,o),
(22,-224,cs)
);
}
);
width = 290;
},
{
anchors = (
{
name = bottom;
pos = (-4,-170);
},
{
name = center;
pos = (52,262);
},
{
name = top;
pos = (137,714);
},
{
name = topright;
pos = (253,714);
}
);
layerId = "9FF96064-8718-4A86-A5C8-73C592101F67";
shapes = (
{
closed = 1;
nodes = (
(108,-190,o),
(182,-127,o),
(182,11,cs),
(182,714,l),
(92,714,l),
(92,4,ls),
(92,-87,o),
(44,-111,o),
(-6,-111,cs),
(-33,-111,o),
(-57,-107,o),
(-78,-101,c),
(-78,-177,l),
(-60,-185,o),
(-36,-190,o),
(-4,-190,cs)
);
}
);
width = 273;
},
{
anchors = (
{
name = bottom;
pos = (15,-190);
},
{
name = center;
pos = (83,252);
},
{
name = top;
pos = (166,714);
},
{
name = topright;
pos = (311,714);
}
);
associatedMasterId = "9FF96064-8718-4A86-A5C8-73C592101F67";
attr = {
coordinates = (
151,
100
);
};
background = {
shapes = (
{
closed = 1;
nodes = (
(146.43,-210.74,o),
(238.73,-137.98,o),
(238.73,46.99,cs),
(238.73,714,l),
(85.29,714,l),
(85.29,33.89,ls),
(85.29,-53.45,o),
(54.37,-88.43,o),
(-7.22,-88.43,cs),
(-34.22,-88.43,o),
(-57.61,-83.21,o),
(-78.61,-78.43,c),
(-78.61,-199.57,l),
(-56.95,-205.74,o),
(-28.07,-210.74,o),
(11.25,-210.74,cs)
);
}
);
};
layerId = "7367def2-4396-4cf4-802e-b4a2f406393c";
name = "SemiBold (intermediate)";
shapes = (
{
closed = 1;
nodes = (
(149,-210,o),
(241,-138,o),
(241,46,cs),
(241,714,l),
(90,714,l),
(90,45,ls),
(90,-60,o),
(50,-83,o),
(-3,-83,cs),
(-30,-83,o),
(-53,-78,o),
(-74,-73,c),
(-74,-199,l),
(-53,-205,o),
(-24,-210,o),
(15,-210,cs)
);
}
);
width = 331;
},
{
anchors = (
{
name = bottom;
pos = (16,-173);
},
{
name = center;
pos = (52,260);
},
{
name = top;
pos = (112,714);
},
{
name = topright;
pos = (204,714);
}
);
layerId = "36F3C8CB-53EE-4548-BFDE-2C03212BACAA";
shapes = (
{
closed = 1;
nodes = (
(105,-193,o),
(154,-141,o),
(154,-1,cs),
(154,714,l),
(70,714,l),
(70,6,ls),
(70,-84,o),
(51,-117,o),
(7,-117,cs),
(-14,-117,o),
(-33,-113,o),
(-49,-107,c),
(-49,-182,l),
(-30,-190,o),
(-8,-193,o),
(16,-193,cs)
);
}
);
width = 224;
},
{
anchors = (
{
name = bottom;
pos = (-19,-164);
},
{
name = center;
pos = (17,270);
},
{
name = top;
pos = (119,714);
},
{
name = topright;
pos = (211,714);
}
);
layerId = "AB666A95-3AF9-4DE8-B258-097FFCFE8A59";
shapes = (
{
closed = 1;
nodes = (
(93,-174,o),
(132,-97,o),
(132,2,cs),
(132,714,l),
(106,714,l),
(106,5,ls),
(106,-86,o),
(77,-148,o),
(-19,-148,cs),
(-50,-148,o),
(-80,-142,o),
(-98,-134,c),
(-98,-162,l),
(-81,-168,o),
(-56,-174,o),
(-19,-174,cs)
);
}
);
width = 231;
},
{
anchors = (
{
name = bottom;
pos = (13,-164);
},
{
name = center;
pos = (32,269);
},
{
name = top;
pos = (97,714);
},
{
name = topright;
pos = (166,714);
}
);
layerId = "029FEF0C-5FA4-4A3E-AC23-838A1147A554";
shapes = (
{
closed = 1;
nodes = (
(84,-175,o),
(110,-129,o),
(110,-30,cs),
(110,714,l),
(84,714,l),
(84,-23,ls),
(84,-102,o),
(71,-149,o),
(13,-149,cs),
(-7,-149,o),
(-26,-144,o),
(-45,-138,c),
(-45,-163,l),
(-28,-171,o),
(-8,-175,o),
(13,-175,cs)
);
}
);
width = 186;
}
);
script = latin;
subCategory = Uppercase;
unicode = 74;
}
{
category = Letter;
glyphname = K;
kernRight = K.left;
layers = (
{
anchors = (
{
name = bottom;
pos = (360,0);
},
{
name = center;
pos = (384,357);
},
{
name = top;
pos = (364,714);
},
{
name = topright;
pos = (667,714);
}
);
layerId = "0A718E2F-231D-484E-9433-16A5230D2CE8";
shapes = (
{
closed = 1;
nodes = (
(466,394,l),
(691,714,l),
(480,714,l),
(330,495,ls),
(310,467,o),
(287,435,o),
(271,404,c),
(271,714,l),
(77,714,l),
(77,0,l),
(271,0,l),
(271,239,l),
(328,273,l),
(469,0,l),
(687,0,l)
);
}
);
width = 687;
},
{
anchors = (
{
name = bottom;
pos = (298,0);
},
{
name = center;
pos = (311,357);
},
{
name = top;
pos = (303,714);
},
{
name = topright;
pos = (532,714);
}
);
layerId = "98E204A9-1C79-49C7-AB3E-40A925F56409";
shapes = (
{
closed = 1;
nodes = (
(392,394,l),
(564,714,l),
(381,714,l),
(266,495,ls),
(249,462,o),
(235,432,o),
(229,404,c),
(229,714,l),
(59,714,l),
(59,0,l),
(229,0,l),
(229,239,l),
(269,266,l),
(373,0,l),
(561,0,l)
);
}
);
width = 552;
},
{
anchors = (
{
name = bottom;
pos = (330,0);
},
{
name = center;
pos = (358,357);
},
{
name = top;
pos = (340,714);
},
{
name = topright;
pos = (599,714);
}
);
layerId = "9FF96064-8718-4A86-A5C8-73C592101F67";
shapes = (
{
closed = 1;
nodes = (
(325,403,l),
(608,714,l),
(503,714,l),
(310,498,ls),
(269,452,o),
(227,407,o),
(187,362,c),
(187,714,l),
(97,714,l),
(97,0,l),
(187,0,l),
(187,277,l),
(260,341,l),
(513,0,l),
(619,0,l)
);
}
);
width = 619;
},
{
anchors = (
{
name = bottom;
pos = (348,0);
},
{
name = center;
pos = (377,357);
},
{
name = top;
pos = (350,714);
},
{
name = topright;
pos = (644,714);
}
);
layerId = "134B12F2-BF5D-48E3-8003-C7502B438C7E";
shapes = (
{
closed = 1;
nodes = (
(413,398,l),
(662,714,l),
(494,714,l),
(301,471,l),
(281,443,o),
(261,415,o),
(241,387,c),
(241,714,l),
(90,714,l),
(90,0,l),
(241,0,l),
(241,255,l),
(305,301,l),
(492,0,l),
(664,0,l)
);
}
);
width = 664;
},
{
anchors = (
{
name = bottom;
pos = (252,0);
},
{
name = center;
pos = (262,357);
},
{
name = top;
pos = (249,714);
},
{
name = topright;
pos = (427,714);
}
);
layerId = "36F3C8CB-53EE-4548-BFDE-2C03212BACAA";
shapes = (
{
closed = 1;
nodes = (
(265,398,l),
(442,714,l),
(351,714,l),
(211,459,ls),
(183,409,o),
(165,375,o),
(157,356,c),
(157,714,l),
(73,714,l),
(73,0,l),
(157,0,l),
(157,270,l),
(208,330,l),
(357,0,l),
(451,0,l)
);
}
);
width = 447;
},
{
anchors = (
{
name = bottom;
pos = (280,0);
},
{
name = center;
pos = (291,357);
},
{
name = top;
pos = (282,714);
},
{
name = topright;
pos = (491,714);
}
);
layerId = "43B45EC1-5522-4B1A-B0C7-88628E50A583";
shapes = (
{
closed = 1;
nodes = (
(342,396,l),
(516,714,l),
(369,714,l),
(244,481,ls),
(223,441,o),
(207,410,o),
(201,385,c),
(201,714,l),
(64,714,l),
(64,0,l),
(201,0,l),
(201,251,l),
(245,291,l),
(366,0,l),
(518,0,l)
);
}
);
width = 511;
},
{
anchors = (
{
name = bottom;
pos = (279,0);
},
{
name = center;
pos = (330,357);
},
{
name = top;
pos = (279,714);
},
{
name = topright;
pos = (538,714);
}
);
layerId = "AB666A95-3AF9-4DE8-B258-097FFCFE8A59";
shapes = (
{
closed = 1;
nodes = (
(254,417,l),
(552,714,l),
(514,714,l),
(179,376,ls),
(161,358,o),
(144,341,o),
(129,324,c),
(129,714,l),
(103,714,l),
(103,0,l),
(129,0,l),
(129,293,l),
(234,398,l),
(524,0,l),
(558,0,l)
);
}
);
width = 558;
},
{
anchors = (
{
name = bottom;
pos = (200,0);
},
{
name = center;
pos = (229,357);
},
{
name = top;
pos = (200,714);
},
{
name = topright;
pos = (359,714);
}
);
layerId = "029FEF0C-5FA4-4A3E-AC23-838A1147A554";
shapes = (
{
closed = 1;
nodes = (
(182,401,l),
(369,714,l),
(340,714,l),
(160,414,ls),
(132,368,o),
(112,336,o),
(104,318,c),
(104,714,l),
(78,714,l),
(78,0,l),
(104,0,l),
(104,282,l),
(165,376,l),
(352,0,l),
(380,0,l)
);
}
);
width = 379;
}
);
script = latin;
subCategory = Uppercase;
unicode = 75;
}
{
category = Letter;
glyphname = L;
kernRight = L.left;
layers = (
{
anchors = (
{
name = bottom;
pos = (309,0);
},
{
name = center;
pos = (291,357);
},
{
name = top;
pos = (170,714);
},
{
name = topright;
pos = (364,714);
}
);
layerId = "0A718E2F-231D-484E-9433-16A5230D2CE8";
shapes = (
{
closed = 1;
nodes = (
(545,0,l),
(545,156,l),
(270,156,l),
(270,714,l),
(77,714,l),
(77,0,l)
);
}
);
width = 582;
},
{
anchors = (
{
name = bottom;
pos = (238,0);
},
{
name = center;
pos = (214,357);
},
{
name = top;
pos = (146,714);
},
{
name = topright;
pos = (288,714);
}
);
layerId = "98E204A9-1C79-49C7-AB3E-40A925F56409";
shapes = (
{
closed = 1;
nodes = (
(415,0,l),
(415,146,l),
(229,146,l),
(229,714,l),
(59,714,l),
(59,0,l)
);
}
);
width = 428;
},
{
anchors = (
{
name = bottom;
pos = (300,0);
},
{
name = center;
pos = (262,357);
},
{
name = top;
pos = (140,714);
},
{
name = topright;
pos = (364,714);
}
);
layerId = "9FF96064-8718-4A86-A5C8-73C592101F67";
shapes = (
{
closed = 1;
nodes = (
(499,0,l),
(499,80,l),
(187,80,l),
(187,714,l),
(97,714,l),
(97,0,l)
);
}
);
width = 524;
},
{
anchors = (
{
name = bottom;
pos = (216,0);
},
{
name = center;
pos = (186,357);
},
{
name = top;
pos = (115,714);
},
{
name = topright;
pos = (251,714);
}
);
layerId = "36F3C8CB-53EE-4548-BFDE-2C03212BACAA";
shapes = (
{
closed = 1;
nodes = (
(354,0,l),
(354,76,l),
(157,76,l),
(157,714,l),
(73,714,l),
(73,0,l)
);
}
);
width = 371;
},
{
anchors = (
{
name = bottom;
pos = (283,0);
},
{
name = center;
pos = (253,357);
},
{
name = top;
pos = (116,714);
},
{
name = topright;
pos = (446,714);
}
);
layerId = "AB666A95-3AF9-4DE8-B258-097FFCFE8A59";
shapes = (
{
closed = 1;
nodes = (
(486,0,l),
(486,25,l),
(129,25,l),
(129,714,l),
(103,714,l),
(103,0,l)
);
}
);
width = 506;
},
{
anchors = (
{
name = bottom;
pos = (191,0);
},
{
name = center;
pos = (171,357);
},
{
name = top;
pos = (90,714);
},
{
name = topright;
pos = (251,714);
}
);
layerId = "029FEF0C-5FA4-4A3E-AC23-838A1147A554";
shapes = (
{
closed = 1;
nodes = (
(322,0,l),
(322,25,l),
(104,25,l),
(104,714,l),
(78,714,l),
(78,0,l)
);
}
);
width = 341;
}
);
script = latin;
subCategory = Uppercase;
unicode = 76;
}
{
category = Letter;
glyphname = M;
layers = (
{
anchors = (
{
name = bottom;
pos = (481,0);
},
{
name = center;
pos = (483,357);
},
{
name = top;
pos = (487,714);
},
{
name = topright;
pos = (947,714);
}
);
layerId = "0A718E2F-231D-484E-9433-16A5230D2CE8";
shapes = (
{
closed = 1;
nodes = (
(572,0,l),
(716,513,l),
(720,513,l),
(717,473,o),
(713,380,o),
(713,313,cs),
(713,0,l),
(890,0,l),
(890,714,l),
(633,714,l),
(487,207,l),
(483,207,l),
(334,714,l),
(77,714,l),
(77,0,l),
(248,0,l),
(248,310,ls),
(248,383,o),
(241,474,o),
(238,514,c),
(242,514,l),
(388,0,l)
);
}
);
width = 967;
},
{
anchors = (
{
name = bottom;
pos = (403,0);
},
{
name = center;
pos = (403,357);
},
{
name = top;
pos = (405,714);
},
{
name = topright;
pos = (787,714);
}
);
layerId = "98E204A9-1C79-49C7-AB3E-40A925F56409";
shapes = (
{
closed = 1;
nodes = (
(463,0,l),
(588,480,l),
(592,480,l),
(588,419,o),
(585,366,o),
(585,313,cs),
(585,0,l),
(748,0,l),
(748,714,l),
(517,714,l),
(406,285,l),
(403,285,l),
(292,714,l),
(59,714,l),
(59,0,l),
(218,0,l),
(218,310,ls),
(218,358,o),
(215,415,o),
(210,480,c),
(214,480,l),
(337,0,l)
);
}
);
width = 807;
},
{
anchors = (
{
name = bottom;
pos = (448,0);
},
{
name = center;
pos = (453,357);
},
{
name = top;
pos = (454,714);
},
{
name = topright;
pos = (887,714);
}
);
layerId = "9FF96064-8718-4A86-A5C8-73C592101F67";
shapes = (
{
closed = 1;
nodes = (
(486,0,l),
(724,625,l),
(728,625,l),
(725,582,o),
(721,508,o),
(721,439,cs),
(721,0,l),
(810,0,l),
(810,714,l),
(678,714,l),
(454,129,l),
(450,129,l),
(230,714,l),
(97,714,l),
(97,0,l),
(180,0,l),
(180,433,ls),
(180,509,o),
(177,585,o),
(173,626,c),
(177,626,l),
(412,0,l)
);
}
);
width = 907;
},
{
anchors = (
{
name = bottom;
pos = (359,0);
},
{
name = center;
pos = (360,357);
},
{
name = top;
pos = (361,714);
},
{
name = topright;
pos = (698,714);
}
);
layerId = "36F3C8CB-53EE-4548-BFDE-2C03212BACAA";
shapes = (
{
closed = 1;
nodes = (
(396,0,l),
(566,599,l),
(570,599,l),
(567,533,o),
(565,485,o),
(565,456,cs),
(565,0,l),
(647,0,l),
(647,714,l),
(527,714,l),
(361,131,l),
(358,131,l),
(192,714,l),
(73,714,l),
(73,0,l),
(153,0,l),
(153,458,ls),
(153,484,o),
(151,532,o),
(147,599,c),
(151,599,l),
(321,0,l)
);
}
);
width = 718;
},
{
anchors = (
{
name = bottom;
pos = (419,0);
},
{
name = center;
pos = (418,357);
},
{
name = top;
pos = (419,714);
},
{
name = topright;
pos = (817,714);
}
);
layerId = "AB666A95-3AF9-4DE8-B258-097FFCFE8A59";
shapes = (
{
closed = 1;
nodes = (
(428,0,l),
(706,678,l),
(708,678,l),
(707,645,o),
(707,622,o),
(707,602,cs),
(707,0,l),
(733,0,l),
(733,714,l),
(693,714,l),
(420,48,l),
(417,48,l),
(145,714,l),
(103,714,l),
(103,0,l),
(129,0,l),
(129,596,ls),
(129,626,o),
(129,646,o),
(128,679,c),
(130,679,l),
(408,0,l)
);
}
);
width = 837;
},
{
anchors = (
{
name = bottom;
pos = (326,0);
},
{
name = center;
pos = (326,357);
},
{
name = top;
pos = (326,714);
},
{
name = topright;
pos = (632,714);
}
);
layerId = "029FEF0C-5FA4-4A3E-AC23-838A1147A554";
shapes = (
{
closed = 1;
nodes = (
(345,0,l),
(547,667,l),
(549,667,l),
(549,606,o),
(549,584,o),
(549,575,cs),
(549,0,l),
(575,0,l),
(575,714,l),
(535,714,l),
(327,32,l),
(324,32,l),
(116,714,l),
(78,714,l),
(78,0,l),
(104,0,l),
(104,579,ls),
(104,588,o),
(104,607,o),
(102,668,c),
(104,668,l),
(306,0,l)
);
}
);
width = 652;
}
);
script = latin;
subCategory = Uppercase;
unicode = 77;
}
{
category = Letter;
glyphname = N;
layers = (
{
anchors = (
{
name = bottom;
pos = (417,0);
},
{
name = center;
pos = (417,357);
},
{
name = top;
pos = (417,714);
},
{
name = topright;
pos = (814,714);
}
);
layerId = "0A718E2F-231D-484E-9433-16A5230D2CE8";
shapes = (
{
closed = 1;
nodes = (
(757,714,l),
(585,714,l),
(585,391,ls),
(585,342,o),
(589,264,o),
(592,218,c),
(589,218,l),
(329,714,l),
(77,714,l),
(77,0,l),
(248,0,l),
(248,322,ls),
(248,375,o),
(243,457,o),
(239,503,c),
(243,503,l),
(504,0,l),
(757,0,l)
);
}
);
width = 834;
},
{
anchors = (
{
name = bottom;
pos = (328,0);
},
{
name = center;
pos = (328,357);
},
{
name = top;
pos = (328,714);
},
{
name = topright;
pos = (636,714);
}
);
layerId = "98E204A9-1C79-49C7-AB3E-40A925F56409";
shapes = (
{
closed = 1;
nodes = (
(597,714,l),
(438,714,l),
(438,455,ls),
(438,412,o),
(441,354,o),
(445,282,c),
(441,282,l),
(256,714,l),
(59,714,l),
(59,0,l),
(217,0,l),
(217,263,ls),
(217,304,o),
(215,365,o),
(209,444,c),
(213,444,l),
(399,0,l),
(597,0,l)
);
}
);
width = 656;
},
{
anchors = (
{
name = bottom;
pos = (380,0);
},
{
name = center;
pos = (380,357);
},
{
name = top;
pos = (380,714);
},
{
name = topright;
pos = (740,714);
}
);
layerId = "9FF96064-8718-4A86-A5C8-73C592101F67";
shapes = (
{
closed = 1;
nodes = (
(663,714,l),
(579,714,l),
(579,311,ls),
(579,246,o),
(584,155,o),
(586,123,c),
(582,123,l),
(201,714,l),
(97,714,l),
(97,0,l),
(180,0,l),
(180,399,ls),
(180,472,o),
(175,546,o),
(172,593,c),
(176,593,l),
(558,0,l),
(663,0,l)
);
}
);
width = 760;
},
{
anchors = (
{
name = bottom;
pos = (284,0);
},
{
name = center;
pos = (285,357);
},
{
name = top;
pos = (284,714);
},
{
name = topright;
pos = (549,714);
}
);
layerId = "36F3C8CB-53EE-4548-BFDE-2C03212BACAA";
shapes = (
{
closed = 1;
nodes = (
(497,714,l),
(417,714,l),
(417,286,ls),
(417,248,o),
(419,200,o),
(422,141,c),
(419,141,l),
(175,714,l),
(73,714,l),
(73,0,l),
(153,0,l),
(153,438,ls),
(153,479,o),
(151,527,o),
(147,582,c),
(151,582,l),
(395,0,l),
(497,0,l)
);
}
);
width = 569;
},
{
anchors = (
{
name = bottom;
pos = (349,0);
},
{
name = center;
pos = (348,357);
},
{
name = top;
pos = (349,714);
},
{
name = topright;
pos = (678,714);
}
);
layerId = "AB666A95-3AF9-4DE8-B258-097FFCFE8A59";
shapes = (
{
closed = 1;
nodes = (
(594,714,l),
(568,714,l),
(568,211,ls),
(568,165,o),
(568,111,o),
(569,61,c),
(567,61,l),
(123,714,l),
(103,714,l),
(103,0,l),
(129,0,l),
(129,502,ls),
(129,555,o),
(129,597,o),
(128,655,c),
(130,655,l),
(575,0,l),
(594,0,l)
);
}
);
width = 698;
},
{
anchors = (
{
name = bottom;
pos = (252,0);
},
{
name = center;
pos = (252,357);
},
{
name = top;
pos = (252,714);
},
{
name = topright;
pos = (484,714);
}
);
layerId = "029FEF0C-5FA4-4A3E-AC23-838A1147A554";
shapes = (
{
closed = 1;
nodes = (
(427,714,l),
(401,714,l),
(401,181,ls),
(401,152,o),
(402,99,o),
(402,54,c),
(400,54,l),
(109,714,l),
(78,714,l),
(78,0,l),
(104,0,l),
(104,548,ls),
(104,604,o),
(104,637,o),
(103,664,c),
(105,664,l),
(397,0,l),
(427,0,l)
);
}
);
width = 504;
}
);
script = latin;
subCategory = Uppercase;
unicode = 78;
}
{
category = Letter;
glyphname = O;
kernLeft = O.right;
kernRight = O.left;
layers = (
{
anchors = (
{
name = bottom;
pos = (398,0);
},
{
name = center;
pos = (399,357);
},
{
name = top;
pos = (399,714);
},
{
name = topright;
pos = (777,714);
}
);
layerId = "0A718E2F-231D-484E-9433-16A5230D2CE8";
shapes = (
{
closed = 1;
nodes = (
(745,580,o),
(643,725,o),
(399,725,cs),
(158,725,o),
(51,581,o),
(51,359,cs),
(51,136,o),
(158,-10,o),
(398,-10,cs),
(643,-10,o),
(745,137,o),
(745,358,cs)
);
},
{
closed = 1;
nodes = (
(254,487,o),
(294,567,o),
(399,567,cs),
(504,567,o),
(542,487,o),
(542,358,cs),
(542,229,o),
(504,151,o),
(398,151,cs),
(295,151,o),
(254,229,o),
(254,358,cs)
);
}
);
width = 797;
},
{
anchors = (
{
name = bottom;
pos = (311,0);
},
{
name = center;
pos = (311,357);
},
{
name = top;
pos = (311,714);
},
{
name = topright;
pos = (601,714);
}
);
layerId = "98E204A9-1C79-49C7-AB3E-40A925F56409";
shapes = (
{
closed = 1;
nodes = (
(582,599,o),
(489,725,o),
(311,725,cs),
(134,725,o),
(39,597,o),
(39,359,cs),
(39,119,o),
(135,-10,o),
(311,-10,cs),
(488,-10,o),
(582,118,o),
(582,358,cs)
);
},
{
closed = 1;
nodes = (
(216,505,o),
(248,579,o),
(311,579,cs),
(374,579,o),
(405,509,o),
(405,358,cs),
(405,208,o),
(375,139,o),
(311,139,cs),
(248,139,o),
(216,212,o),
(216,358,cs)
);
}
);
width = 621;
},
{
anchors = (
{
name = bottom;
pos = (392,0);
},
{
name = center;
pos = (391,357);
},
{
name = top;
pos = (391,714);
},
{
name = topright;
pos = (761,714);
}
);
layerId = "9FF96064-8718-4A86-A5C8-73C592101F67";
shapes = (
{
closed = 1;
nodes = (
(720,580,o),
(606,725,o),
(392,725,cs),
(168,725,o),
(61,578,o),
(61,359,cs),
(61,138,o),
(168,-10,o),
(391,-10,cs),
(606,-10,o),
(720,137,o),
(720,358,cs)
);
},
{
closed = 1;
nodes = (
(156,538,o),
(230,646,o),
(392,646,cs),
(553,646,o),
(625,538,o),
(625,358,cs),
(625,178,o),
(553,68,o),
(391,68,cs),
(230,68,o),
(156,178,o),
(156,358,cs)
);
}
);
width = 781;
},
{
anchors = (
{
name = bottom;
pos = (399,0);
},
{
name = center;
pos = (398,357);
},
{
name = top;
pos = (398,714);
},
{
name = topright;
pos = (776,714);
}
);
layerId = "134B12F2-BF5D-48E3-8003-C7502B438C7E";
shapes = (
{
closed = 1;
nodes = (
(738,580,o),
(631,725,o),
(399,725,cs),
(165,725,o),
(58,580,o),
(58,359,cs),
(58,137,o),
(165,-10,o),
(398,-10,cs),
(631,-10,o),
(738,137,o),
(738,358,cs)
);
},
{
closed = 1;
nodes = (
(217,508,o),
(271,599,o),
(399,599,cs),
(527,599,o),
(579,508,o),
(579,358,cs),
(579,208,o),
(527,117,o),
(398,117,cs),
(271,117,o),
(217,208,o),
(217,358,cs)
);
}
);
width = 796;
},
{
anchors = (
{
name = bottom;
pos = (275,0);
},
{
name = center;
pos = (275,357);
},
{
name = top;
pos = (275,714);
},
{
name = topright;
pos = (530,714);
}
);
layerId = "36F3C8CB-53EE-4548-BFDE-2C03212BACAA";
shapes = (
{
closed = 1;
nodes = (
(501,563,o),
(438,724,o),
(276,724,cs),
(126,724,o),
(50,603,o),
(50,359,cs),
(50,156,o),
(111,-10,o),
(276,-10,cs),
(438,-10,o),
(501,152,o),
(501,358,cs)
);
},
{
closed = 1;
nodes = (
(137,549,o),
(183,648,o),
(276,648,cs),
(366,648,o),
(412,551,o),
(412,358,cs),
(412,163,o),
(365,67,o),
(275,67,cs),
(185,67,o),
(137,166,o),
(137,358,cs)
);
}
);
width = 550;
},
{
anchors = (
{
name = bottom;
pos = (297,0);
},
{
name = center;
pos = (297,357);
},
{
name = top;
pos = (297,714);
},
{
name = topright;
pos = (573,714);
}
);
layerId = "43B45EC1-5522-4B1A-B0C7-88628E50A583";
shapes = (
{
closed = 1;
nodes = (
(550,585,o),
(469,725,o),
(297,725,cs),
(131,725,o),
(43,599,o),
(43,359,cs),
(43,133,o),
(125,-10,o),
(297,-10,cs),
(468,-10,o),
(550,131,o),
(550,358,cs)
);
},
{
closed = 1;
nodes = (
(185,522,o),
(223,606,o),
(297,606,cs),
(371,606,o),
(408,525,o),
(408,358,cs),
(408,190,o),
(371,111,o),
(297,111,cs),
(223,111,o),
(185,194,o),
(185,358,cs)
);
}
);
width = 593;
},
{
anchors = (
{
name = bottom;
pos = (377,0);
},
{
name = center;
pos = (377,357);
},
{
name = top;
pos = (377,714);
},
{
name = topright;
pos = (734,714);
}
);
layerId = "AB666A95-3AF9-4DE8-B258-097FFCFE8A59";
shapes = (
{
closed = 1;
nodes = (
(690,590,o),
(579,725,o),
(382,725,cs),
(177,725,o),
(63,574,o),
(63,359,cs),
(63,143,o),
(168,-10,o),
(376,-10,cs),
(587,-10,o),
(690,143,o),
(690,358,cs)
);
},
{
closed = 1;
nodes = (
(90,556,o),
(186,700,o),
(382,700,cs),
(562,700,o),
(663,575,o),
(663,358,cs),
(663,156,o),
(573,15,o),
(377,15,cs),
(182,15,o),
(90,159,o),
(90,359,cs)
);
}
);
width = 754;
},
{
anchors = (
{
name = bottom;
pos = (256,0);
},
{
name = center;
pos = (256,357);
},
{
name = top;
pos = (256,714);
},
{
name = topright;
pos = (491,714);
}
);
layerId = "029FEF0C-5FA4-4A3E-AC23-838A1147A554";
shapes = (
{
closed = 1;
nodes = (
(457,570,o),
(404,724,o),
(257,724,cs),
(126,724,o),
(54,602,o),
(54,358,cs),
(54,173,o),
(97,-10,o),
(257,-10,cs),
(416,-10,o),
(457,165,o),
(457,358,cs)
);
},
{
closed = 1;
nodes = (
(80,574,o),
(137,699,o),
(257,699,cs),
(374,699,o),
(431,577,o),
(431,358,cs),
(431,135,o),
(374,15,o),
(257,15,cs),
(143,15,o),
(80,141,o),
(80,358,cs)
);
}
);
width = 511;
}
);
script = latin;
subCategory = Uppercase;
unicode = 79;
}
{
category = Letter;
glyphname = P;
kernRight = P.left;
layers = (
{
anchors = (
{
name = bottom;
pos = (316,0);
},
{
name = center;
pos = (336,357);
},
{
name = top;
pos = (325,714);
},
{
name = topright;
pos = (612,714);
}
);
layerId = "0A718E2F-231D-484E-9433-16A5230D2CE8";
shapes = (
{
closed = 1;
nodes = (
(77,714,l),
(77,0,l),
(270,0,l),
(270,237,l),
(324,237,ls),
(527,237,o),
(595,357,o),
(595,487,cs),
(595,632,o),
(505,714,o),
(324,714,cs)
);
},
{
closed = 1;
nodes = (
(376,558,o),
(402,527,o),
(402,482,cs),
(402,417,o),
(358,394,o),
(308,394,cs),
(270,394,l),
(270,558,l),
(320,558,l)
);
}
);
width = 632;
},
{
anchors = (
{
name = bottom;
pos = (260,0);
},
{
name = center;
pos = (275,357);
},
{
name = top;
pos = (279,714);
},
{
name = topright;
pos = (500,714);
}
);
layerId = "98E204A9-1C79-49C7-AB3E-40A925F56409";
shapes = (
{
closed = 1;
nodes = (
(59,714,l),
(59,0,l),
(229,0,l),
(229,237,l),
(262,237,ls),
(420,237,o),
(492,344,o),
(492,487,cs),
(492,632,o),
(418,714,o),
(271,714,cs)
);
},
{
closed = 1;
nodes = (
(300,570,o),
(322,542,o),
(322,486,cs),
(322,410,o),
(291,381,o),
(244,381,cs),
(229,381,l),
(229,570,l),
(255,570,l)
);
}
);
width = 520;
},
{
anchors = (
{
name = bottom;
pos = (303,0);
},
{
name = center;
pos = (325,357);
},
{
name = top;
pos = (317,714);
},
{
name = topright;
pos = (585,714);
}
);
layerId = "9FF96064-8718-4A86-A5C8-73C592101F67";
shapes = (
{
closed = 1;
nodes = (
(97,714,l),
(97,0,l),
(187,0,l),
(187,278,l),
(269,278,ls),
(483,278,o),
(554,386,o),
(554,504,cs),
(554,637,o),
(473,714,o),
(286,714,cs)
);
},
{
closed = 1;
nodes = (
(404,637,o),
(461,592,o),
(461,500,cs),
(461,395,o),
(395,355,o),
(259,355,cs),
(187,355,l),
(187,637,l),
(278,637,l)
);
}
);
width = 605;
},
{
anchors = (
{
name = bottom;
pos = (314,0);
},
{
name = center;
pos = (336,357);
},
{
name = top;
pos = (325,714);
},
{
name = topright;
pos = (608,714);
}
);
layerId = "134B12F2-BF5D-48E3-8003-C7502B438C7E";
shapes = (
{
closed = 1;
nodes = (
(90,714,l),
(90,0,l),
(241,0,l),
(241,254,l),
(306,254,l),
(514,254,o),
(583,366,o),
(583,491,c),
(583,630,o),
(502,714,o),
(318,714,c)
);
},
{
closed = 1;
nodes = (
(392,590,o),
(430,556,o),
(430,486,cs),
(430,410,o),
(376,378,o),
(291,378,c),
(241,378,l),
(241,590,l),
(310,590,l)
);
}
);
width = 628;
},
{
anchors = (
{
name = bottom;
pos = (222,0);
},
{
name = center;
pos = (242,357);
},
{
name = top;
pos = (230,714);
},
{
name = topright;
pos = (423,714);
}
);
layerId = "36F3C8CB-53EE-4548-BFDE-2C03212BACAA";
shapes = (
{
closed = 1;
nodes = (
(73,714,l),
(73,0,l),
(157,0,l),
(157,278,l),
(203,278,ls),
(343,278,o),
(412,357,o),
(412,503,cs),
(412,646,o),
(346,714,o),
(205,714,cs)
);
},
{
closed = 1;
nodes = (
(287,640,o),
(326,600,o),
(326,502,cs),
(326,395,o),
(288,352,o),
(195,352,cs),
(157,352,l),
(157,640,l),
(202,640,l)
);
}
);
width = 443;
},
{
anchors = (
{
name = bottom;
pos = (245,0);
},
{
name = center;
pos = (262,357);
},
{
name = top;
pos = (260,714);
},
{
name = topright;
pos = (470,714);
}
);
layerId = "43B45EC1-5522-4B1A-B0C7-88628E50A583";
shapes = (
{
closed = 1;
nodes = (
(64,714,l),
(64,0,l),
(201,0,l),
(201,253,l),
(239,253,ls),
(389,253,o),
(460,349,o),
(460,493,cs),
(460,637,o),
(390,714,o),
(245,714,cs)
);
},
{
closed = 1;
nodes = (
(295,597,o),
(324,565,o),
(324,492,cs),
(324,404,o),
(290,370,o),
(225,370,cs),
(201,370,l),
(201,597,l),
(235,597,l)
);
}
);
width = 490;
},
{
anchors = (
{
name = bottom;
pos = (287,0);
},
{
name = center;
pos = (309,357);
},
{
name = top;
pos = (287,714);
},
{
name = topright;
pos = (553,714);
}
);
layerId = "AB666A95-3AF9-4DE8-B258-097FFCFE8A59";
shapes = (
{
closed = 1;
nodes = (
(103,714,l),
(103,0,l),
(129,0,l),
(129,305,l),
(256,305,ls),
(414,305,o),
(516,364,o),
(516,519,cs),
(516,658,o),
(429,714,o),
(270,714,cs)
);
},
{
closed = 1;
nodes = (
(418,689,o),
(489,639,o),
(489,518,cs),
(489,372,o),
(394,330,o),
(254,330,cs),
(129,330,l),
(129,689,l),
(266,689,l)
);
}
);
width = 573;
},
{
anchors = (
{
name = bottom;
pos = (198,0);
},
{
name = center;
pos = (220,357);
},
{
name = top;
pos = (198,714);
},
{
name = topright;
pos = (375,714);
}
);
layerId = "029FEF0C-5FA4-4A3E-AC23-838A1147A554";
shapes = (
{
closed = 1;
nodes = (
(78,714,l),
(78,0,l),
(104,0,l),
(104,306,l),
(172,306,ls),
(303,306,o),
(362,366,o),
(362,519,cs),
(362,663,o),
(300,714,o),
(172,714,cs)
);
},
{
closed = 1;
nodes = (
(282,689,o),
(335,645,o),
(335,520,cs),
(335,385,o),
(285,331,o),
(178,331,cs),
(104,331,l),
(104,689,l),
(171,689,l)
);
}
);
width = 395;
}
);
script = latin;
subCategory = Uppercase;
unicode = 80;
}
{
category = Letter;
glyphname = Q;
kernLeft = O.right;
kernRight = O.left;
layers = (
{
anchors = (
{
name = bottom;
pos = (399,-170);
},
{
name = center;
pos = (408,277);
},
{
name = top;
pos = (399,714);
},
{
name = topright;
pos = (777,714);
}
);
layerId = "0A718E2F-231D-484E-9433-16A5230D2CE8";
shapes = (
{
closed = 1;
nodes = (
(745,580,o),
(643,725,o),
(399,725,cs),
(158,725,o),
(51,581,o),
(51,359,cs),
(51,136,o),
(158,-10,o),
(398,-10,cs),
(399,-10,o),
(404,-10,o),
(405,-10,c),
(525,-170,l),
(765,-170,l),
(591,31,l),
(700,91,o),
(745,209,o),
(745,358,cs)
);
},
{
closed = 1;
nodes = (
(254,487,o),
(294,567,o),
(399,567,cs),
(504,567,o),
(542,487,o),
(542,358,cs),
(542,229,o),
(504,151,o),
(398,151,cs),
(295,151,o),
(254,229,o),
(254,358,cs)
);
}
);
width = 797;
},
{
anchors = (
{
name = bottom;
pos = (311,-170);
},
{
name = center;
pos = (310,277);
},
{
name = top;
pos = (311,714);
},
{
name = topright;
pos = (601,714);
}
);
layerId = "98E204A9-1C79-49C7-AB3E-40A925F56409";
shapes = (
{
closed = 1;
nodes = (
(582,599,o),
(489,725,o),
(311,725,cs),
(134,725,o),
(39,597,o),
(39,359,cs),
(39,136,o),
(129,-9,o),
(295,-9,cs),
(297,-9,o),
(300,-9,o),
(302,-9,c),
(388,-170,l),
(579,-170,l),
(457,30,l),
(539,85,o),
(582,196,o),
(582,358,cs)
);
},
{
closed = 1;
nodes = (
(216,505,o),
(248,579,o),
(311,579,cs),
(374,579,o),
(405,509,o),
(405,358,cs),
(405,208,o),
(375,139,o),
(311,139,cs),
(248,139,o),
(216,212,o),
(216,358,cs)
);
}
);
width = 621;
},
{
anchors = (
{
name = bottom;
pos = (391,-170);
},
{
name = center;
pos = (390,277);
},
{
name = top;
pos = (391,714);
},
{
name = topright;
pos = (761,714);
}
);
layerId = "9FF96064-8718-4A86-A5C8-73C592101F67";
shapes = (
{
closed = 1;
nodes = (
(720,580,o),
(606,725,o),
(392,725,cs),
(168,725,o),
(61,578,o),
(61,359,cs),
(61,138,o),
(168,-10,o),
(391,-10,cs),
(399,-10,o),
(408,-9,o),
(416,-9,c),
(554,-170,l),
(683,-170,l),
(512,8,l),
(649,54,o),
(720,183,o),
(720,358,cs)
);
},
{
closed = 1;
nodes = (
(156,538,o),
(230,646,o),
(392,646,cs),
(553,646,o),
(625,538,o),
(625,358,cs),
(625,178,o),
(553,68,o),
(391,68,cs),
(230,68,o),
(156,178,o),
(156,358,cs)
);
}
);
width = 781;
},
{
anchors = (
{
name = bottom;
pos = (398,-170);
},
{
name = center;
pos = (398,277);
},
{
name = top;
pos = (398,714);
},
{
name = topright;
pos = (776,714);
}
);
layerId = "134B12F2-BF5D-48E3-8003-C7502B438C7E";
shapes = (
{
closed = 1;
nodes = (
(738,580,o),
(631,725,o),
(399,725,cs),
(165,725,o),
(58,580,o),
(58,359,cs),
(58,137,o),
(165,-10,o),
(398,-10,cs),
(402,-10,o),
(405,-10,o),
(409,-10,c),
(540,-170,l),
(734,-170,l),
(562,22,l),
(682,76,o),
(738,198,o),
(738,358,cs)
);
},
{
closed = 1;
nodes = (
(217,508,o),
(271,599,o),
(399,599,cs),
(527,599,o),
(579,508,o),
(579,358,cs),
(579,208,o),
(527,117,o),
(398,117,cs),
(271,117,o),
(217,208,o),
(217,358,cs)
);
}
);
width = 796;
},
{
anchors = (
{
name = bottom;
pos = (275,-170);
},
{
name = center;
pos = (275,277);
},
{
name = top;
pos = (275,714);
},
{
name = topright;
pos = (530,714);
}
);
layerId = "36F3C8CB-53EE-4548-BFDE-2C03212BACAA";
shapes = (
{
closed = 1;
nodes = (
(501,600,o),
(421,724,o),
(276,724,cs),
(126,724,o),
(50,603,o),
(50,359,cs),
(50,161,o),
(109,-10,o),
(271,-10,c),
(277,-10,o),
(286,-9,o),
(290,-8,c),
(379,-170,l),
(479,-170,l),
(369,12,l),
(454,57,o),
(501,176,o),
(501,358,cs)
);
},
{
closed = 1;
nodes = (
(137,549,o),
(183,648,o),
(276,648,cs),
(366,648,o),
(412,551,o),
(412,358,cs),
(412,163,o),
(365,67,o),
(275,67,cs),
(185,67,o),
(137,166,o),
(137,358,cs)
);
}
);
width = 550;
},
{
anchors = (
{
name = bottom;
pos = (297,-170);
},
{
name = center;
pos = (296,277);
},
{
name = top;
pos = (297,714);
},
{
name = topright;
pos = (573,714);
}
);
layerId = "43B45EC1-5522-4B1A-B0C7-88628E50A583";
shapes = (
{
closed = 1;
nodes = (
(550,599,o),
(462,725,o),
(297,725,cs),
(131,725,o),
(43,599,o),
(43,359,cs),
(43,146,o),
(121,-9,o),
(285,-9,c),
(289,-9,o),
(294,-9,o),
(297,-9,c),
(384,-170,l),
(540,-170,l),
(423,23,l),
(506,74,o),
(550,188,o),
(550,358,cs)
);
},
{
closed = 1;
nodes = (
(185,522,o),
(223,606,o),
(297,606,cs),
(371,606,o),
(408,525,o),
(408,358,cs),
(408,190,o),
(371,111,o),
(297,111,cs),
(223,111,o),
(185,194,o),
(185,358,cs)
);
}
);
width = 593;
},
{
anchors = (
{
name = bottom;
pos = (377,-170);
},
{
name = center;
pos = (376,277);
},
{
name = top;
pos = (377,714);
},
{
name = topright;
pos = (734,714);
}
);
layerId = "AB666A95-3AF9-4DE8-B258-097FFCFE8A59";
shapes = (
{
closed = 1;
nodes = (
(690,590,o),
(579,725,o),
(382,725,cs),
(177,725,o),
(63,574,o),
(63,359,cs),
(63,143,o),
(168,-10,o),
(376,-10,cs),
(389,-10,o),
(401,-9,o),
(413,-8,c),
(549,-170,l),
(585,-170,l),
(443,-4,l),
(608,23,o),
(690,168,o),
(690,358,cs)
);
},
{
closed = 1;
nodes = (
(90,556,o),
(186,700,o),
(382,700,cs),
(562,700,o),
(663,575,o),
(663,358,cs),
(663,156,o),
(573,15,o),
(377,15,cs),
(182,15,o),
(90,159,o),
(90,359,cs)
);
}
);
width = 754;
},
{
anchors = (
{
name = bottom;
pos = (256,0);
},
{
name = center;
pos = (255,277);
},
{
name = top;
pos = (256,714);
},
{
name = topright;
pos = (491,714);
}
);
layerId = "029FEF0C-5FA4-4A3E-AC23-838A1147A554";
shapes = (
{
closed = 1;
nodes = (
(457,614,o),
(379,724,o),
(261,724,cs),
(125,724,o),
(54,602,o),
(54,359,cs),
(54,153,o),
(109,-10,o),
(255,-10,cs),
(264,-10,o),
(274,-10,o),
(287,-8,c),
(366,-170,l),
(395,-170,l),
(312,-1,l),
(406,31,o),
(457,143,o),
(457,358,cs)
);
},
{
closed = 1;
nodes = (
(80,573,o),
(135,699,o),
(261,699,cs),
(372,699,o),
(431,580,o),
(431,358,cs),
(431,137,o),
(375,15,o),
(256,15,cs),
(142,15,o),
(80,140,o),
(80,359,cs)
);
}
);
width = 511;
}
);
script = latin;
subCategory = Uppercase;
unicode = 81;
}
{
category = Letter;
glyphname = R;
layers = (
{
anchors = (
{
name = bottom;
pos = (354,0);
},
{
name = center;
pos = (383,357);
},
{
name = top;
pos = (339,714);
},
{
name = topright;
pos = (657,714);
}
);
layerId = "0A718E2F-231D-484E-9433-16A5230D2CE8";
shapes = (
{
closed = 1;
nodes = (
(77,714,l),
(77,0,l),
(270,0,l),
(270,260,l),
(319,260,l),
(470,0,l),
(689,0,l),
(481,311,l),
(556,353,o),
(602,416,o),
(602,503,cs),
(602,642,o),
(505,714,o),
(311,714,cs)
);
},
{
closed = 1;
nodes = (
(378,568,o),
(407,540,o),
(407,494,cs),
(407,427,o),
(365,405,o),
(306,405,cs),
(270,405,l),
(270,568,l),
(308,568,l)
);
}
);
width = 677;
},
{
anchors = (
{
name = bottom;
pos = (283,0);
},
{
name = center;
pos = (304,357);
},
{
name = top;
pos = (280,714);
},
{
name = topright;
pos = (525,714);
}
);
layerId = "98E204A9-1C79-49C7-AB3E-40A925F56409";
shapes = (
{
closed = 1;
nodes = (
(59,714,l),
(59,0,l),
(229,0,l),
(229,268,l),
(251,268,l),
(363,0,l),
(550,0,l),
(401,311,l),
(466,356,o),
(498,420,o),
(498,503,cs),
(498,644,o),
(416,714,o),
(250,714,cs)
);
},
{
closed = 1;
nodes = (
(298,572,o),
(323,546,o),
(323,494,cs),
(323,431,o),
(298,400,o),
(247,400,cs),
(229,400,l),
(229,572,l),
(248,572,l)
);
}
);
width = 545;
},
{
anchors = (
{
name = bottom;
pos = (328,0);
},
{
name = center;
pos = (352,357);
},
{
name = top;
pos = (311,714);
},
{
name = topright;
pos = (602,714);
}
);
layerId = "9FF96064-8718-4A86-A5C8-73C592101F67";
shapes = (
{
closed = 1;
nodes = (
(97,714,l),
(97,0,l),
(187,0,l),
(187,295,l),
(329,295,l),
(502,0,l),
(607,0,l),
(411,320,l),
(483,345,o),
(554,397,o),
(554,511,cs),
(554,647,o),
(471,714,o),
(294,714,cs)
);
},
{
closed = 1;
nodes = (
(406,636,o),
(461,600,o),
(461,507,cs),
(461,417,o),
(410,371,o),
(294,371,cs),
(187,371,l),
(187,636,l),
(289,636,l)
);
}
);
width = 622;
},
{
anchors = (
{
name = bottom;
pos = (358,0);
},
{
name = center;
pos = (375,357);
},
{
name = top;
pos = (338,714);
},
{
name = topright;
pos = (640,714);
}
);
layerId = "134B12F2-BF5D-48E3-8003-C7502B438C7E";
shapes = (
{
closed = 1;
nodes = (
(90,714,l),
(90,0,l),
(241,0,l),
(241,274,l),
(322,274,l),
(492,0,l),
(660,0,l),
(450,311,l),
(520,343,o),
(583,402,o),
(583,500,cs),
(583,644,o),
(492,714,o),
(298,714,cs)
);
},
{
closed = 1;
nodes = (
(385,590,o),
(430,564,o),
(430,496,cs),
(430,431,o),
(390,397,o),
(290,397,cs),
(241,397,l),
(241,590,l),
(287,590,l)
);
}
);
width = 660;
},
{
anchors = (
{
name = bottom;
pos = (241,0);
},
{
name = center;
pos = (260,357);
},
{
name = top;
pos = (233,714);
},
{
name = topright;
pos = (441,714);
}
);
layerId = "36F3C8CB-53EE-4548-BFDE-2C03212BACAA";
shapes = (
{
closed = 1;
nodes = (
(73,714,l),
(73,0,l),
(157,0,l),
(157,299,l),
(228,299,l),
(355,0,l),
(448,0,l),
(304,320,l),
(381,355,o),
(413,419,o),
(413,513,cs),
(413,647,o),
(346,714,o),
(199,714,cs)
);
},
{
closed = 1;
nodes = (
(287,638,o),
(327,600,o),
(327,509,cs),
(327,416,o),
(285,369,o),
(209,369,cs),
(157,369,l),
(157,638,l),
(200,638,l)
);
}
);
width = 461;
},
{
anchors = (
{
name = bottom;
pos = (267,0);
},
{
name = center;
pos = (287,357);
},
{
name = top;
pos = (262,714);
},
{
name = topright;
pos = (492,714);
}
);
layerId = "43B45EC1-5522-4B1A-B0C7-88628E50A583";
shapes = (
{
closed = 1;
nodes = (
(64,714,l),
(64,0,l),
(201,0,l),
(201,280,l),
(242,280,l),
(359,0,l),
(510,0,l),
(363,314,l),
(433,356,o),
(465,419,o),
(465,507,cs),
(465,645,o),
(388,714,o),
(230,714,cs)
);
},
{
closed = 1;
nodes = (
(294,598,o),
(325,567,o),
(325,500,cs),
(325,425,o),
(293,388,o),
(232,388,cs),
(201,388,l),
(201,598,l),
(229,598,l)
);
}
);
width = 512;
},
{
anchors = (
{
name = bottom;
pos = (297,0);
},
{
name = center;
pos = (327,357);
},
{
name = top;
pos = (289,714);
},
{
name = topright;
pos = (557,714);
}
);
layerId = "AB666A95-3AF9-4DE8-B258-097FFCFE8A59";
shapes = (
{
closed = 1;
nodes = (
(103,714,l),
(103,0,l),
(129,0,l),
(129,320,l),
(327,320,l),
(518,0,l),
(551,0,l),
(355,327,l),
(456,354,o),
(516,419,o),
(516,525,cs),
(516,673,o),
(427,714,o),
(262,714,cs)
);
},
{
closed = 1;
nodes = (
(413,689,o),
(489,652,o),
(489,524,cs),
(489,410,o),
(408,345,o),
(292,345,cs),
(129,345,l),
(129,689,l),
(257,689,l)
);
}
);
width = 577;
},
{
anchors = (
{
name = bottom;
pos = (212,0);
},
{
name = center;
pos = (231,357);
},
{
name = top;
pos = (202,714);
},
{
name = topright;
pos = (384,714);
}
);
layerId = "029FEF0C-5FA4-4A3E-AC23-838A1147A554";
shapes = (
{
closed = 1;
nodes = (
(78,714,l),
(78,0,l),
(104,0,l),
(104,322,l),
(208,322,l),
(354,0,l),
(384,0,l),
(234,328,l),
(320,349,o),
(363,413,o),
(363,525,cs),
(363,668,o),
(292,714,o),
(169,714,cs)
);
},
{
closed = 1;
nodes = (
(290,689,o),
(337,642,o),
(337,527,cs),
(337,398,o),
(278,348,o),
(190,348,cs),
(104,348,l),
(104,689,l),
(166,689,l)
);
}
);
width = 404;
}
);
script = latin;
subCategory = Uppercase;
unicode = 82;
}
{
category = Letter;
color = 10;
glyphname = S;
layers = (
{
anchors = (
{
name = bottom;
pos = (289,0);
},
{
name = center;
pos = (294,357);
},
{
name = top;
pos = (289,714);
},
{
name = topright;
pos = (557,714);
}
);
layerId = "0A718E2F-231D-484E-9433-16A5230D2CE8";
shapes = (
{
closed = 1;
nodes = (
(544,328,o),
(484,379,o),
(380,426,cs),
(274,474,o),
(240,490,o),
(240,524,cs),
(240,550,o),
(262,570,o),
(312,570,cs),
(363,570,o),
(424,552,o),
(485,524,c),
(544,673,l),
(485,699,o),
(411,724,o),
(318,724,cs),
(158,724,o),
(49,653,o),
(49,515,cs),
(49,392,o),
(116,343,o),
(222,294,cs),
(315,252,o),
(351,237,o),
(351,200,cs),
(351,169,o),
(325,147,o),
(268,147,cs),
(204,147,o),
(121,168,o),
(44,207,c),
(44,35,l),
(112,3,o),
(166,-10,o),
(264,-10,cs),
(459,-10,o),
(544,100,o),
(544,217,cs)
);
}
);
width = 577;
},
{
anchors = (
{
name = bottom;
pos = (213,0);
},
{
name = center;
pos = (228,357);
},
{
name = top;
pos = (242,714);
},
{
name = topright;
pos = (434,714);
}
);
layerId = "98E204A9-1C79-49C7-AB3E-40A925F56409";
shapes = (
{
closed = 1;
nodes = (
(429,312,o),
(383,369,o),
(297,422,cs),
(216,471,o),
(204,486,o),
(204,524,cs),
(204,550,o),
(219,570,o),
(256,570,cs),
(292,570,o),
(334,555,o),
(384,524,c),
(429,673,l),
(368,707,o),
(308,724,o),
(249,724,cs),
(108,724,o),
(32,642,o),
(32,515,cs),
(32,401,o),
(85,353,o),
(169,300,cs),
(247,251,o),
(256,231,o),
(256,200,cs),
(256,169,o),
(237,147,o),
(195,147,cs),
(146,147,o),
(84,169,o),
(28,207,c),
(28,35,l),
(89,1,o),
(143,-10,o),
(205,-10,cs),
(342,-10,o),
(429,84,o),
(429,217,cs)
);
}
);
width = 454;
},
{
anchors = (
{
name = bottom;
pos = (257,0);
},
{
name = center;
pos = (276,357);
},
{
name = top;
pos = (285,714);
},
{
name = topright;
pos = (529,714);
}
);
layerId = "9FF96064-8718-4A86-A5C8-73C592101F67";
shapes = (
{
closed = 1;
nodes = (
(502,303,o),
(433,350,o),
(307,397,cs),
(191,440,o),
(151,469,o),
(151,541,cs),
(151,603,o),
(197,645,o),
(286,645,cs),
(348,645,o),
(407,628,o),
(457,607,c),
(485,684,l),
(431,708,o),
(366,724,o),
(288,724,cs),
(153,724,o),
(60,655,o),
(60,542,cs),
(60,431,o),
(122,374,o),
(244,330,cs),
(373,283,o),
(412,253,o),
(412,183,cs),
(412,112,o),
(357,68,o),
(251,68,cs),
(175,68,o),
(99,89,o),
(51,110,c),
(51,24,l),
(96,2,o),
(167,-10,o),
(247,-10,cs),
(403,-10,o),
(502,64,o),
(502,191,cs)
);
}
);
width = 549;
},
{
anchors = (
{
name = bottom;
pos = (268,0);
},
{
name = center;
pos = (278,357);
},
{
name = top;
pos = (284,714);
},
{
name = topright;
pos = (531,714);
}
);
associatedMasterId = "9FF96064-8718-4A86-A5C8-73C592101F67";
attr = {
coordinates = (
151,
100
);
};
background = {
shapes = (
{
closed = 1;
nodes = (
(527.62,318.25,o),
(464.11,367.69,o),
(351.53,414.69,cs),
(241.63,460.74,o),
(205.29,481.81,o),
(205.29,530.63,cs),
(205.29,570.67,o),
(236.65,599.25,o),
(301.86,599.25,cs),
(357.15,599.25,o),
(417.37,581.64,o),
(474.08,556.37,c),
(520.99,677.29,l),
(463.94,702.51,o),
(393.45,724,o),
(306.3,724,cs),
(156.05,724,o),
(53.29,653.78,o),
(53.29,525.53,cs),
(53.29,407.21,o),
(118.34,355.09,o),
(230.58,308.04,cs),
(337.62,264.09,o),
(374.79,243.24,o),
(374.79,193.37,cs),
(374.79,146.77,o),
(337.48,116.19,o),
(261.37,116.19,cs),
(192.69,116.19,o),
(112.42,137.19,o),
(46.73,169.17,c),
(46.73,30.71,l),
(105.76,2.61,o),
(166.39,-10,o),
(257.37,-10,cs),
(437.16,-10,o),
(527.62,85.96,o),
(527.62,206.86,cs)
);
}
);
};
layerId = "72ee5766-e847-4dc4-a8fd-b8203f4c3d2f";
name = "SemiBold (intermediate)";
shapes = (
{
closed = 1;
nodes = (
(511,310,o),
(446,360,o),
(337,412,cs),
(247,455,o),
(202,475,o),
(202,526,cs),
(202,569,o),
(234,598,o),
(291,598,cs),
(345,598,o),
(393,583,o),
(459,556,c),
(508,674,l),
(434,706,o),
(370,724,o),
(296,724,cs),
(147,724,o),
(54,649,o),
(54,521,cs),
(54,391,o),
(158,340,o),
(224,308,cs),
(303,270,o),
(363,244,o),
(363,191,cs),
(363,147,o),
(334,115,o),
(260,115,cs),
(188,115,o),
(114,144,o),
(46,174,c),
(46,33,l),
(104,5,o),
(174,-10,o),
(248,-10,cs),
(416,-10,o),
(511,71,o),
(511,198,c)
);
}
);
width = 551;
},
{
anchors = (
{
name = bottom;
pos = (195,0);
},
{
name = center;
pos = (206,357);
},
{
name = top;
pos = (216,714);
},
{
name = topright;
pos = (393,714);
}
);
layerId = "36F3C8CB-53EE-4548-BFDE-2C03212BACAA";
shapes = (
{
closed = 1;
nodes = (
(375,288,o),
(331,347,o),
(238,396,c),
(155,441,o),
(128,467,o),
(128,540,cs),
(128,601,o),
(165,645,o),
(227,645,cs),
(263,645,o),
(302,634,o),
(342,612,c),
(369,689,l),
(332,708,o),
(281,724,o),
(225,724,c),
(118,725,o),
(41,647,o),
(43,536,c),
(43,423,o),
(95,378,o),
(180,332,cs),
(262,289,o),
(290,257,o),
(290,188,cs),
(290,123,o),
(251,69,o),
(184,69,cs),
(139,69,o),
(83,82,o),
(38,108,c),
(38,21,l),
(80,0,o),
(129,-10,o),
(187,-10,cs),
(300,-10,o),
(375,75,o),
(375,196,cs)
);
}
);
width = 413;
},
{
anchors = (
{
name = bottom;
pos = (272,0);
},
{
name = center;
pos = (272,357);
},
{
name = top;
pos = (272,714);
},
{
name = topright;
pos = (523,714);
}
);
layerId = "AB666A95-3AF9-4DE8-B258-097FFCFE8A59";
shapes = (
{
closed = 1;
nodes = (
(489,298,o),
(404,335,o),
(277,375,cs),
(174,407,o),
(91,437,o),
(91,546,cs),
(91,653,o),
(183,699,o),
(289,699,cs),
(342,699,o),
(398,691,o),
(460,664,c),
(471,687,l),
(412,713,o),
(354,724,o),
(291,724,cs),
(165,724,o),
(64,664,o),
(64,544,cs),
(64,425,o),
(147,389,o),
(263,352,cs),
(386,313,o),
(462,280,o),
(462,181,cs),
(462,65,o),
(365,15,o),
(252,15,cs),
(171,15,o),
(109,29,o),
(56,48,c),
(56,19,l),
(104,5,o),
(158,-10,o),
(250,-10,cs),
(380,-10,o),
(489,51,o),
(489,180,cs)
);
}
);
width = 543;
},
{
anchors = (
{
name = bottom;
pos = (195,0);
},
{
name = center;
pos = (194,357);
},
{
name = top;
pos = (195,714);
},
{
name = topright;
pos = (369,714);
}
);
layerId = "029FEF0C-5FA4-4A3E-AC23-838A1147A554";
shapes = (
{
closed = 1;
nodes = (
(346,299,o),
(292,327,o),
(201,376,cs),
(132,413,o),
(74,447,o),
(74,545,cs),
(74,640,o),
(125,699,o),
(219,699,cs),
(246,699,o),
(287,694,o),
(326,674,c),
(337,696,l),
(310,711,o),
(264,724,o),
(219,724,cs),
(117,724,o),
(47,663,o),
(47,545,cs),
(47,431,o),
(113,395,o),
(189,354,cs),
(277,307,o),
(319,280,o),
(319,185,cs),
(319,82,o),
(272,16,o),
(172,16,cs),
(129,16,o),
(77,28,o),
(42,44,c),
(42,15,l),
(81,-2,o),
(134,-10,o),
(172,-10,cs),
(284,-10,o),
(346,59,o),
(346,185,cs)
);
}
);
width = 389;
}
);
script = latin;
subCategory = Uppercase;
unicode = 83;
}
{
category = Letter;
color = 10;
glyphname = U;
kernLeft = U.right;
kernRight = U.left;
layers = (
{
anchors = (
{
name = bottom;
pos = (377,0);
},
{
name = center;
pos = (378,352);
},
{
name = top;
pos = (379,714);
},
{
name = topright;
pos = (737,714);
}
);
layerId = "0A718E2F-231D-484E-9433-16A5230D2CE8";
shapes = (
{
closed = 1;
nodes = (
(684,714,l),
(491,714,l),
(491,296,ls),
(491,194,o),
(458,151,o),
(379,151,cs),
(305,151,o),
(267,194,o),
(267,295,cs),
(267,714,l),
(73,714,l),
(73,280,ls),
(73,95,o),
(179,-10,o),
(376,-10,cs),
(582,-10,o),
(684,104,o),
(684,284,cs)
);
}
);
width = 757;
},
{
anchors = (
{
name = bottom;
pos = (291,0);
},
{
name = center;
pos = (294,352);
},
{
name = top;
pos = (294,714);
},
{
name = topright;
pos = (568,714);
}
);
layerId = "98E204A9-1C79-49C7-AB3E-40A925F56409";
shapes = (
{
closed = 1;
nodes = (
(533,714,l),
(363,714,l),
(363,247,ls),
(363,167,o),
(342,139,o),
(294,139,cs),
(249,139,o),
(226,168,o),
(226,246,cs),
(226,714,l),
(56,714,l),
(56,238,ls),
(56,72,o),
(140,-10,o),
(292,-10,cs),
(448,-10,o),
(533,77,o),
(533,242,cs)
);
}
);
width = 588;
},
{
anchors = (
{
name = bottom;
pos = (364,0);
},
{
name = center;
pos = (365,352);
},
{
name = top;
pos = (366,714);
},
{
name = topright;
pos = (711,714);
}
);
layerId = "9FF96064-8718-4A86-A5C8-73C592101F67";
shapes = (
{
closed = 1;
nodes = (
(640,714,l),
(551,714,l),
(551,252,ls),
(551,144,o),
(496,68,o),
(367,68,cs),
(242,68,o),
(180,135,o),
(180,251,cs),
(180,714,l),
(90,714,l),
(90,254,ls),
(90,95,o),
(184,-10,o),
(362,-10,cs),
(551,-10,o),
(640,104,o),
(640,252,cs)
);
}
);
width = 731;
},
{
anchors = (
{
name = bottom;
pos = (376,0);
},
{
name = center;
pos = (378,352);
},
{
name = top;
pos = (378,714);
},
{
name = topright;
pos = (736,714);
}
);
associatedMasterId = "9FF96064-8718-4A86-A5C8-73C592101F67";
attr = {
coordinates = (
151,
100
);
};
background = {
shapes = (
{
closed = 1;
nodes = (
(666.84,714,l),
(514.4,714,l),
(514.4,278.84,ls),
(514.4,174.5,o),
(472.82,118.63,o),
(374.32,118.63,cs),
(280.43,118.63,o),
(233.07,170.99,o),
(233.07,277.84,cs),
(233.07,714,l),
(79.63,714,l),
(79.63,269.86,ls),
(79.63,95,o),
(180.95,-10,o),
(370.54,-10,cs),
(569.91,-10,o),
(666.84,104,o),
(666.84,271.52,cs)
);
}
);
};
layerId = "30aa1d3f-3215-47a6-a376-3863f9838753";
name = "SemiBold (intermediate)";
shapes = (
{
closed = 1;
nodes = (
(671,714,l),
(520,714,l),
(520,278,ls),
(520,167,o),
(478,117,o),
(379,117,cs),
(284,117,o),
(236,159,o),
(236,277,cs),
(236,714,l),
(85,714,l),
(85,254,ls),
(85,95,o),
(186,-10,o),
(375,-10,cs),
(574,-10,o),
(671,104,o),
(671,252,cs)
);
}
);
width = 756;
},
{
anchors = (
{
name = bottom;
pos = (263,0);
},
{
name = center;
pos = (261,352);
},
{
name = top;
pos = (261,714);
},
{
name = topright;
pos = (502,714);
}
);
layerId = "36F3C8CB-53EE-4548-BFDE-2C03212BACAA";
shapes = (
{
closed = 1;
nodes = (
(455,714,l),
(370,714,l),
(370,223,ls),
(370,111,o),
(334,67,o),
(262,67,cs),
(191,67,o),
(151,112,o),
(151,222,cs),
(151,714,l),
(67,714,l),
(67,223,ls),
(67,64,o),
(135,-10,o),
(262,-10,cs),
(389,-10,o),
(455,62,o),
(455,224,cs)
);
}
);
width = 522;
},
{
anchors = (
{
name = bottom;
pos = (356,0);
},
{
name = center;
pos = (356,352);
},
{
name = top;
pos = (356,714);
},
{
name = topright;
pos = (692,714);
}
);
layerId = "AB666A95-3AF9-4DE8-B258-097FFCFE8A59";
shapes = (
{
closed = 1;
nodes = (
(618,714,l),
(592,714,l),
(592,244,ls),
(592,92,o),
(498,15,o),
(356,15,cs),
(207,15,o),
(121,96,o),
(121,256,cs),
(121,714,l),
(95,714,l),
(95,254,ls),
(95,81,o),
(190,-10,o),
(355,-10,cs),
(510,-10,o),
(618,74,o),
(618,252,cs)
);
}
);
width = 712;
},
{
anchors = (
{
name = bottom;
pos = (243,0);
},
{
name = center;
pos = (243,352);
},
{
name = top;
pos = (243,714);
},
{
name = topright;
pos = (466,714);
}
);
layerId = "029FEF0C-5FA4-4A3E-AC23-838A1147A554";
shapes = (
{
closed = 1;
nodes = (
(414,714,l),
(388,714,l),
(388,221,ls),
(388,63,o),
(328,15,o),
(243,15,cs),
(152,15,o),
(98,71,o),
(98,221,cs),
(98,714,l),
(72,714,l),
(72,217,ls),
(72,59,o),
(133,-10,o),
(243,-10,cs),
(338,-10,o),
(414,42,o),
(414,217,cs)
);
}
);
width = 486;
}
);
script = latin;
subCategory = Uppercase;
unicode = 85;
}
{
category = Letter;
glyphname = V;
kernLeft = V.right;
kernRight = V.left;
layers = (
{
anchors = (
{
name = bottom;
pos = (343,0);
},
{
name = center;
pos = (347,357);
},
{
name = top;
pos = (347,714);
},
{
name = topright;
pos = (674,714);
}
);
layerId = "0A718E2F-231D-484E-9433-16A5230D2CE8";
shapes = (
{
closed = 1;
nodes = (
(478,714,l),
(379,350,ls),
(367,309,o),
(351,224,o),
(347,184,c),
(344,224,o),
(324,311,o),
(314,352,cs),
(217,714,l),
(0,714,l),
(233,0,l),
(460,0,l),
(694,714,l)
);
}
);
width = 694;
},
{
anchors = (
{
name = bottom;
pos = (277,0);
},
{
name = center;
pos = (280,357);
},
{
name = top;
pos = (281,714);
},
{
name = topright;
pos = (540,714);
}
);
layerId = "98E204A9-1C79-49C7-AB3E-40A925F56409";
shapes = (
{
closed = 1;
nodes = (
(382,714,l),
(309,361,ls),
(299,314,o),
(284,224,o),
(279,181,c),
(275,224,o),
(260,315,o),
(250,362,cs),
(178,714,l),
(0,714,l),
(180,0,l),
(378,0,l),
(560,714,l)
);
}
);
width = 560;
},
{
anchors = (
{
name = bottom;
pos = (299,0);
},
{
name = center;
pos = (300,357);
},
{
name = top;
pos = (303,714);
},
{
name = topright;
pos = (580,714);
}
);
layerId = "9FF96064-8718-4A86-A5C8-73C592101F67";
shapes = (
{
closed = 1;
nodes = (
(505,714,l),
(345,258,ls),
(324,198,o),
(309,147,o),
(300,100,c),
(290,147,o),
(276,197,o),
(255,256,cs),
(94,714,l),
(0,714,l),
(255,0,l),
(345,0,l),
(600,714,l)
);
}
);
width = 600;
},
{
anchors = (
{
name = bottom;
pos = (323,0);
},
{
name = center;
pos = (325,357);
},
{
name = top;
pos = (326,714);
},
{
name = topright;
pos = (630,714);
}
);
layerId = "134B12F2-BF5D-48E3-8003-C7502B438C7E";
shapes = (
{
closed = 1;
nodes = (
(497,714,l),
(362,289,l),
(355,266,o),
(331,175,o),
(325,132,c),
(319,175,o),
(294,267,o),
(287,289,cs),
(153,714,l),
(0,714,l),
(242,0,l),
(407,0,l),
(650,714,l)
);
}
);
width = 650;
},
{
anchors = (
{
name = bottom;
pos = (219,0);
},
{
name = center;
pos = (220,357);
},
{
name = top;
pos = (223,714);
},
{
name = topright;
pos = (421,714);
}
);
layerId = "36F3C8CB-53EE-4548-BFDE-2C03212BACAA";
shapes = (
{
closed = 1;
nodes = (
(353,714,l),
(244,233,ls),
(234,188,o),
(225,138,o),
(219,95,c),
(214,138,o),
(205,189,o),
(196,231,cs),
(88,714,l),
(0,714,l),
(171,0,l),
(268,0,l),
(441,714,l)
);
}
);
width = 441;
},
{
anchors = (
{
name = bottom;
pos = (254,0);
},
{
name = center;
pos = (256,357);
},
{
name = top;
pos = (258,714);
},
{
name = topright;
pos = (493,714);
}
);
layerId = "43B45EC1-5522-4B1A-B0C7-88628E50A583";
shapes = (
{
closed = 1;
nodes = (
(371,714,l),
(284,311,ls),
(274,265,o),
(261,191,o),
(256,148,c),
(251,191,o),
(239,266,o),
(229,311,cs),
(143,714,l),
(0,714,l),
(177,0,l),
(335,0,l),
(513,714,l)
);
}
);
width = 513;
},
{
anchors = (
{
name = bottom;
pos = (282,0);
},
{
name = center;
pos = (281,357);
},
{
name = top;
pos = (282,714);
},
{
name = topright;
pos = (543,714);
}
);
layerId = "AB666A95-3AF9-4DE8-B258-097FFCFE8A59";
shapes = (
{
closed = 1;
nodes = (
(535,714,l),
(320,143,ls),
(303,98,o),
(292,67,o),
(282,37,c),
(272,67,o),
(258,105,o),
(244,143,cs),
(28,714,l),
(0,714,l),
(269,0,l),
(294,0,l),
(563,714,l)
);
}
);
width = 563;
},
{
anchors = (
{
name = bottom;
pos = (183,0);
},
{
name = center;
pos = (183,357);
},
{
name = top;
pos = (183,714);
},
{
name = topright;
pos = (346,714);
}
);
layerId = "029FEF0C-5FA4-4A3E-AC23-838A1147A554";
shapes = (
{
closed = 1;
nodes = (
(340,714,l),
(205,136,ls),
(196,99,o),
(190,69,o),
(182,31,c),
(175,69,o),
(168,98,o),
(159,136,cs),
(25,714,l),
(0,714,l),
(165,0,l),
(198,0,l),
(366,714,l)
);
}
);
width = 366;
}
);
script = latin;
subCategory = Uppercase;
unicode = 86;
}
{
category = Letter;
glyphname = W;
kernLeft = V.right;
kernRight = V.left;
layers = (
{
anchors = (
{
name = bottom;
pos = (521,0);
},
{
name = center;
pos = (519,357);
},
{
name = top;
pos = (520,714);
},
{
name = topright;
pos = (1019,714);
}
);
layerId = "0A718E2F-231D-484E-9433-16A5230D2CE8";
shapes = (
{
closed = 1;
nodes = (
(838,714,l),
(759,355,ls),
(751,319,o),
(730,216,o),
(724,167,c),
(715,245,o),
(684,388,o),
(671,444,cs),
(610,714,l),
(431,714,l),
(368,444,ls),
(354,386,o),
(325,248,o),
(315,167,c),
(309,214,o),
(287,321,o),
(279,356,cs),
(201,714,l),
(15,714,l),
(192,0,l),
(420,0,l),
(489,311,ls),
(494,334,o),
(516,437,o),
(521,486,c),
(526,437,o),
(547,334,o),
(552,311,cs),
(620,0,l),
(848,0,l),
(1024,714,l)
);
}
);
width = 1039;
},
{
anchors = (
{
name = bottom;
pos = (404,0);
},
{
name = center;
pos = (405,357);
},
{
name = top;
pos = (405,714);
},
{
name = topright;
pos = (790,714);
}
);
layerId = "98E204A9-1C79-49C7-AB3E-40A925F56409";
shapes = (
{
closed = 1;
nodes = (
(640,714,l),
(588,402,ls),
(576,334,o),
(565,254,o),
(561,199,c),
(554,263,o),
(542,349,o),
(531,401,cs),
(474,714,l),
(337,714,l),
(274,401,ls),
(265,356,o),
(251,271,o),
(243,199,c),
(236,267,o),
(225,354,o),
(217,403,cs),
(166,714,l),
(0,714,l),
(137,0,l),
(330,0,l),
(380,268,ls),
(391,327,o),
(401,408,o),
(405,462,c),
(410,396,o),
(420,328,o),
(431,267,cs),
(480,0,l),
(675,0,l),
(810,714,l)
);
}
);
width = 810;
},
{
anchors = (
{
name = bottom;
pos = (458,0);
},
{
name = center;
pos = (464,357);
},
{
name = top;
pos = (465,714);
},
{
name = topright;
pos = (910,714);
}
);
layerId = "9FF96064-8718-4A86-A5C8-73C592101F67";
shapes = (
{
closed = 1;
nodes = (
(823,714,l),
(713,279,ls),
(697,216,o),
(684,157,o),
(678,108,c),
(671,154,o),
(658,218,o),
(639,280,cs),
(508,714,l),
(415,714,l),
(289,283,ls),
(272,224,o),
(258,160,o),
(251,108,c),
(244,158,o),
(233,216,o),
(217,278,cs),
(106,714,l),
(12,714,l),
(201,0,l),
(292,0,l),
(427,465,ls),
(445,526,o),
(459,591,o),
(461,609,c),
(464,591,o),
(480,525,o),
(497,468,cs),
(636,0,l),
(727,0,l),
(917,714,l)
);
}
);
width = 930;
},
{
anchors = (
{
name = bottom;
pos = (482,0);
},
{
name = center;
pos = (483,357);
},
{
name = top;
pos = (484,714);
},
{
name = topright;
pos = (947,714);
}
);
layerId = "134B12F2-BF5D-48E3-8003-C7502B438C7E";
shapes = (
{
closed = 1;
nodes = (
(818,714,l),
(727,324,ls),
(716,277,o),
(698,186,o),
(692,137,c),
(686,185,o),
(668,279,o),
(659,314,cs),
(555,714,l),
(412,714,l),
(308,314,ls),
(298,278,o),
(281,187,o),
(275,137,c),
(269,185,o),
(251,278,o),
(240,324,cs),
(149,714,l),
(0,714,l),
(182,0,l),
(354,0,l),
(450,374,ls),
(458,406,o),
(479,506,o),
(483,542,c),
(487,506,o),
(509,404,o),
(516,375,cs),
(613,0,l),
(785,0,l),
(967,714,l)
);
}
);
width = 967;
},
{
anchors = (
{
name = bottom;
pos = (360,0);
},
{
name = center;
pos = (360,357);
},
{
name = top;
pos = (360,714);
},
{
name = topright;
pos = (699,714);
}
);
layerId = "36F3C8CB-53EE-4548-BFDE-2C03212BACAA";
shapes = (
{
closed = 1;
nodes = (
(631,714,l),
(543,276,ls),
(533,225,o),
(523,162,o),
(515,97,c),
(507,166,o),
(497,223,o),
(487,275,cs),
(400,714,l),
(321,714,l),
(232,274,ls),
(222,220,o),
(211,155,o),
(203,97,c),
(199,140,o),
(188,205,o),
(175,276,cs),
(89,714,l),
(4,714,l),
(152,0,l),
(250,0,l),
(340,456,ls),
(349,501,o),
(354,552,o),
(360,595,c),
(368,527,o),
(375,479,o),
(379,455,cs),
(470,0,l),
(570,0,l),
(716,714,l)
);
}
);
width = 719;
},
{
anchors = (
{
name = bottom;
pos = (387,0);
},
{
name = center;
pos = (387,357);
},
{
name = top;
pos = (387,714);
},
{
name = topright;
pos = (755,714);
}
);
layerId = "43B45EC1-5522-4B1A-B0C7-88628E50A583";
shapes = (
{
closed = 1;
nodes = (
(636,714,l),
(570,353,ls),
(559,292,o),
(548,218,o),
(543,159,c),
(535,225,o),
(524,300,o),
(513,352,cs),
(445,714,l),
(330,714,l),
(257,351,ls),
(248,303,o),
(235,226,o),
(227,159,c),
(221,217,o),
(210,296,o),
(200,353,cs),
(135,714,l),
(1,714,l),
(142,0,l),
(298,0,l),
(364,341,ls),
(374,395,o),
(382,464,o),
(387,514,c),
(393,447,o),
(402,387,o),
(410,340,cs),
(476,0,l),
(633,0,l),
(773,714,l)
);
}
);
width = 775;
},
{
anchors = (
{
name = bottom;
pos = (435,0);
},
{
name = center;
pos = (436,357);
},
{
name = top;
pos = (435,714);
},
{
name = topright;
pos = (849,714);
}
);
layerId = "AB666A95-3AF9-4DE8-B258-097FFCFE8A59";
shapes = (
{
closed = 1;
nodes = (
(812,714,l),
(658,168,ls),
(643,116,o),
(637,88,o),
(629,48,c),
(620,88,o),
(613,116,o),
(598,168,cs),
(445,714,l),
(420,714,l),
(271,171,ls),
(257,121,o),
(249,90,o),
(240,52,c),
(231,90,o),
(221,121,o),
(208,170,cs),
(60,714,l),
(33,714,l),
(228,0,l),
(252,0,l),
(415,604,ls),
(421,627,o),
(425,641,o),
(431,675,c),
(439,639,o),
(446,620,o),
(456,582,cs),
(617,0,l),
(641,0,l),
(839,714,l)
);
}
);
width = 869;
},
{
anchors = (
{
name = bottom;
pos = (324,0);
},
{
name = center;
pos = (323,357);
},
{
name = top;
pos = (324,714);
},
{
name = topright;
pos = (627,714);
}
);
layerId = "029FEF0C-5FA4-4A3E-AC23-838A1147A554";
shapes = (
{
closed = 1;
nodes = (
(614,714,l),
(492,151,ls),
(483,111,o),
(475,72,o),
(467,26,c),
(459,77,o),
(455,103,o),
(446,151,cs),
(335,714,l),
(309,714,l),
(198,151,ls),
(195,134,o),
(184,75,o),
(176,29,c),
(173,48,o),
(166,89,o),
(153,151,cs),
(32,714,l),
(5,714,l),
(157,0,l),
(195,0,l),
(306,561,ls),
(313,597,o),
(317,616,o),
(322,661,c),
(328,616,o),
(331,597,o),
(338,561,cs),
(449,0,l),
(485,0,l),
(642,714,l)
);
}
);
width = 647;
}
);
script = latin;
subCategory = Uppercase;
unicode = 87;
}
{
category = Letter;
glyphname = X;
kernRight = K.left;
layers = (
{
anchors = (
{
name = bottom;
pos = (362,0);
},
{
name = center;
pos = (361,357);
},
{
name = top;
pos = (356,714);
},
{
name = topright;
pos = (703,714);
}
);
layerId = "0A718E2F-231D-484E-9433-16A5230D2CE8";
shapes = (
{
closed = 1;
nodes = (
(477,350,l),
(703,714,l),
(483,714,l),
(359,493,l),
(230,714,l),
(16,714,l),
(239,365,l),
(2,0,l),
(220,0,l),
(358,223,l),
(497,0,l),
(720,0,l)
);
}
);
width = 723;
},
{
anchors = (
{
name = bottom;
pos = (260,0);
},
{
name = center;
pos = (260,357);
},
{
name = top;
pos = (253,714);
},
{
name = topright;
pos = (500,714);
}
);
layerId = "98E204A9-1C79-49C7-AB3E-40A925F56409";
shapes = (
{
closed = 1;
nodes = (
(351,363,l),
(499,714,l),
(319,714,l),
(254,516,l),
(184,714,l),
(8,714,l),
(161,357,l),
(-2,0,l),
(177,0,l),
(259,206,l),
(339,0,l),
(522,0,l)
);
}
);
width = 520;
},
{
anchors = (
{
name = bottom;
pos = (293,0);
},
{
name = center;
pos = (293,357);
},
{
name = top;
pos = (292,714);
},
{
name = topright;
pos = (566,714);
}
);
layerId = "9FF96064-8718-4A86-A5C8-73C592101F67";
shapes = (
{
closed = 1;
nodes = (
(344,374,l),
(565,714,l),
(470,714,l),
(294,434,l),
(119,714,l),
(19,714,l),
(241,372,l),
(4,0,l),
(99,0,l),
(291,310,l),
(480,0,l),
(582,0,l)
);
}
);
width = 586;
},
{
anchors = (
{
name = bottom;
pos = (200,0);
},
{
name = center;
pos = (200,357);
},
{
name = top;
pos = (206,714);
},
{
name = topright;
pos = (380,714);
}
);
layerId = "36F3C8CB-53EE-4548-BFDE-2C03212BACAA";
shapes = (
{
closed = 1;
nodes = (
(253,367,l),
(387,714,l),
(299,714,l),
(205,447,l),
(112,714,l),
(25,714,l),
(158,373,l),
(7,0,l),
(94,0,l),
(204,292,l),
(304,0,l),
(394,0,l)
);
}
);
width = 400;
},
{
anchors = (
{
name = bottom;
pos = (255,0);
},
{
name = center;
pos = (254,357);
},
{
name = top;
pos = (255,714);
},
{
name = topright;
pos = (489,714);
}
);
layerId = "AB666A95-3AF9-4DE8-B258-097FFCFE8A59";
shapes = (
{
closed = 1;
nodes = (
(274,370,l),
(494,714,l),
(463,714,l),
(257,390,l),
(53,714,l),
(22,714,l),
(239,370,l),
(-3,0,l),
(28,0,l),
(256,350,l),
(481,0,l),
(512,0,l)
);
}
);
width = 509;
},
{
anchors = (
{
name = bottom;
pos = (166,0);
},
{
name = center;
pos = (165,357);
},
{
name = top;
pos = (166,714);
},
{
name = topright;
pos = (311,714);
}
);
layerId = "029FEF0C-5FA4-4A3E-AC23-838A1147A554";
shapes = (
{
closed = 1;
nodes = (
(190,373,l),
(321,714,l),
(293,714,l),
(175,401,l),
(62,714,l),
(34,714,l),
(159,373,l),
(10,0,l),
(38,0,l),
(174,345,l),
(293,0,l),
(321,0,l)
);
}
);
width = 331;
}
);
script = latin;
subCategory = Uppercase;
unicode = 88;
}
{
category = Letter;
glyphname = Y;
kernLeft = Y.right;
kernRight = Y.left;
layers = (
{
anchors = (
{
name = bottom;
pos = (332,0);
},
{
name = center;
pos = (332,357);
},
{
name = top;
pos = (332,714);
},
{
name = topright;
pos = (644,714);
}
);
layerId = "0A718E2F-231D-484E-9433-16A5230D2CE8";
shapes = (
{
closed = 1;
nodes = (
(210,714,l),
(0,714,l),
(235,273,l),
(235,0,l),
(429,0,l),
(429,279,l),
(664,714,l),
(455,714,l),
(332,449,l)
);
}
);
width = 664;
},
{
anchors = (
{
name = bottom;
pos = (263,0);
},
{
name = center;
pos = (263,357);
},
{
name = top;
pos = (263,714);
},
{
name = topright;
pos = (506,714);
}
);
layerId = "98E204A9-1C79-49C7-AB3E-40A925F56409";
shapes = (
{
closed = 1;
nodes = (
(177,714,l),
(0,714,l),
(178,268,l),
(178,0,l),
(348,0,l),
(348,274,l),
(526,714,l),
(351,714,l),
(264,454,l)
);
}
);
width = 526;
},
{
anchors = (
{
name = bottom;
pos = (283,0);
},
{
name = center;
pos = (283,357);
},
{
name = top;
pos = (283,714);
},
{
name = topright;
pos = (546,714);
}
);
layerId = "9FF96064-8718-4A86-A5C8-73C592101F67";
shapes = (
{
closed = 1;
nodes = (
(98,714,l),
(0,714,l),
(238,273,l),
(238,0,l),
(328,0,l),
(328,277,l),
(566,714,l),
(469,714,l),
(283,363,l)
);
}
);
width = 566;
},
{
anchors = (
{
name = bottom;
pos = (196,0);
},
{
name = center;
pos = (196,357);
},
{
name = top;
pos = (196,714);
},
{
name = topright;
pos = (372,714);
}
);
layerId = "36F3C8CB-53EE-4548-BFDE-2C03212BACAA";
shapes = (
{
closed = 1;
nodes = (
(88,714,l),
(0,714,l),
(154,276,l),
(154,0,l),
(238,0,l),
(238,278,l),
(392,714,l),
(304,714,l),
(197,378,l)
);
}
);
width = 392;
},
{
anchors = (
{
name = bottom;
pos = (253,0);
},
{
name = center;
pos = (252,357);
},
{
name = top;
pos = (253,714);
},
{
name = topright;
pos = (485,714);
}
);
layerId = "AB666A95-3AF9-4DE8-B258-097FFCFE8A59";
shapes = (
{
closed = 1;
nodes = (
(30,714,l),
(0,714,l),
(241,271,l),
(241,0,l),
(267,0,l),
(267,275,l),
(505,714,l),
(475,714,l),
(253,301,l)
);
}
);
width = 505;
},
{
anchors = (
{
name = bottom;
pos = (158,0);
},
{
name = center;
pos = (157,357);
},
{
name = top;
pos = (158,714);
},
{
name = topright;
pos = (295,714);
}
);
layerId = "029FEF0C-5FA4-4A3E-AC23-838A1147A554";
shapes = (
{
closed = 1;
nodes = (
(27,714,l),
(0,714,l),
(145,278,l),
(145,0,l),
(171,0,l),
(171,278,l),
(315,714,l),
(288,714,l),
(158,315,l)
);
}
);
width = 315;
}
);
script = latin;
subCategory = Uppercase;
unicode = 89;
}
{
category = Letter;
color = 10;
glyphname = Z;
kernLeft = Z.right;
kernRight = Z.left;
layers = (
{
anchors = (
{
name = bottom;
pos = (316,0);
},
{
name = center;
pos = (308,357);
},
{
name = top;
pos = (315,714);
},
{
name = topright;
pos = (591,714);
}
);
layerId = "0A718E2F-231D-484E-9433-16A5230D2CE8";
shapes = (
{
closed = 1;
nodes = (
(586,156,l),
(269,156,l),
(578,595,l),
(578,714,l),
(37,714,l),
(37,558,l),
(339,558,l),
(30,119,l),
(30,0,l),
(586,0,l)
);
}
);
width = 611;
},
{
anchors = (
{
name = bottom;
pos = (244,0);
},
{
name = center;
pos = (235,357);
},
{
name = top;
pos = (236,714);
},
{
name = topright;
pos = (451,714);
}
);
layerId = "98E204A9-1C79-49C7-AB3E-40A925F56409";
shapes = (
{
closed = 1;
nodes = (
(450,146,l),
(206,146,l),
(444,595,l),
(444,714,l),
(26,714,l),
(26,570,l),
(260,570,l),
(21,119,l),
(21,0,l),
(450,0,l)
);
}
);
width = 471;
},
{
anchors = (
{
name = bottom;
pos = (297,0);
},
{
name = center;
pos = (285,357);
},
{
name = top;
pos = (290,714);
},
{
name = topright;
pos = (552,714);
}
);
layerId = "9FF96064-8718-4A86-A5C8-73C592101F67";
shapes = (
{
closed = 1;
nodes = (
(533,80,l),
(147,80,l),
(523,646,l),
(523,714,l),
(50,714,l),
(50,634,l),
(414,634,l),
(38,68,l),
(38,0,l),
(533,0,l)
);
}
);
width = 572;
},
{
anchors = (
{
name = bottom;
pos = (306,0);
},
{
name = center;
pos = (289,357);
},
{
name = top;
pos = (295,714);
},
{
name = topright;
pos = (559,714);
}
);
associatedMasterId = "9FF96064-8718-4A86-A5C8-73C592101F67";
attr = {
coordinates = (
151,
100
);
};
background = {
shapes = (
{
closed = 1;
nodes = (
(565.33,126.36,l),
(221.42,126.36,l),
(556.55,614.89,l),
(556.55,714,l),
(42.07,714,l),
(42.07,587.64,l),
(368.25,587.64,l),
(33.12,99.11,l),
(33.12,0,l),
(565.33,0,l)
);
}
);
};
layerId = "5bf22e13-a0f1-4fc3-b11f-7f8afd0b382d";
name = "SemiBold (intermediate)";
shapes = (
{
closed = 1;
nodes = (
(555,125,l),
(204,125,l),
(546,616,l),
(546,714,l),
(33,714,l),
(33,589,l),
(366,589,l),
(24,98,l),
(24,0,l),
(555,0,l)
);
}
);
width = 579;
},
{
anchors = (
{
name = bottom;
pos = (187,0);
},
{
name = center;
pos = (183,357);
},
{
name = top;
pos = (181,714);
},
{
name = topright;
pos = (341,714);
}
);
layerId = "36F3C8CB-53EE-4548-BFDE-2C03212BACAA";
shapes = (
{
closed = 1;
nodes = (
(341,76,l),
(115,76,l),
(335,648,l),
(335,714,l),
(30,714,l),
(30,638,l),
(244,638,l),
(26,65,l),
(26,0,l),
(341,0,l)
);
}
);
width = 361;
},
{
anchors = (
{
name = bottom;
pos = (289,0);
},
{
name = center;
pos = (287,357);
},
{
name = top;
pos = (289,714);
},
{
name = topright;
pos = (558,714);
}
);
layerId = "AB666A95-3AF9-4DE8-B258-097FFCFE8A59";
shapes = (
{
closed = 1;
nodes = (
(538,25,l),
(73,25,l),
(526,696,l),
(526,714,l),
(64,714,l),
(64,689,l),
(489,689,l),
(36,18,l),
(36,0,l),
(538,0,l)
);
}
);
width = 578;
},
{
anchors = (
{
name = bottom;
pos = (162,0);
},
{
name = center;
pos = (165,357);
},
{
name = top;
pos = (162,714);
},
{
name = topright;
pos = (303,714);
}
);
layerId = "029FEF0C-5FA4-4A3E-AC23-838A1147A554";
shapes = (
{
closed = 1;
nodes = (
(303,25,l),
(57,25,l),
(296,689,l),
(296,714,l),
(40,714,l),
(40,689,l),
(269,689,l),
(28,24,l),
(28,0,l),
(303,0,l)
);
}
);
width = 323;
}
);
script = latin;
subCategory = Uppercase;
unicode = 90;
}
{
category = Punctuation;
glyphname = bracketleft;
kernRight = paren.left;
layers = (
{
layerId = "0A718E2F-231D-484E-9433-16A5230D2CE8";
shapes = (
{
closed = 1;
nodes = (
(301,-44,l),
(212,-44,l),
(212,610,l),
(301,610,l),
(301,734,l),
(57,734,l),
(57,-168,l),
(301,-168,l)
);
}
);
width = 324;
},
{
layerId = "98E204A9-1C79-49C7-AB3E-40A925F56409";
shapes = (
{
closed = 1;
nodes = (
(286,-44,l),
(191,-44,l),
(191,610,l),
(286,610,l),
(286,734,l),
(41,734,l),
(41,-168,l),
(286,-168,l)
);
}
);
width = 303;
},
{
layerId = "9FF96064-8718-4A86-A5C8-73C592101F67";
shapes = (
{
closed = 1;
nodes = (
(304,-86,l),
(166,-86,l),
(166,642,l),
(304,642,l),
(304,714,l),
(80,714,l),
(80,-158,l),
(304,-158,l)
);
}
);
width = 329;
},
{
layerId = "36F3C8CB-53EE-4548-BFDE-2C03212BACAA";
shapes = (
{
closed = 1;
nodes = (
(281,-93,l),
(149,-93,l),
(149,652,l),
(281,652,l),
(281,720,l),
(72,720,l),
(72,-161,l),
(281,-161,l)
);
}
);
width = 312;
},
{
layerId = "AB666A95-3AF9-4DE8-B258-097FFCFE8A59";
shapes = (
{
closed = 1;
nodes = (
(288,-133,l),
(113,-133,l),
(113,689,l),
(288,689,l),
(288,714,l),
(88,714,l),
(88,-158,l),
(288,-158,l)
);
}
);
width = 313;
},
{
layerId = "029FEF0C-5FA4-4A3E-AC23-838A1147A554";
shapes = (
{
closed = 1;
nodes = (
(270,-134,l),
(109,-134,l),
(109,690,l),
(270,690,l),
(270,714,l),
(84,714,l),
(84,-158,l),
(270,-158,l)
);
}
);
width = 306;
}
);
script = "";
subCategory = Parenthesis;
unicode = 91;
}
{
category = Punctuation;
glyphname = backslash;
layers = (
{
layerId = "0A718E2F-231D-484E-9433-16A5230D2CE8";
shapes = (
{
closed = 1;
nodes = (
(3,724,l),
(269,-10,l),
(438,-10,l),
(172,724,l)
);
}
);
width = 442;
},
{
layerId = "98E204A9-1C79-49C7-AB3E-40A925F56409";
shapes = (
{
closed = 1;
nodes = (
(2,724,l),
(281,-10,l),
(422,-10,l),
(144,724,l)
);
}
);
width = 425;
},
{
layerId = "9FF96064-8718-4A86-A5C8-73C592101F67";
shapes = (
{
closed = 1;
nodes = (
(10,714,l),
(276,0,l),
(363,0,l),
(96,714,l)
);
}
);
width = 372;
},
{
layerId = "36F3C8CB-53EE-4548-BFDE-2C03212BACAA";
shapes = (
{
closed = 1;
nodes = (
(18,717,l),
(280,-3,l),
(357,-3,l),
(94,717,l)
);
}
);
width = 371;
},
{
layerId = "AB666A95-3AF9-4DE8-B258-097FFCFE8A59";
shapes = (
{
closed = 1;
nodes = (
(13,714,l),
(281,0,l),
(309,0,l),
(41,714,l)
);
}
);
width = 322;
},
{
layerId = "029FEF0C-5FA4-4A3E-AC23-838A1147A554";
shapes = (
{
closed = 1;
nodes = (
(25,714,l),
(281,0,l),
(309,0,l),
(51,714,l)
);
}
);
width = 327;
}
);
script = "";
subCategory = Other;
unicode = 92;
}
